# Alias OBJ Model File
# Exported from SketchUp, (c) 2000-2012 Trimble Navigation Limited
# File units = inches

mtllib cone.mtl

g Mesh1 Model

usemtl FrontColor
v 59.3581 0 -36.0159
vt -59.3581 36.0159
vn 0 -1 -0
v 60.2329 0 -35.9872
vt -60.2329 35.9872
v 61.1039 0 -35.9014
vt -61.1039 35.9014
v 61.9674 0 -35.7589
vt -61.9674 35.7589
v 62.8198 0 -35.5601
vt -62.8198 35.5601
v 63.6573 0 -35.306
vt -63.6573 35.306
v 64.4765 0 -34.9977
vt -64.4765 34.9977
v 65.2737 0 -34.6365
vt -65.2737 34.6365
v 66.0456 0 -34.2239
vt -66.0456 34.2239
v 66.7888 0 -33.7618
vt -66.7888 33.7618
v 67.5003 0 -33.252
vt -67.5003 33.252
v 68.1768 0 -32.6967
vt -68.1768 32.6967
v 68.8156 0 -32.0984
vt -68.8156 32.0984
v 69.414 0 -31.4596
vt -69.414 31.4596
v 69.9692 0 -30.783
vt -69.9692 30.783
v 70.479 0 -30.0716
vt -70.479 30.0716
v 70.9412 0 -29.3284
vt -70.9412 29.3284
v 71.3538 0 -28.5565
vt -71.3538 28.5565
v 71.715 0 -27.7592
vt -71.715 27.7592
v 72.0233 0 -26.9401
vt -72.0233 26.9401
v 72.2774 0 -26.1026
vt -72.2774 26.1026
v 72.4761 0 -25.2502
vt -72.4761 25.2502
v 72.6187 0 -24.3866
vt -72.6187 24.3866
v 72.7045 0 -23.5156
vt -72.7045 23.5156
v 72.7331 0 -22.6409
vt -72.7331 22.6409
v 72.7045 0 -21.7661
vt -72.7045 21.7661
v 72.6187 0 -20.8951
vt -72.6187 20.8951
v 72.4761 0 -20.0315
vt -72.4761 20.0315
v 72.2774 0 -19.1791
vt -72.2774 19.1791
v 72.0233 0 -18.3416
vt -72.0233 18.3416
v 71.715 0 -17.5225
vt -71.715 17.5225
v 71.3538 0 -16.7252
vt -71.3538 16.7252
v 70.9412 0 -15.9534
vt -70.9412 15.9534
v 70.479 0 -15.2101
vt -70.479 15.2101
v 69.9692 0 -14.4987
vt -69.9692 14.4987
v 69.414 0 -13.8221
vt -69.414 13.8221
v 68.8156 0 -13.1833
vt -68.8156 13.1833
v 68.1768 0 -12.585
vt -68.1768 12.585
v 67.5003 0 -12.0298
vt -67.5003 12.0298
v 66.7888 0 -11.5199
vt -66.7888 11.5199
v 66.0456 0 -11.0578
vt -66.0456 11.0578
v 65.2737 0 -10.6452
vt -65.2737 10.6452
v 64.4765 0 -10.284
vt -64.4765 10.284
v 63.6573 0 -9.97566
vt -63.6573 9.97566
v 62.8198 0 -9.72159
vt -62.8198 9.72159
v 61.9674 0 -9.52285
vt -61.9674 9.52285
v 61.1039 0 -9.38028
vt -61.1039 9.38028
v 60.2329 0 -9.29449
vt -60.2329 9.29449
v 59.3581 0 -9.26585
vt -59.3581 9.26585
v 58.4833 0 -9.29449
vt -58.4833 9.29449
v 57.6123 0 -9.38028
vt -57.6123 9.38028
v 56.7488 0 -9.52285
vt -56.7488 9.52285
v 55.8964 0 -9.72159
vt -55.8964 9.72159
v 55.0588 0 -9.97566
vt -55.0588 9.97566
v 54.2397 0 -10.284
vt -54.2397 10.284
v 53.4425 0 -10.6452
vt -53.4425 10.6452
v 52.6706 0 -11.0578
vt -52.6706 11.0578
v 51.9273 0 -11.5199
vt -51.9273 11.5199
v 51.2159 0 -12.0298
vt -51.2159 12.0298
v 50.5393 0 -12.585
vt -50.5393 12.585
v 49.9005 0 -13.1833
vt -49.9005 13.1833
v 49.3022 0 -13.8221
vt -49.3022 13.8221
v 48.747 0 -14.4987
vt -48.747 14.4987
v 48.2372 0 -15.2101
vt -48.2372 15.2101
v 47.775 0 -15.9534
vt -47.775 15.9534
v 47.3624 0 -16.7252
vt -47.3624 16.7252
v 47.0012 0 -17.5225
vt -47.0012 17.5225
v 46.6929 0 -18.3416
vt -46.6929 18.3416
v 46.4388 0 -19.1791
vt -46.4388 19.1791
v 46.2401 0 -20.0315
vt -46.2401 20.0315
v 46.0975 0 -20.8951
vt -46.0975 20.8951
v 46.0117 0 -21.7661
vt -46.0117 21.7661
v 45.9831 0 -22.6409
vt -45.9831 22.6409
v 46.0117 0 -23.5156
vt -46.0117 23.5156
v 46.0975 0 -24.3866
vt -46.0975 24.3866
v 46.2401 0 -25.2502
vt -46.2401 25.2502
v 46.4388 0 -26.1026
vt -46.4388 26.1026
v 46.6929 0 -26.9401
vt -46.6929 26.9401
v 47.0012 0 -27.7592
vt -47.0012 27.7592
v 47.3624 0 -28.5565
vt -47.3624 28.5565
v 47.775 0 -29.3284
vt -47.775 29.3284
v 48.2372 0 -30.0716
vt -48.2372 30.0716
v 48.747 0 -30.783
vt -48.747 30.783
v 49.3022 0 -31.4596
vt -49.3022 31.4596
v 49.9005 0 -32.0984
vt -49.9005 32.0984
v 50.5393 0 -32.6967
vt -50.5393 32.6967
v 51.2159 0 -33.252
vt -51.2159 33.252
v 51.9273 0 -33.7618
vt -51.9273 33.7618
v 52.6706 0 -34.2239
vt -52.6706 34.2239
v 53.4425 0 -34.6365
vt -53.4425 34.6365
v 54.2397 0 -34.9977
vt -54.2397 34.9977
v 55.0588 0 -35.306
vt -55.0588 35.306
v 55.8964 0 -35.5601
vt -55.8964 35.5601
v 56.7488 0 -35.7589
vt -56.7488 35.7589
v 57.6123 0 -35.9014
vt -57.6123 35.9014
v 58.4833 0 -35.9872
vt -58.4833 35.9872
f 1/1/1 2/2/1 3/3/1 4/4/1 5/5/1 6/6/1 7/7/1 8/8/1 9/9/1 10/10/1 11/11/1 12/12/1 13/13/1 14/14/1 15/15/1 16/16/1 17/17/1 18/18/1 19/19/1 20/20/1 21/21/1 22/22/1 23/23/1 24/24/1 25/25/1 26/26/1 27/27/1 28/28/1 29/29/1 30/30/1 31/31/1 32/32/1 33/33/1 34/34/1 35/35/1 36/36/1 37/37/1 38/38/1 39/39/1 40/40/1 41/41/1 42/42/1 43/43/1 44/44/1 45/45/1 46/46/1 47/47/1 48/48/1 49/49/1 50/50/1 51/51/1 52/52/1 53/53/1 54/54/1 55/55/1 56/56/1 57/57/1 58/58/1 59/59/1 60/60/1 61/61/1 62/62/1 63/63/1 64/64/1 65/65/1 66/66/1 67/67/1 68/68/1 69/69/1 70/70/1 71/71/1 72/72/1 73/73/1 74/74/1 75/75/1 76/76/1 77/77/1 78/78/1 79/79/1 80/80/1 81/81/1 82/82/1 83/83/1 84/84/1 85/85/1 86/86/1 87/87/1 88/88/1 89/89/1 90/90/1 91/91/1 92/92/1 93/93/1 94/94/1 95/95/1 96/96/1 

g Mesh2 Model

v 59.3581 27.4943 -22.6409
vt 12.1184 -2.60914
vn 3.37856e-15 -1 1.63913e-15
v 70.479 0.0686032 -30.0716
vt 11.6808 -33.1193
vn -0.747335 -0.438333 0.499353
v 70.9412 0.0686032 -29.3284
vt 12.5561 -33.1193
vn -0.778394 -0.438333 0.449406
f 97/97/2 98/98/3 99/99/4

vt 16.1712 -2.20337
vn 3.35745e-15 -1 1.54939e-15
v 69.9692 0.0686032 -30.783
vt 15.7336 -32.7135
vn -0.713076 -0.438333 0.547162
vt 16.6088 -32.7135
f 97/100/5 100/101/6 98/102/3

vt 20.1548 -1.68233
vn 3.38912e-15 -1 1.58634e-15
v 69.414 0.0686032 -31.4596
vt 19.7171 -32.1925
vn -0.675763 -0.438333 0.592628
vt 20.5924 -32.1925
f 97/103/7 101/104/8 100/105/6

vt 24.052 -1.04826
vn 3.39704e-15 -1 1.5705e-15
v 68.8156 0.0686032 -32.0984
vt 23.6144 -31.5584
vn -0.635556 -0.438333 0.635556
vt 24.4896 -31.5584
f 97/106/9 102/107/10 101/108/8

vt 27.8462 -0.303868
vn 3.29938e-15 -1 1.64969e-15
v 68.1768 0.0686032 -32.6967
vt 27.4086 -30.814
vn -0.592628 -0.438333 0.675763
vt 28.2838 -30.814
f 97/109/11 103/110/12 102/111/10

vt 31.5212 0.547659
vn 3.22811e-15 -1 1.64177e-15
v 67.5003 0.0686032 -33.252
vt 31.0836 -29.9625
vn -0.547162 -0.438333 0.713076
vt 31.9588 -29.9625
f 97/112/13 104/113/14 103/114/12

vt 35.0612 1.50267
vn 3.14101e-15 -1 1.64705e-15
v 66.7888 0.0686032 -33.7618
vt 34.6236 -29.0075
vn -0.499353 -0.438333 0.747335
vt 35.4989 -29.0075
f 97/115/15 105/116/16 104/117/14

vt 38.4511 2.55709
vn 3.17004e-15 -1 1.56787e-15
v 66.0456 0.0686032 -34.2239
vt 38.0135 -27.9531
vn -0.449406 -0.438333 0.778394
vt 38.8887 -27.9531
f 97/118/17 106/119/18 105/120/16

vt 41.6763 3.70638
vn 3.19908e-15 -1 1.54939e-15
v 65.2737 0.0686032 -34.6365
vt 41.2387 -26.8038
vn -0.397535 -0.438333 0.80612
vt 42.114 -26.8038
f 97/121/19 107/122/20 106/123/18

vt 44.7231 4.94564
vn 3.26111e-15 -1 1.46756e-15
v 64.4765 0.0686032 -34.9977
vt 44.2855 -25.5645
vn -0.343961 -0.438333 0.830394
vt 45.1607 -25.5645
f 97/124/21 108/125/22 107/126/20

vt 47.5784 6.26955
vn 3.13573e-15 -1 1.55467e-15
v 63.6573 0.0686032 -35.306
vt 47.1407 -24.2406
vn -0.288914 -0.438333 0.851113
vt 48.016 -24.2406
f 97/127/23 109/128/24 108/129/22

vt 50.2299 7.67245
vn 3.11725e-15 -1 1.52563e-15
v 62.8198 0.0686032 -35.5601
vt 49.7922 -22.8377
vn -0.23263 -0.438333 0.868186
vt 50.6675 -22.8377
f 97/130/25 110/131/26 109/132/24

vt 52.6663 9.14832
vn 3.20106e-15 -1 1.56259e-15
v 61.9674 0.0686032 -35.7589
vt 52.2287 -21.3618
vn -0.17535 -0.438333 0.881542
vt 53.1039 -21.3618
f 97/133/27 111/134/28 110/135/26

vt 54.8772 10.6909
vn 3.15355e-15 -1 1.64177e-15
v 61.1039 0.0686032 -35.9014
vt 54.4396 -19.8193
vn -0.117319 -0.438333 0.891123
vt 55.3148 -19.8193
f 97/136/29 112/137/30 111/138/28

vt 56.8531 12.2934
vn 3.22481e-15 -1 1.63649e-15
v 60.2329 0.0686032 -35.9872
vt 56.4155 -18.2167
vn -0.0587851 -0.438333 0.896888
vt 57.2907 -18.2167
f 97/139/31 113/140/32 112/141/30

vt 58.5855 13.9492
vn 3.09564e-15 -1 1.6101e-15
v 59.3581 0.0686032 -36.0159
vt 58.1479 -16.5609
vn 4.30051e-15 -0.438333 0.898812
vt 59.0231 -16.5609
f 97/142/33 114/143/34 113/144/32

vt 60.0671 15.6511
vn 3.08195e-15 -1 1.66289e-15
v 58.4833 0.0686032 -35.9872
vt 59.6295 -14.8591
vn 0.0587851 -0.438333 0.896888
vt 60.5047 -14.8591
f 97/145/35 115/146/36 114/147/34

vt 61.2915 17.3918
vn 3.2291e-15 -1 1.64177e-15
v 57.6123 0.0686032 -35.9014
vt 60.8538 -13.1184
vn 0.117319 -0.438333 0.891123
vt 61.7291 -13.1184
f 97/148/37 116/149/38 115/150/36

vt 62.2534 19.1638
vn 3.08954e-15 -1 1.79222e-15
v 56.7488 0.0686032 -35.7589
vt 61.8157 -11.3463
vn 0.17535 -0.438333 0.881542
vt 62.691 -11.3463
f 97/151/39 117/152/40 116/153/38

vt 62.9487 20.9596
vn 3.09416e-15 -1 1.62593e-15
v 55.8964 0.0686032 -35.5601
vt 62.5111 -9.55052
vn 0.23263 -0.438333 0.868186
vt 63.3863 -9.55052
f 97/154/41 118/155/42 117/156/40

vt 63.3744 22.7715
vn 3.207e-15 -1 1.64177e-15
v 55.0588 0.0686032 -35.306
vt 62.9368 -7.73862
vn 0.288914 -0.438333 0.851113
vt 63.8121 -7.73862
f 97/157/43 119/158/44 118/159/42

vt 63.5288 24.5918
vn 3.15553e-15 -1 1.58106e-15
v 54.2397 0.0686032 -34.9977
vt 63.0912 -5.91841
vn 0.343961 -0.438333 0.830394
vt 63.9664 -5.91841
f 97/160/45 120/161/46 119/162/44

vt 63.4112 26.4125
vn 3.25979e-15 -1 1.51771e-15
v 53.4425 0.0686032 -34.6365
vt 62.9736 -4.09766
vn 0.397535 -0.438333 0.80612
vt 63.8488 -4.09766
f 97/163/47 121/164/48 120/165/46

vt 63.022 28.226
vn 3.12913e-15 -1 1.57314e-15
v 52.6706 0.0686032 -34.2239
vt 62.5844 -2.28419
vn 0.449406 -0.438333 0.778394
vt 63.4596 -2.28419
f 97/166/49 122/167/50 121/168/48

vt 62.3629 30.0244
vn 3.13045e-15 -1 1.59426e-15
v 51.9273 0.0686032 -33.7618
vt 61.9253 -0.485748
vn 0.499353 -0.438333 0.747335
vt 62.8005 -0.485748
f 97/169/51 123/170/52 122/171/50

vt 61.4368 31.8001
vn 3.15421e-15 -1 1.63385e-15
v 51.2159 0.0686032 -33.252
vt 60.9992 1.28995
vn 0.547162 -0.438333 0.713076
vt 61.8744 1.28995
f 97/172/53 124/173/54 123/174/52

vt 60.2476 33.5455
vn 3.22019e-15 -1 1.56523e-15
v 50.5393 0.0686032 -32.6967
vt 59.81 3.03532
vn 0.592628 -0.438333 0.675763
vt 60.6852 3.03532
f 97/175/55 125/176/56 124/177/54

vt 58.8005 35.253
vn 3.20172e-15 -1 1.57314e-15
v 49.9005 0.0686032 -32.0984
vt 58.3628 4.74286
vn 0.635556 -0.438333 0.635556
vt 59.2381 4.74286
f 97/178/57 126/179/58 125/180/56

vt 57.1015 36.9154
vn 3.24923e-15 -1 1.54411e-15
v 49.3022 0.0686032 -31.4596
vt 56.6639 6.40528
vn 0.675763 -0.438333 0.592628
vt 57.5391 6.40528
f 97/181/59 127/182/60 126/183/58

vt 55.158 38.5256
vn 3.33105e-15 -1 1.51508e-15
v 48.747 0.0686032 -30.783
vt 54.7204 8.01546
vn 0.713076 -0.438333 0.547162
vt 55.5956 8.01546
f 97/184/61 128/185/62 127/186/60

vt 52.9783 40.0767
vn 3.29938e-15 -1 1.60218e-15
v 48.2372 0.0686032 -30.0716
vt 52.5407 9.5665
vn 0.747335 -0.438333 0.499353
vt 53.4159 9.5665
f 97/187/63 129/188/64 128/189/62

vt 50.5718 41.5619
vn 3.35745e-15 -1 1.56259e-15
v 47.775 0.0686032 -29.3284
vt 50.1341 11.0518
vn 0.778394 -0.438333 0.449406
vt 51.0094 11.0518
f 97/190/65 130/191/66 129/192/64

vt 47.9487 42.975
vn 3.3944e-15 -1 1.62989e-15
v 47.3624 0.0686032 -28.5565
vt 47.511 12.4649
vn 0.80612 -0.438333 0.397535
vt 48.3863 12.4649
f 97/193/67 131/194/68 130/195/66

vt 45.1202 44.3099
vn 3.36801e-15 -1 1.55599e-15
v 47.0012 0.0686032 -27.7592
vt 44.6826 13.7998
vn 0.830394 -0.438333 0.343961
vt 45.5579 13.7998
f 97/196/69 132/197/70 131/198/68

vt 42.0986 45.561
vn 3.29146e-15 -1 1.69984e-15
v 46.6929 0.0686032 -26.9401
vt 41.661 15.0508
vn 0.851113 -0.438333 0.288914
vt 42.5362 15.0508
f 97/199/71 133/200/72 132/201/70

vt 38.8967 46.7227
vn 3.3073e-15 -1 1.6972e-15
v 46.4388 0.0686032 -26.1026
vt 38.4591 16.2125
vn 0.868186 -0.438333 0.23263
vt 39.3343 16.2125
f 97/202/73 134/203/74 133/204/72

vt 35.5282 47.7902
vn 3.30202e-15 -1 1.78562e-15
v 46.2401 0.0686032 -25.2502
vt 35.0906 17.28
vn 0.881542 -0.438333 0.17535
vt 35.9658 17.28
f 97/205/75 135/206/76 134/207/74

vt 32.0076 48.7589
vn 3.28882e-15 -1 1.69258e-15
v 46.0975 0.0686032 -24.3866
vt 31.57 18.2487
vn 0.891123 -0.438333 0.117319
vt 32.4452 18.2487
f 97/208/77 136/209/78 135/210/76

vt 28.3499 49.6246
vn 3.27562e-15 -1 1.69324e-15
v 46.0117 0.0686032 -23.5156
vt 27.9123 19.1145
vn 0.896888 -0.438333 0.0587851
vt 28.7876 19.1145
f 97/211/79 137/212/80 136/213/78

vt 24.5709 50.3837
vn 3.25715e-15 -1 1.67072e-15
v 45.9831 0.0686032 -22.6409
vt 24.1333 19.8735
vn 0.898812 -0.438333 1.78754e-16
vt 25.0085 19.8735
f 97/214/81 138/215/82 137/216/80

vt 20.6866 51.0328
vn 3.30994e-15 -1 1.67559e-15
v 46.0117 0.0686032 -21.7661
vt 20.249 20.5227
vn 0.896888 -0.438333 -0.0587851
vt 21.1242 20.5227
f 97/217/83 139/218/84 138/219/82

vt 16.7137 51.5693
vn 3.27035e-15 -1 1.66223e-15
v 46.0975 0.0686032 -20.8951
vt 16.2761 21.0591
vn 0.891123 -0.438333 -0.117319
vt 17.1513 21.0591
f 97/220/85 140/221/86 139/222/84

vt 12.6693 51.9907
vn 3.25715e-15 -1 1.65365e-15
v 46.2401 0.0686032 -20.0315
vt 12.2317 21.4806
vn 0.881542 -0.438333 -0.17535
vt 13.1069 21.4806
f 97/223/87 141/224/88 140/225/86

vt 8.57059 52.2954
vn 3.34689e-15 -1 1.63187e-15
v 46.4388 0.0686032 -19.1791
vt 8.13297 21.7852
vn 0.868186 -0.438333 -0.23263
vt 9.00821 21.7852
f 97/226/89 142/227/90 141/228/88

vt 4.4352 52.4819
vn 3.39968e-15 -1 1.78958e-15
v 46.6929 0.0686032 -18.3416
vt 3.99758 21.9718
vn 0.851113 -0.438333 -0.288914
vt 4.87282 21.9718
f 97/229/91 143/230/92 142/231/90

vt 0.280816 52.5496
vn 3.33897e-15 -1 1.7104e-15
v 47.0012 0.0686032 -17.5225
vt -0.156802 22.0394
vn 0.830394 -0.438333 -0.343961
vt 0.718433 22.0394
f 97/232/93 144/233/94 143/234/92

vt -3.87477 52.498
vn 3.3812e-15 -1 1.70512e-15
v 47.3624 0.0686032 -16.7252
vt -4.31239 21.9878
vn 0.80612 -0.438333 -0.397535
vt -3.43715 21.9878
f 97/235/95 145/236/96 144/237/94

vt -8.01376 52.3275
vn 3.23603e-15 -1 1.62725e-15
v 47.775 0.0686032 -15.9534
vt -8.45138 21.8173
vn 0.778394 -0.438333 -0.449406
vt -7.57615 21.8173
f 97/238/97 146/239/98 145/240/96

vt -12.1184 52.0387
vn 3.32314e-15 -1 1.57182e-15
v 48.2372 0.0686032 -15.2101
vt -12.5561 21.5286
vn 0.747335 -0.438333 -0.499353
vt -11.6808 21.5286
f 97/241/99 147/242/100 146/243/98

vt -16.1712 51.633
vn 3.24659e-15 -1 1.62593e-15
v 48.747 0.0686032 -14.4987
vt -16.6088 21.1228
vn 0.713076 -0.438333 -0.547162
vt -15.7336 21.1228
f 97/244/101 148/245/102 147/246/100

vt -20.1548 51.1119
vn 3.32314e-15 -1 1.6101e-15
v 49.3022 0.0686032 -13.8221
vt -20.5924 20.6018
vn 0.675763 -0.438333 -0.592628
vt -19.7171 20.6018
f 97/247/103 149/248/104 148/249/102

vt -24.052 50.4778
vn 3.17532e-15 -1 1.5837e-15
v 49.9005 0.0686032 -13.1833
vt -24.4896 19.9677
vn 0.635556 -0.438333 -0.635556
vt -23.6144 19.9677
f 97/250/105 150/251/106 149/252/104

vt -27.8462 49.7335
vn 3.1938e-15 -1 1.57578e-15
v 50.5393 0.0686032 -12.585
vt -28.2838 19.2233
vn 0.592628 -0.438333 -0.675763
vt -27.4086 19.2233
f 97/253/107 151/254/108 150/255/106

vt -31.5212 48.8819
vn 3.22283e-15 -1 1.53355e-15
v 51.2159 0.0686032 -12.0298
vt -31.9588 18.3718
vn 0.547162 -0.438333 -0.713076
vt -31.0836 18.3718
f 97/256/109 152/257/110 151/258/108

vt -35.0612 47.9269
vn 3.24395e-15 -1 1.62066e-15
v 51.9273 0.0686032 -11.5199
vt -35.4989 17.4167
vn 0.499353 -0.438333 -0.747335
vt -34.6236 17.4167
f 97/259/111 153/260/112 152/261/110

vt -38.4511 46.8725
vn 3.30598e-15 -1 1.58634e-15
v 52.6706 0.0686032 -11.0578
vt -38.8887 16.3623
vn 0.449406 -0.438333 -0.778394
vt -38.0135 16.3623
f 97/262/113 154/263/114 153/264/112

vt -41.6763 45.7232
vn 3.17664e-15 -1 1.55467e-15
v 53.4425 0.0686032 -10.6452
vt -42.114 15.213
vn 0.397535 -0.438333 -0.80612
vt -41.2387 15.213
f 97/265/115 155/266/116 154/267/114

vt -44.7231 44.4839
vn 3.32446e-15 -1 1.53883e-15
v 54.2397 0.0686032 -10.284
vt -45.1607 13.9738
vn 0.343961 -0.438333 -0.830394
vt -44.2855 13.9738
f 97/268/117 156/269/118 155/270/116

vt -47.5784 43.16
vn 3.27035e-15 -1 1.56523e-15
v 55.0588 0.0686032 -9.97566
vt -48.016 12.6499
vn 0.288914 -0.438333 -0.851113
vt -47.1407 12.6499
f 97/271/119 157/272/120 156/273/118

vt -50.2299 41.7571
vn 3.34821e-15 -1 1.60746e-15
v 55.8964 0.0686032 -9.72159
vt -50.6675 11.247
vn 0.23263 -0.438333 -0.868186
vt -49.7922 11.247
f 97/274/121 158/275/122 157/276/120

vt -52.6663 40.2813
vn 3.23405e-15 -1 1.66817e-15
v 56.7488 0.0686032 -9.52285
vt -53.1039 9.7711
vn 0.17535 -0.438333 -0.881542
vt -52.2287 9.7711
f 97/277/123 159/278/124 158/279/122

vt -54.8772 38.7387
vn 3.31918e-15 -1 1.68928e-15
v 57.6123 0.0686032 -9.38028
vt -55.3148 8.22857
vn 0.117319 -0.438333 -0.891123
vt -54.4396 8.22857
f 97/280/125 160/281/126 159/282/124

vt -56.8531 37.1361
vn 3.41222e-15 -1 1.73679e-15
v 58.4833 0.0686032 -9.29449
vt -57.2907 6.62598
vn 0.0587851 -0.438333 -0.896888
vt -56.4155 6.62598
f 97/283/127 161/284/128 160/285/126

vt -58.5855 35.4804
vn 3.34252e-15 -1 1.63913e-15
v 59.3581 0.0686032 -9.26585
vt -59.0231 4.97021
vn 9.42363e-16 -0.438333 -0.898812
vt -58.1479 4.97021
f 97/286/129 162/287/130 161/288/128

vt -60.0671 33.7785
vn 3.26696e-15 -1 1.61802e-15
v 60.2329 0.0686032 -9.29449
vt -60.5047 3.26833
vn -0.0587851 -0.438333 -0.896888
vt -59.6295 3.26833
f 97/289/131 163/290/132 162/291/130

vt -61.2915 32.0378
vn 3.29773e-15 -1 1.66553e-15
v 61.1039 0.0686032 -9.38028
vt -61.7291 1.52764
vn -0.117319 -0.438333 -0.891123
vt -60.8538 1.52764
f 97/292/133 164/293/134 163/294/132

vt -62.2534 30.2658
vn 3.28486e-15 -1 1.62329e-15
v 61.9674 0.0686032 -9.52285
vt -62.691 -0.244401
vn -0.17535 -0.438333 -0.881542
vt -61.8157 -0.244401
f 97/295/135 165/296/136 164/297/134

vt -62.9487 28.4699
vn 3.35547e-15 -1 1.5837e-15
v 62.8198 0.0686032 -9.72159
vt -63.3863 -2.04022
vn -0.23263 -0.438333 -0.868186
vt -62.5111 -2.04022
f 97/298/137 166/299/138 165/300/136

vt -63.3744 26.658
vn 3.24527e-15 -1 1.63913e-15
v 63.6573 0.0686032 -9.97566
vt -63.8121 -3.85211
vn -0.288914 -0.438333 -0.851113
vt -62.9368 -3.85211
f 97/301/139 167/302/140 166/303/138

vt -63.5288 24.8378
vn 3.31786e-15 -1 1.50716e-15
v 64.4765 0.0686032 -10.284
vt -63.9664 -5.67233
vn -0.343961 -0.438333 -0.830394
vt -63.0912 -5.67233
f 97/304/141 168/305/142 167/306/140

vt -63.4112 23.0171
vn 3.35613e-15 -1 1.53355e-15
v 65.2737 0.0686032 -10.6452
vt -63.8488 -7.49307
vn -0.397535 -0.438333 -0.80612
vt -62.9736 -7.49307
f 97/307/143 169/308/144 168/309/142

vt -63.022 21.2036
vn 3.24263e-15 -1 1.51508e-15
v 66.0456 0.0686032 -11.0578
vt -63.4596 -9.30655
vn -0.449406 -0.438333 -0.778394
vt -62.5844 -9.30655
f 97/310/145 170/311/146 169/312/144

vt -62.3629 19.4052
vn 3.25055e-15 -1 1.60218e-15
v 66.7888 0.0686032 -11.5199
vt -62.8005 -11.105
vn -0.499353 -0.438333 -0.747335
vt -61.9253 -11.105
f 97/313/147 171/314/148 170/315/146

vt -61.4368 17.6295
vn 3.207e-15 -1 1.62329e-15
v 67.5003 0.0686032 -12.0298
vt -61.8744 -12.8807
vn -0.547162 -0.438333 -0.713076
vt -60.9992 -12.8807
f 97/316/149 172/317/150 171/318/148

vt -60.2476 15.8841
vn 3.23867e-15 -1 1.62066e-15
v 68.1768 0.0686032 -12.585
vt -60.6852 -14.6261
vn -0.592628 -0.438333 -0.675763
vt -59.81 -14.6261
f 97/319/151 173/320/152 172/321/150

vt -58.8005 14.1766
vn 3.23867e-15 -1 1.64705e-15
v 68.8156 0.0686032 -13.1833
vt -59.2381 -16.3336
vn -0.635556 -0.438333 -0.635556
vt -58.3628 -16.3336
f 97/322/153 174/323/154 173/324/152

vt -57.1015 12.5141
vn 3.19908e-15 -1 1.65233e-15
v 69.414 0.0686032 -13.8221
vt -57.5391 -17.996
vn -0.675763 -0.438333 -0.592628
vt -56.6639 -17.996
f 97/325/155 175/326/156 174/327/154

vt -55.158 10.904
vn 3.34953e-15 -1 1.59954e-15
v 69.9692 0.0686032 -14.4987
vt -55.5956 -19.6062
vn -0.713076 -0.438333 -0.547162
vt -54.7204 -19.6062
f 97/328/157 176/329/158 175/330/156

vt -52.9783 9.35293
vn 3.1938e-15 -1 1.62857e-15
v 70.479 0.0686032 -15.2101
vt -53.4159 -21.1572
vn -0.747335 -0.438333 -0.499353
vt -52.5407 -21.1572
f 97/331/159 177/332/160 176/333/158

vt -50.5718 7.86767
vn 3.29674e-15 -1 1.60746e-15
v 70.9412 0.0686032 -15.9534
vt -51.0094 -22.6425
vn -0.778394 -0.438333 -0.449406
vt -50.1341 -22.6425
f 97/334/161 178/335/162 177/336/160

vt -47.9487 6.45456
vn 3.36009e-15 -1 1.60218e-15
v 71.3538 0.0686032 -16.7252
vt -48.3863 -24.0556
vn -0.80612 -0.438333 -0.397535
vt -47.511 -24.0556
f 97/337/163 179/338/164 178/339/162

vt -45.1202 5.11964
vn 3.24659e-15 -1 1.59558e-15
v 71.715 0.0686032 -17.5225
vt -45.5579 -25.3905
vn -0.830394 -0.438333 -0.343961
vt -44.6826 -25.3905
f 97/340/165 180/341/166 179/342/164

vt -42.0986 3.86863
vn 3.42344e-15 -1 1.55599e-15
v 72.0233 0.0686032 -18.3416
vt -42.5362 -26.6415
vn -0.851113 -0.438333 -0.288914
vt -41.661 -26.6415
f 97/343/167 181/344/168 180/345/166

vt -38.8967 2.70689
vn 3.30466e-15 -1 1.55335e-15
v 72.2774 0.0686032 -19.1791
vt -39.3343 -27.8033
vn -0.868186 -0.438333 -0.23263
vt -38.4591 -27.8033
f 97/346/169 182/347/170 181/348/168

vt -35.5282 1.63939
vn 3.34425e-15 -1 1.68466e-15
v 72.4761 0.0686032 -20.0315
vt -35.9658 -28.8708
vn -0.881542 -0.438333 -0.17535
vt -35.0906 -28.8708
f 97/349/171 183/350/172 182/351/170

vt -32.0076 0.670697
vn 3.33369e-15 -1 1.68202e-15
v 72.6187 0.0686032 -20.8951
vt -32.4452 -29.8395
vn -0.891123 -0.438333 -0.117319
vt -31.57 -29.8395
f 97/352/173 184/353/174 183/354/172

vt -28.3499 -0.195032
vn 3.28618e-15 -1 1.66553e-15
v 72.7045 0.0686032 -21.7661
vt -28.7876 -30.7052
vn -0.896888 -0.438333 -0.0587851
vt -27.9123 -30.7052
f 97/355/175 185/356/176 184/357/174

vt -24.5709 -0.954093
vn 3.27562e-15 -1 1.65357e-15
v 72.7331 0.0686032 -22.6409
vt -25.0085 -31.4643
vn -0.898812 -0.438333 1.16277e-16
vt -24.1333 -31.4643
f 97/358/177 186/359/178 185/360/176

vt -20.6866 -1.60324
vn 3.30994e-15 -1 1.63163e-15
v 72.7045 0.0686032 -23.5156
vt -21.1242 -32.1134
vn -0.896888 -0.438333 0.0587851
vt -20.249 -32.1134
f 97/361/179 187/362/180 186/363/178

vt -16.7137 -2.13968
vn 3.34161e-15 -1 1.64804e-15
v 72.6187 0.0686032 -24.3866
vt -17.1513 -32.6498
vn -0.891123 -0.438333 0.117319
vt -16.2761 -32.6498
f 97/364/181 188/365/182 187/366/180

vt -12.6693 -2.56113
vn 3.35481e-15 -1 1.65167e-15
v 72.4761 0.0686032 -25.2502
vt -13.1069 -33.0713
vn -0.881542 -0.438333 0.17535
vt -12.2317 -33.0713
f 97/367/183 189/368/184 188/369/182

vt -8.57059 -2.86578
vn 3.33369e-15 -1 1.63187e-15
v 72.2774 0.0686032 -26.1026
vt -9.00821 -33.3759
vn -0.868186 -0.438333 0.23263
vt -8.13297 -33.3759
f 97/370/185 190/371/186 189/372/184

vt -4.4352 -3.05233
vn 3.29146e-15 -1 1.63517e-15
v 72.0233 0.0686032 -26.9401
vt -4.87282 -33.5625
vn -0.851113 -0.438333 0.288914
vt -3.99758 -33.5625
f 97/373/187 191/374/188 190/375/186

vt -0.280816 -3.11997
vn 3.33369e-15 -1 1.58502e-15
v 71.715 0.0686032 -27.7592
vt -0.718433 -33.6301
vn -0.830394 -0.438333 0.343961
vt 0.156802 -33.6301
f 97/376/189 192/377/190 191/378/188

vt 3.87477 -3.06842
vn 3.31522e-15 -1 1.58238e-15
v 71.3538 0.0686032 -28.5565
vt 3.43715 -33.5786
vn -0.80612 -0.438333 0.397535
vt 4.31239 -33.5786
f 97/379/191 193/380/192 192/381/190

vt 8.01376 -2.8979
vn 3.43135e-15 -1 1.58238e-15
vt 7.57615 -33.4081
vt 8.45138 -33.4081
f 97/382/193 99/383/4 193/384/192

vt 7.57615 76.3892
vn -0.00444197 0.999987 0.00256457
v 59.3581 0 -22.6409
vt 8.01376 63.0212
vn 8.89961e-18 1 7.33653e-18
vt 8.45138 76.3892
vn -0.00460019 0.999987 0.00226856
f 99/385/194 194/386/195 193/387/196

vt 11.6808 75.7301
vn -0.00426473 0.999987 0.0028496
vt 12.1184 62.3621
vn 8.75505e-18 1 7.11517e-18
vt 12.5561 75.7301
f 98/388/197 194/389/198 99/390/194

vt 15.7336 74.804
vn -0.00406922 0.999987 0.00312242
vt 16.1712 61.436
vn 8.98996e-18 1 6.89833e-18
vt 16.6088 74.804
f 100/391/199 194/392/200 98/393/197

vt 19.7171 73.6149
vn -0.00385629 0.999987 0.00338188
vt 20.1548 60.2468
vn 8.999e-18 1 7.0971e-18
vt 20.5924 73.6149
f 101/394/201 194/395/202 100/396/199

vt 23.6144 72.1677
vn -0.00362685 0.999987 0.00362685
vt 24.052 58.7997
vn 8.91768e-18 1 7.585e-18
vt 24.4896 72.1677
f 102/397/203 194/398/204 101/399/201

vt 27.4086 70.4687
vn -0.00338188 0.999987 0.00385629
vt 27.8462 57.1007
vn 8.70084e-18 1 7.31394e-18
vt 28.2838 70.4687
f 103/400/205 194/401/206 102/402/203

vt 31.0836 68.5253
vn -0.00312242 0.999987 0.00406922
vt 31.5212 55.1573
vn 8.86347e-18 1 7.08355e-18
vt 31.9588 68.5253
f 104/403/207 194/404/208 103/405/205

vt 34.6236 66.3456
vn -0.0028496 0.999987 0.00426473
vt 35.0612 52.9776
vn 8.49755e-18 1 6.37881e-18
vt 35.4989 66.3456
f 105/406/209 194/407/210 104/408/207

vt 38.0135 63.9391
vn -0.00256457 0.999987 0.00444197
vt 38.4511 50.5711
vn 8.85443e-18 1 6.26135e-18
vt 38.8887 63.9391
f 106/409/211 194/410/212 105/411/209

vt 41.2387 61.316
vn -0.00226856 0.999987 0.00460019
vt 41.6763 47.948
vn 8.67825e-18 1 6.3246e-18
vt 42.114 61.316
f 107/412/213 194/413/214 106/414/211

vt 44.2855 58.4877
vn -0.00196284 0.999987 0.00473871
vt 44.7231 45.1196
vn 8.64211e-18 1 6.70407e-18
vt 45.1607 58.4877
f 108/415/215 194/416/216 107/417/213

vt 47.1407 55.4661
vn -0.00164871 0.999987 0.00485694
vt 47.5784 42.098
vn 8.7415e-18 1 6.88477e-18
vt 48.016 55.4661
f 109/418/217 194/419/218 108/420/215

vt 49.7922 52.2642
vn -0.00132752 0.999987 0.00495437
vt 50.2299 38.8962
vn 8.9493e-18 1 6.78539e-18
vt 50.6675 52.2642
f 110/421/219 194/422/220 109/423/217

vt 52.2287 48.8958
vn -0.00100065 0.999987 0.00503059
vt 52.6663 35.5277
vn 9.01481e-18 1 6.67697e-18
vt 53.1039 48.8958
f 111/424/221 194/425/222 110/426/219

vt 54.4396 45.3752
vn -0.000669487 0.999987 0.00508526
vt 54.8772 32.0072
vn 9.17631e-18 1 6.46916e-18
vt 55.3148 45.3752
f 112/427/223 194/428/224 111/429/221

vt 56.4155 41.7176
vn -0.000335462 0.999987 0.00511816
vt 56.8531 28.3496
vn 9.09951e-18 1 6.34267e-18
vt 57.2907 41.7176
f 113/430/225 194/431/226 112/432/223

vt 58.1479 37.9386
vn 2.7864e-17 0.999987 0.00512914
vt 58.5855 24.5705
vn 8.85895e-18 1 6.26135e-18
vt 59.0231 37.9386
f 114/433/227 194/434/228 113/435/225

vt 59.6295 34.0543
vn 0.000335462 0.999987 0.00511816
vt 60.0671 20.6863
vn 8.81604e-18 1 6.31556e-18
vt 60.5047 34.0543
f 115/436/229 194/437/230 114/438/227

vt 60.8538 30.0815
vn 0.000669487 0.999987 0.00508526
vt 61.2915 16.7135
vn 8.85669e-18 1 6.08065e-18
vt 61.7291 30.0815
f 116/439/231 194/440/232 115/441/229

vt 61.8157 26.0371
vn 0.00100065 0.999987 0.00503059
vt 62.2534 12.6691
vn 9.06224e-18 1 6.8667e-18
vt 62.691 26.0371
f 117/442/233 194/443/234 116/444/231

vt 62.5111 21.9385
vn 0.00132752 0.999987 0.00495437
vt 62.9487 8.57048
vn 9.00803e-18 1 6.78539e-18
vt 63.3863 21.9385
f 118/445/235 194/446/236 117/447/233

vt 62.9368 17.8032
vn 0.00164871 0.999987 0.00485694
vt 63.3744 4.43514
vn 8.98544e-18 1 7.03837e-18
vt 63.8121 17.8032
f 119/448/237 194/449/238 118/450/235

vt 63.0912 13.6488
vn 0.00196284 0.999987 0.00473871
vt 63.5288 0.280812
vn 8.97415e-18 1 7.05644e-18
vt 63.9664 13.6488
f 120/451/239 194/452/240 119/453/237

vt 62.9736 9.4933
vn 0.00226856 0.999987 0.00460019
vt 63.4112 -3.87472
vn 8.7415e-18 1 6.85767e-18
vt 63.8488 9.4933
f 121/454/241 194/455/242 120/456/239

vt 62.5844 5.35436
vn 0.00256457 0.999987 0.00444197
vt 63.022 -8.01366
vn 8.7415e-18 1 6.95706e-18
vt 63.4596 5.35436
f 122/457/243 194/458/244 121/459/241

vt 61.9253 1.24973
vn 0.0028496 0.999987 0.00426473
vt 62.3629 -12.1183
vn 8.49755e-18 1 6.94802e-18
vt 62.8005 1.24973
f 123/460/245 194/461/246 122/462/243

vt 60.9992 -2.803
vn 0.00312242 0.999987 0.00406922
vt 61.4368 -16.171
vn 8.67825e-18 1 7.18293e-18
vt 61.8744 -2.803
f 124/463/247 194/464/248 123/465/245

vt 59.81 -6.78648
vn 0.00338188 0.999987 0.00385629
vt 60.2476 -20.1545
vn 8.47948e-18 1 6.74925e-18
vt 60.6852 -6.78648
f 125/466/249 194/467/250 124/468/247

vt 58.3628 -10.6837
vn 0.00362685 0.999987 0.00362685
vt 58.8005 -24.0517
vn 8.75957e-18 1 6.67245e-18
vt 59.2381 -10.6837
f 126/469/251 194/470/252 125/471/249

vt 56.6639 -14.4778
vn 0.00385629 0.999987 0.00338188
vt 57.1015 -27.8459
vn 8.53369e-18 1 6.56854e-18
vt 57.5391 -14.4778
f 127/472/253 194/473/254 126/474/251

vt 54.7204 -18.1528
vn 0.00406922 0.999987 0.00312242
vt 55.158 -31.5208
vn 8.85443e-18 1 6.75376e-18
vt 55.5956 -18.1528
f 128/475/255 194/476/256 127/477/253

vt 52.5407 -21.6928
vn 0.00426473 0.999987 0.0028496
vt 52.9783 -35.0608
vn 9.11645e-18 1 6.8667e-18
vt 53.4159 -21.6928
f 129/478/257 194/479/258 128/480/255

vt 50.1341 -25.0826
vn 0.00444197 0.999987 0.00256457
vt 50.5718 -38.4506
vn 8.90865e-18 1 6.80346e-18
vt 51.0094 -25.0826
f 130/481/259 194/482/260 129/483/257

vt 47.511 -28.3078
vn 0.00460019 0.999987 0.00226856
vt 47.9487 -41.6758
vn 8.65566e-18 1 6.9435e-18
vt 48.3863 -28.3078
f 131/484/261 194/485/262 130/486/259

vt 44.6826 -31.3545
vn 0.00473871 0.999987 0.00196284
vt 45.1202 -44.7225
vn 8.98093e-18 1 6.74021e-18
vt 45.5579 -31.3545
f 132/487/263 194/488/264 131/489/261

vt 41.661 -34.2097
vn 0.00485694 0.999987 0.00164871
vt 42.0986 -47.5777
vn 8.76408e-18 1 6.96835e-18
vt 42.5362 -34.2097
f 133/490/265 194/491/266 132/492/263

vt 38.4591 -36.8612
vn 0.00495437 0.999987 0.00132752
vt 38.8967 -50.2292
vn 8.63759e-18 1 6.57758e-18
vt 39.3343 -36.8612
f 134/493/267 194/494/268 133/495/265

vt 35.0906 -39.2976
vn 0.00503059 0.999987 0.00100065
vt 35.5282 -52.6656
vn 8.56531e-18 1 6.42172e-18
vt 35.9658 -39.2976
f 135/496/269 194/497/270 134/498/267

vt 31.57 -41.5084
vn 0.00508526 0.999987 0.000669487
vt 32.0076 -54.8765
vn 8.61952e-18 1 6.49739e-18
vt 32.4452 -41.5084
f 136/499/271 194/500/272 135/501/269

vt 27.9123 -43.4843
vn 0.00511816 0.999987 0.000335462
vt 28.3499 -56.8523
vn 9.05321e-18 1 6.61146e-18
vt 28.7876 -43.4843
f 137/502/273 194/503/274 136/504/271

vt 24.1333 -45.2167
vn 0.00512914 0.999987 1.00289e-18
vt 24.5709 -58.5848
vn 9.08031e-18 1 6.64478e-18
vt 25.0085 -45.2167
f 138/505/275 194/506/276 137/507/273

vt 20.249 -46.6983
vn 0.00511816 0.999987 -0.000335462
vt 20.6866 -60.0663
vn 9.10742e-18 1 6.67979e-18
vt 21.1242 -46.6983
f 139/508/277 194/509/278 138/510/275

vt 16.2761 -47.9226
vn 0.00508526 0.999987 -0.000669487
vt 16.7137 -61.2907
vn 8.92672e-18 1 6.62388e-18
vt 17.1513 -47.9226
f 140/511/279 194/512/280 139/513/277

vt 12.2317 -48.8845
vn 0.00503059 0.999987 -0.00100065
vt 12.6693 -62.2525
vn 8.85443e-18 1 6.8588e-18
vt 13.1069 -48.8845
f 141/514/281 194/515/282 140/516/279

vt 8.13297 -49.5798
vn 0.00495437 0.999987 -0.00132752
vt 8.57059 -62.9479
vn 8.89057e-18 1 6.50078e-18
vt 9.00821 -49.5798
f 142/517/283 194/518/284 141/519/281

vt 3.99758 -50.0056
vn 0.00485694 0.999987 -0.00164871
vt 4.4352 -63.3736
vn 8.96286e-18 1 6.52337e-18
vt 4.87282 -50.0056
f 143/520/285 194/521/286 142/522/283

vt -0.156802 -50.16
vn 0.00473871 0.999987 -0.00196284
vt 0.280816 -63.528
vn 8.80022e-18 1 6.37881e-18
vt 0.718433 -50.16
f 144/523/287 194/524/288 143/525/285

vt -4.31239 -50.0423
vn 0.00460019 0.999987 -0.00226856
vt -3.87477 -63.4103
vn 8.93575e-18 1 6.96157e-18
vt -3.43715 -50.0423
f 145/526/289 194/527/290 144/528/287

vt -8.45138 -49.6531
vn 0.00444197 0.999987 -0.00256457
vt -8.01376 -63.0212
vn 8.77312e-18 1 6.69955e-18
vt -7.57615 -49.6531
f 146/529/291 194/530/292 145/531/289

vt -12.5561 -48.9941
vn 0.00426473 0.999987 -0.0028496
vt -12.1184 -62.3621
vn 8.95382e-18 1 6.92543e-18
vt -11.6808 -48.9941
f 147/532/293 194/533/294 146/534/291

vt -16.6088 -48.068
vn 0.00406922 0.999987 -0.00312242
vt -16.1712 -61.436
vn 8.91768e-18 1 6.69052e-18
vt -15.7336 -48.068
f 148/535/295 194/536/296 147/537/293

vt -20.5924 -46.8788
vn 0.00385629 0.999987 -0.00338188
vt -20.1548 -60.2468
vn 9.11645e-18 1 6.71311e-18
vt -19.7171 -46.8788
f 149/538/297 194/539/298 148/540/295

vt -24.4896 -45.4317
vn 0.00362685 0.999987 -0.00362685
vt -24.052 -58.7997
vn 8.87702e-18 1 6.71311e-18
vt -23.6144 -45.4317
f 150/541/299 194/542/300 149/543/297

vt -28.2838 -43.7327
vn 0.00338188 0.999987 -0.00385629
vt -27.8462 -57.1007
vn 8.81829e-18 1 6.77635e-18
vt -27.4086 -43.7327
f 151/544/301 194/545/302 150/546/299

vt -31.9588 -41.7892
vn 0.00312242 0.999987 -0.00406922
vt -31.5212 -55.1573
vn 8.86347e-18 1 6.89381e-18
vt -31.0836 -41.7892
f 152/547/303 194/548/304 151/549/301

vt -35.4989 -39.6096
vn 0.0028496 0.999987 -0.00426473
vt -35.0612 -52.9776
vn 9.0758e-18 1 6.81249e-18
vt -34.6236 -39.6096
f 153/550/305 194/551/306 152/552/303

vt -38.8887 -37.2031
vn 0.00256457 0.999987 -0.00444197
vt -38.4511 -50.5711
vn 9.03062e-18 1 7.11065e-18
vt -38.0135 -37.2031
f 154/553/307 194/554/308 153/555/305

vt -42.114 -34.58
vn 0.00226856 0.999987 -0.00460019
vt -41.6763 -47.948
vn 9.32426e-18 1 7.09258e-18
vt -41.2387 -34.58
f 155/556/309 194/557/310 154/558/307

vt -45.1607 -31.7516
vn 0.00196284 0.999987 -0.00473871
vt -44.7231 -45.1196
vn 9.4372e-18 1 7.04741e-18
vt -44.2855 -31.7516
f 156/559/311 194/560/312 155/561/309

vt -48.016 -28.73
vn 0.00164871 0.999987 -0.00485694
vt -47.5784 -42.098
vn 9.66534e-18 1 7.07451e-18
vt -47.1407 -28.73
f 157/562/313 194/563/314 156/564/311

vt -50.6675 -25.5282
vn 0.00132752 0.999987 -0.00495437
vt -50.2299 -38.8962
vn 9.42591e-18 1 6.8667e-18
vt -49.7922 -25.5282
f 158/565/315 194/566/316 157/567/313

vt -53.1039 -22.1597
vn 0.00100065 0.999987 -0.00503059
vt -52.6663 -35.5277
vn 9.58402e-18 1 6.89381e-18
vt -52.2287 -22.1597
f 159/568/317 194/569/318 158/570/315

vt -55.3148 -18.6392
vn 0.000669487 0.999987 -0.00508526
vt -54.8772 -32.0072
vn 9.55579e-18 1 6.61372e-18
vt -54.4396 -18.6392
f 160/571/319 194/572/320 159/573/317

vt -57.2907 -14.9816
vn 0.000335462 0.999987 -0.00511816
vt -56.8531 -28.3496
vn 9.53094e-18 1 6.61372e-18
vt -56.4155 -14.9816
f 161/574/321 194/575/322 160/576/319

vt -59.0231 -11.2025
vn 9.71716e-18 0.999987 -0.00512914
vt -58.5855 -24.5705
vn 9.6611e-18 1 6.24328e-18
vt -58.1479 -11.2025
f 162/577/323 194/578/324 161/579/321

vt -60.5047 -7.3183
vn -0.000335462 0.999987 -0.00511816
vt -60.0671 -20.6863
vn 9.67409e-18 1 6.05354e-18
vt -59.6295 -7.3183
f 163/580/325 194/581/326 162/582/323

vt -61.7291 -3.34548
vn -0.000669487 0.999987 -0.00508526
vt -61.2915 -16.7135
vn 9.74778e-18 1 6.3517e-18
vt -60.8538 -3.34548
f 164/583/327 194/584/328 163/585/325

vt -62.691 0.698902
vn -0.00100065 0.999987 -0.00503059
vt -62.2534 -12.6691
vn 9.52981e-18 1 6.31556e-18
vt -61.8157 0.698902
f 165/586/329 194/587/330 164/588/327

vt -63.3863 4.79754
vn -0.00132752 0.999987 -0.00495437
vt -62.9487 -8.57048
vn 9.53207e-18 1 6.75828e-18
vt -62.5111 4.79754
f 166/589/331 194/590/332 165/591/329

vt -63.8121 8.93287
vn -0.00164871 0.999987 -0.00485694
vt -63.3744 -4.43514
vn 9.53433e-18 1 6.72214e-18
vt -62.9368 8.93287
f 167/592/333 194/593/334 166/594/331

vt -63.9664 13.0872
vn -0.00196284 0.999987 -0.00473871
vt -63.5288 -0.280812
vn 9.53885e-18 1 6.75828e-18
vt -63.0912 13.0872
f 168/595/335 194/596/336 167/597/333

vt -63.8488 17.2427
vn -0.00226856 0.999987 -0.00460019
vt -63.4112 3.87472
vn 9.6179e-18 1 6.67697e-18
vt -62.9736 17.2427
f 169/598/337 194/599/338 168/600/335

vt -63.4596 21.3817
vn -0.00256457 0.999987 -0.00444197
vt -63.022 8.01366
vn 9.34233e-18 1 6.8396e-18
vt -62.5844 21.3817
f 170/601/339 194/602/340 169/603/337

vt -62.8005 25.4863
vn -0.0028496 0.999987 -0.00426473
vt -62.3629 12.1183
vn 9.08031e-18 1 6.33363e-18
vt -61.9253 25.4863
f 171/604/341 194/605/342 170/606/339

vt -61.8744 29.539
vn -0.00312242 0.999987 -0.00406922
vt -61.4368 16.171
vn 9.13904e-18 1 6.31556e-18
vt -60.9992 29.539
f 172/607/343 194/608/344 171/609/341

vt -60.6852 33.5225
vn -0.00338188 0.999987 -0.00385629
vt -60.2476 20.1545
vn 9.31523e-18 1 6.42398e-18
vt -59.81 33.5225
f 173/610/345 194/611/346 172/612/343

vt -59.2381 37.4197
vn -0.00362685 0.999987 -0.00362685
vt -58.8005 24.0517
vn 8.88606e-18 1 7.0971e-18
vt -58.3628 37.4197
f 174/613/347 194/614/348 173/615/345

vt -57.5391 41.2139
vn -0.00385629 0.999987 -0.00338188
vt -57.1015 27.8459
vn 8.89509e-18 1 7.22811e-18
vt -56.6639 41.2139
f 175/616/349 194/617/350 174/618/347

vt -55.5956 44.8888
vn -0.00406922 0.999987 -0.00312242
vt -55.158 31.5208
vn 8.83636e-18 1 7.13776e-18
vt -54.7204 44.8888
f 176/619/351 194/620/352 175/621/349

vt -53.4159 48.4288
vn -0.00426473 0.999987 -0.0028496
vt -52.9783 35.0608
vn 9.08031e-18 1 7.16938e-18
vt -52.5407 48.4288
f 177/622/353 194/623/354 176/624/351

vt -51.0094 51.8186
vn -0.00444197 0.999987 -0.00256457
vt -50.5718 38.4506
vn 9.08031e-18 1 7.18293e-18
vt -50.1341 51.8186
f 178/625/355 194/626/356 177/627/353

vt -48.3863 55.0438
vn -0.00460019 0.999987 -0.00226856
vt -47.9487 41.6758
vn 9.00803e-18 1 6.98868e-18
vt -47.511 55.0438
f 179/628/357 194/629/358 178/630/355

vt -45.5579 58.0905
vn -0.00473871 0.999987 -0.00196284
vt -45.1202 44.7225
vn 8.74601e-18 1 7.40881e-18
vt -44.6826 58.0905
f 180/631/359 194/632/360 179/633/357

vt -42.5362 60.9457
vn -0.00485694 0.999987 -0.00164871
vt -42.0986 47.5777
vn 8.86347e-18 1 7.29813e-18
vt -41.661 60.9457
f 181/634/361 194/635/362 180/636/359

vt -39.3343 63.5972
vn -0.00495437 0.999987 -0.00132752
vt -38.8967 50.2292
vn 8.63759e-18 1 7.15583e-18
vt -38.4591 63.5972
f 182/637/363 194/638/364 181/639/361

vt -35.9658 66.0336
vn -0.00503059 0.999987 -0.00100065
vt -35.5282 52.6656
vn 8.96286e-18 1 6.97287e-18
vt -35.0906 66.0336
f 183/640/365 194/641/366 182/642/363

vt -32.4452 68.2445
vn -0.00508526 0.999987 -0.000669487
vt -32.0076 54.8765
vn 8.96286e-18 1 7.18406e-18
vt -31.57 68.2445
f 184/643/367 194/644/368 183/645/365

vt -28.7876 70.2203
vn -0.00511816 0.999987 -0.000335462
vt -28.3499 56.8523
vn 8.8454e-18 1 7.29926e-18
vt -27.9123 70.2203
f 185/646/369 194/647/370 184/648/367

vt -25.0085 71.9528
vn -0.00512914 0.999987 6.91179e-19
vt -24.5709 58.5848
vn 8.92672e-18 1 7.14877e-18
vt -24.1333 71.9528
f 186/649/371 194/650/372 185/651/369

vt -21.1242 73.4343
vn -0.00511816 0.999987 0.000335462
vt -20.6866 60.0663
vn 9.12549e-18 1 7.06943e-18
vt -20.249 73.4343
f 187/652/373 194/653/374 186/654/371

vt -17.1513 74.6587
vn -0.00508526 0.999987 0.000669487
vt -16.7137 61.2907
vn 9.05321e-18 1 7.13437e-18
vt -16.2761 74.6587
f 188/655/375 194/656/376 187/657/373

vt -13.1069 75.6206
vn -0.00503059 0.999987 0.00100065
vt -12.6693 62.2525
vn 8.92672e-18 1 7.3659e-18
vt -12.2317 75.6206
f 189/658/377 194/659/378 188/660/375

vt -9.00821 76.3159
vn -0.00495437 0.999987 0.00132752
vt -8.57059 62.9479
vn 8.63759e-18 1 6.9819e-18
vt -8.13297 76.3159
f 190/661/379 194/662/380 189/663/377

vt -4.87282 76.7416
vn -0.00485694 0.999987 0.00164871
vt -4.4352 63.3736
vn 8.5111e-18 1 6.87348e-18
vt -3.99758 76.7416
f 191/664/381 194/665/382 190/666/379

vt -0.718433 76.896
vn -0.00473871 0.999987 0.00196284
vt -0.280816 63.528
vn 8.57435e-18 1 7.06096e-18
vt 0.156802 76.896
f 192/667/383 194/668/384 191/669/381

vt 3.43715 76.7784
vt 3.87477 63.4103
vn 8.77312e-18 1 7.52627e-18
vt 4.31239 76.7784
f 193/670/196 194/671/385 192/672/383

