# Alias OBJ Model File
# Exported from SketchUp, (c) 2000-2012 Trimble Navigation Limited
# File units = inches

mtllib cone2.mtl

g Mesh1 Model

usemtl FrontColor
v 59.3581 27.4943 -22.6409
vt 12.1184 -2.60914
vn 3.37856e-15 -1 1.63913e-15
v 70.479 0.0686032 -30.0716
vt 11.6808 -33.1193
vn -0.747335 -0.438333 0.499353
v 70.9412 0.0686032 -29.3284
vt 12.5561 -33.1193
vn -0.778394 -0.438333 0.449406
f 1/1/1 2/2/2 3/3/3

usemtl _1
vn 0.778394 0.438333 -0.449406
vn 0.747335 0.438333 -0.499353
vn -3.37856e-15 1 -1.63913e-15
f 3/3/4 2/2/5 1/1/6

usemtl FrontColor
vt 11.6808 75.7301
vn -0.00426473 0.999987 0.0028496
v 59.3581 0 -22.6409
vt 12.1184 62.3621
vn 8.75505e-18 1 7.11517e-18
vt 12.5561 75.7301
vn -0.00444197 0.999987 0.00256457
f 2/4/7 4/5/8 3/6/9

usemtl _
vn 0.00444197 -0.999987 -0.00256457
vn -8.75505e-18 -1 -7.11517e-18
vn 0.00426473 -0.999987 -0.0028496
f 3/6/10 4/5/11 2/4/12

usemtl FrontColor
vt 7.57615 76.3892
vt 8.01376 63.0212
vn 8.89961e-18 1 7.33653e-18
v 71.3538 0.0686032 -28.5565
vt 8.45138 76.3892
vn -0.00460019 0.999987 0.00226856
f 3/7/9 4/8/13 5/9/14

usemtl _
vn 0.00460019 -0.999987 -0.00226856
vn -8.89961e-18 -1 -7.33653e-18
f 5/9/15 4/8/16 3/7/10

usemtl FrontColor
vt 3.43715 76.7784
vt 3.87477 63.4103
vn 8.77312e-18 1 7.52627e-18
v 71.715 0.0686032 -27.7592
vt 4.31239 76.7784
vn -0.00473871 0.999987 0.00196284
f 5/10/14 4/11/17 6/12/18

usemtl _
vn 0.00473871 -0.999987 -0.00196284
vn -8.77312e-18 -1 -7.52627e-18
f 6/12/19 4/11/20 5/10/15

usemtl FrontColor
vt -0.718433 76.896
vt -0.280816 63.528
vn 8.57435e-18 1 7.06096e-18
v 72.0233 0.0686032 -26.9401
vt 0.156802 76.896
vn -0.00485694 0.999987 0.00164871
f 6/13/18 4/14/21 7/15/22

usemtl _
vn 0.00485694 -0.999987 -0.00164871
vn -8.57435e-18 -1 -7.06096e-18
f 7/15/23 4/14/24 6/13/19

usemtl FrontColor
vt -4.87282 76.7416
vt -4.4352 63.3736
vn 8.5111e-18 1 6.87348e-18
v 72.2774 0.0686032 -26.1026
vt -3.99758 76.7416
vn -0.00495437 0.999987 0.00132752
f 7/16/22 4/17/25 8/18/26

usemtl _
vn 0.00495437 -0.999987 -0.00132752
vn -8.5111e-18 -1 -6.87348e-18
f 8/18/27 4/17/28 7/16/23

usemtl FrontColor
vt -9.00821 76.3159
vt -8.57059 62.9479
vn 8.63759e-18 1 6.9819e-18
v 72.4761 0.0686032 -25.2502
vt -8.13297 76.3159
vn -0.00503059 0.999987 0.00100065
f 8/19/26 4/20/29 9/21/30

usemtl _
vn 0.00503059 -0.999987 -0.00100065
vn -8.63759e-18 -1 -6.9819e-18
f 9/21/31 4/20/32 8/19/27

usemtl FrontColor
vt -13.1069 75.6206
vt -12.6693 62.2525
vn 8.92672e-18 1 7.3659e-18
v 72.6187 0.0686032 -24.3866
vt -12.2317 75.6206
vn -0.00508526 0.999987 0.000669487
f 9/22/30 4/23/33 10/24/34

usemtl _
vn 0.00508526 -0.999987 -0.000669487
vn -8.92672e-18 -1 -7.3659e-18
f 10/24/35 4/23/36 9/22/31

usemtl FrontColor
vt -17.1513 74.6587
vt -16.7137 61.2907
vn 9.05321e-18 1 7.13437e-18
v 72.7045 0.0686032 -23.5156
vt -16.2761 74.6587
vn -0.00511816 0.999987 0.000335462
f 10/25/34 4/26/37 11/27/38

usemtl _
vn 0.00511816 -0.999987 -0.000335462
vn -9.05321e-18 -1 -7.13437e-18
f 11/27/39 4/26/40 10/25/35

usemtl FrontColor
vt -21.1242 73.4343
vt -20.6866 60.0663
vn 9.12549e-18 1 7.06943e-18
v 72.7331 0.0686032 -22.6409
vt -20.249 73.4343
vn -0.00512914 0.999987 6.91179e-19
f 11/28/38 4/29/41 12/30/42

usemtl _
vn 0.00512914 -0.999987 -6.91179e-19
vn -9.12549e-18 -1 -7.06943e-18
f 12/30/43 4/29/44 11/28/39

usemtl FrontColor
vt -25.0085 71.9528
vt -24.5709 58.5848
vn 8.92672e-18 1 7.14877e-18
v 72.7045 0.0686032 -21.7661
vt -24.1333 71.9528
vn -0.00511816 0.999987 -0.000335462
f 12/31/42 4/32/45 13/33/46

usemtl _
vn 0.00511816 -0.999987 0.000335462
vn -8.92672e-18 -1 -7.14877e-18
f 13/33/47 4/32/48 12/31/43

usemtl FrontColor
vt -28.7876 70.2203
vt -28.3499 56.8523
vn 8.8454e-18 1 7.29926e-18
v 72.6187 0.0686032 -20.8951
vt -27.9123 70.2203
vn -0.00508526 0.999987 -0.000669487
f 13/34/46 4/35/49 14/36/50

usemtl _
vn 0.00508526 -0.999987 0.000669487
vn -8.8454e-18 -1 -7.29926e-18
f 14/36/51 4/35/52 13/34/47

usemtl FrontColor
vt -32.4452 68.2445
vt -32.0076 54.8765
vn 8.96286e-18 1 7.18406e-18
v 72.4761 0.0686032 -20.0315
vt -31.57 68.2445
vn -0.00503059 0.999987 -0.00100065
f 14/37/50 4/38/53 15/39/54

usemtl _
vn 0.00503059 -0.999987 0.00100065
vn -8.96286e-18 -1 -7.18406e-18
f 15/39/55 4/38/56 14/37/51

usemtl FrontColor
vt -35.9658 66.0336
vt -35.5282 52.6656
vn 8.96286e-18 1 6.97287e-18
v 72.2774 0.0686032 -19.1791
vt -35.0906 66.0336
vn -0.00495437 0.999987 -0.00132752
f 15/40/54 4/41/57 16/42/58

usemtl _
vn 0.00495437 -0.999987 0.00132752
vn -8.96286e-18 -1 -6.97287e-18
f 16/42/59 4/41/60 15/40/55

usemtl FrontColor
vt -39.3343 63.5972
vt -38.8967 50.2292
vn 8.63759e-18 1 7.15583e-18
v 72.0233 0.0686032 -18.3416
vt -38.4591 63.5972
vn -0.00485694 0.999987 -0.00164871
f 16/43/58 4/44/61 17/45/62

usemtl _
vn 0.00485694 -0.999987 0.00164871
vn -8.63759e-18 -1 -7.15583e-18
f 17/45/63 4/44/64 16/43/59

usemtl FrontColor
vt -42.5362 60.9457
vt -42.0986 47.5777
vn 8.86347e-18 1 7.29813e-18
v 71.715 0.0686032 -17.5225
vt -41.661 60.9457
vn -0.00473871 0.999987 -0.00196284
f 17/46/62 4/47/65 18/48/66

usemtl _
vn 0.00473871 -0.999987 0.00196284
vn -8.86347e-18 -1 -7.29813e-18
f 18/48/67 4/47/68 17/46/63

usemtl FrontColor
vt -45.5579 58.0905
vt -45.1202 44.7225
vn 8.74601e-18 1 7.40881e-18
v 71.3538 0.0686032 -16.7252
vt -44.6826 58.0905
vn -0.00460019 0.999987 -0.00226856
f 18/49/66 4/50/69 19/51/70

usemtl _
vn 0.00460019 -0.999987 0.00226856
vn -8.74601e-18 -1 -7.40881e-18
f 19/51/71 4/50/72 18/49/67

usemtl FrontColor
vt -48.3863 55.0438
vt -47.9487 41.6758
vn 9.00803e-18 1 6.98868e-18
v 70.9412 0.0686032 -15.9534
vt -47.511 55.0438
vn -0.00444197 0.999987 -0.00256457
f 19/52/70 4/53/73 20/54/74

usemtl _
vn 0.00444197 -0.999987 0.00256457
vn -9.00803e-18 -1 -6.98868e-18
f 20/54/75 4/53/76 19/52/71

usemtl FrontColor
vt -51.0094 51.8186
vt -50.5718 38.4506
vn 9.08031e-18 1 7.18293e-18
v 70.479 0.0686032 -15.2101
vt -50.1341 51.8186
vn -0.00426473 0.999987 -0.0028496
f 20/55/74 4/56/77 21/57/78

usemtl _
vn 0.00426473 -0.999987 0.0028496
vn -9.08031e-18 -1 -7.18293e-18
f 21/57/79 4/56/80 20/55/75

usemtl FrontColor
vt -53.4159 48.4288
vt -52.9783 35.0608
vn 9.08031e-18 1 7.16938e-18
v 69.9692 0.0686032 -14.4987
vt -52.5407 48.4288
vn -0.00406922 0.999987 -0.00312242
f 21/58/78 4/59/81 22/60/82

usemtl _
vn 0.00406922 -0.999987 0.00312242
vn -9.08031e-18 -1 -7.16938e-18
f 22/60/83 4/59/84 21/58/79

usemtl FrontColor
vt -55.5956 44.8888
vt -55.158 31.5208
vn 8.83636e-18 1 7.13776e-18
v 69.414 0.0686032 -13.8221
vt -54.7204 44.8888
vn -0.00385629 0.999987 -0.00338188
f 22/61/82 4/62/85 23/63/86

usemtl _
vn 0.00385629 -0.999987 0.00338188
vn -8.83636e-18 -1 -7.13776e-18
f 23/63/87 4/62/88 22/61/83

usemtl FrontColor
vt -57.5391 41.2139
vt -57.1015 27.8459
vn 8.89509e-18 1 7.22811e-18
v 68.8156 0.0686032 -13.1833
vt -56.6639 41.2139
vn -0.00362685 0.999987 -0.00362685
f 23/64/86 4/65/89 24/66/90

usemtl _
vn 0.00362685 -0.999987 0.00362685
vn -8.89509e-18 -1 -7.22811e-18
f 24/66/91 4/65/92 23/64/87

usemtl FrontColor
vt -59.2381 37.4197
vt -58.8005 24.0517
vn 8.88606e-18 1 7.0971e-18
v 68.1768 0.0686032 -12.585
vt -58.3628 37.4197
vn -0.00338188 0.999987 -0.00385629
f 24/67/90 4/68/93 25/69/94

usemtl _
vn 0.00338188 -0.999987 0.00385629
vn -8.88606e-18 -1 -7.0971e-18
f 25/69/95 4/68/96 24/67/91

usemtl FrontColor
vt -60.6852 33.5225
vt -60.2476 20.1545
vn 9.31523e-18 1 6.42398e-18
v 67.5003 0.0686032 -12.0298
vt -59.81 33.5225
vn -0.00312242 0.999987 -0.00406922
f 25/70/94 4/71/97 26/72/98

usemtl _
vn 0.00312242 -0.999987 0.00406922
vn -9.31523e-18 -1 -6.42398e-18
f 26/72/99 4/71/100 25/70/95

usemtl FrontColor
vt -61.8744 29.539
vt -61.4368 16.171
vn 9.13904e-18 1 6.31556e-18
v 66.7888 0.0686032 -11.5199
vt -60.9992 29.539
vn -0.0028496 0.999987 -0.00426473
f 26/73/98 4/74/101 27/75/102

usemtl _
vn 0.0028496 -0.999987 0.00426473
vn -9.13904e-18 -1 -6.31556e-18
f 27/75/103 4/74/104 26/73/99

usemtl FrontColor
vt -62.8005 25.4863
vt -62.3629 12.1183
vn 9.08031e-18 1 6.33363e-18
v 66.0456 0.0686032 -11.0578
vt -61.9253 25.4863
vn -0.00256457 0.999987 -0.00444197
f 27/76/102 4/77/105 28/78/106

usemtl _
vn 0.00256457 -0.999987 0.00444197
vn -9.08031e-18 -1 -6.33363e-18
f 28/78/107 4/77/108 27/76/103

usemtl FrontColor
vt -63.4596 21.3817
vt -63.022 8.01366
vn 9.34233e-18 1 6.8396e-18
v 65.2737 0.0686032 -10.6452
vt -62.5844 21.3817
vn -0.00226856 0.999987 -0.00460019
f 28/79/106 4/80/109 29/81/110

usemtl _
vn 0.00226856 -0.999987 0.00460019
vn -9.34233e-18 -1 -6.8396e-18
f 29/81/111 4/80/112 28/79/107

usemtl FrontColor
vt -63.8488 17.2427
vt -63.4112 3.87472
vn 9.6179e-18 1 6.67697e-18
v 64.4765 0.0686032 -10.284
vt -62.9736 17.2427
vn -0.00196284 0.999987 -0.00473871
f 29/82/110 4/83/113 30/84/114

usemtl _
vn 0.00196284 -0.999987 0.00473871
vn -9.6179e-18 -1 -6.67697e-18
f 30/84/115 4/83/116 29/82/111

usemtl FrontColor
vt -63.9664 13.0872
vt -63.5288 -0.280812
vn 9.53885e-18 1 6.75828e-18
v 63.6573 0.0686032 -9.97566
vt -63.0912 13.0872
vn -0.00164871 0.999987 -0.00485694
f 30/85/114 4/86/117 31/87/118

usemtl _
vn 0.00164871 -0.999987 0.00485694
vn -9.53885e-18 -1 -6.75828e-18
f 31/87/119 4/86/120 30/85/115

usemtl FrontColor
vt -63.8121 8.93287
vt -63.3744 -4.43514
vn 9.53433e-18 1 6.72214e-18
v 62.8198 0.0686032 -9.72159
vt -62.9368 8.93287
vn -0.00132752 0.999987 -0.00495437
f 31/88/118 4/89/121 32/90/122

usemtl _
vn 0.00132752 -0.999987 0.00495437
vn -9.53433e-18 -1 -6.72214e-18
f 32/90/123 4/89/124 31/88/119

usemtl FrontColor
vt -63.3863 4.79754
vt -62.9487 -8.57048
vn 9.53207e-18 1 6.75828e-18
v 61.9674 0.0686032 -9.52285
vt -62.5111 4.79754
vn -0.00100065 0.999987 -0.00503059
f 32/91/122 4/92/125 33/93/126

usemtl _
vn 0.00100065 -0.999987 0.00503059
vn -9.53207e-18 -1 -6.75828e-18
f 33/93/127 4/92/128 32/91/123

usemtl FrontColor
vt -62.691 0.698902
vt -62.2534 -12.6691
vn 9.52981e-18 1 6.31556e-18
v 61.1039 0.0686032 -9.38028
vt -61.8157 0.698902
vn -0.000669487 0.999987 -0.00508526
f 33/94/126 4/95/129 34/96/130

usemtl _
vn 0.000669487 -0.999987 0.00508526
vn -9.52981e-18 -1 -6.31556e-18
f 34/96/131 4/95/132 33/94/127

usemtl FrontColor
vt -61.7291 -3.34548
vt -61.2915 -16.7135
vn 9.74778e-18 1 6.3517e-18
v 60.2329 0.0686032 -9.29449
vt -60.8538 -3.34548
vn -0.000335462 0.999987 -0.00511816
f 34/97/130 4/98/133 35/99/134

usemtl _
vn 0.000335462 -0.999987 0.00511816
vn -9.74778e-18 -1 -6.3517e-18
f 35/99/135 4/98/136 34/97/131

usemtl FrontColor
vt -60.5047 -7.3183
vt -60.0671 -20.6863
vn 9.67409e-18 1 6.05354e-18
v 59.3581 0.0686032 -9.26585
vt -59.6295 -7.3183
vn 9.71716e-18 0.999987 -0.00512914
f 35/100/134 4/101/137 36/102/138

usemtl _
vn -9.71716e-18 -0.999987 0.00512914
vn -9.67409e-18 -1 -6.05354e-18
f 36/102/139 4/101/140 35/100/135

usemtl FrontColor
vt -59.0231 -11.2025
vt -58.5855 -24.5705
vn 9.6611e-18 1 6.24328e-18
v 58.4833 0.0686032 -9.29449
vt -58.1479 -11.2025
vn 0.000335462 0.999987 -0.00511816
f 36/103/138 4/104/141 37/105/142

usemtl _
vn -0.000335462 -0.999987 0.00511816
vn -9.6611e-18 -1 -6.24328e-18
f 37/105/143 4/104/144 36/103/139

usemtl FrontColor
vt -57.2907 -14.9816
vt -56.8531 -28.3496
vn 9.53094e-18 1 6.61372e-18
v 57.6123 0.0686032 -9.38028
vt -56.4155 -14.9816
vn 0.000669487 0.999987 -0.00508526
f 37/106/142 4/107/145 38/108/146

usemtl _
vn -0.000669487 -0.999987 0.00508526
vn -9.53094e-18 -1 -6.61372e-18
f 38/108/147 4/107/148 37/106/143

usemtl FrontColor
vt -55.3148 -18.6392
vt -54.8772 -32.0072
vn 9.55579e-18 1 6.61372e-18
v 56.7488 0.0686032 -9.52285
vt -54.4396 -18.6392
vn 0.00100065 0.999987 -0.00503059
f 38/109/146 4/110/149 39/111/150

usemtl _
vn -0.00100065 -0.999987 0.00503059
vn -9.55579e-18 -1 -6.61372e-18
f 39/111/151 4/110/152 38/109/147

usemtl FrontColor
vt -53.1039 -22.1597
vt -52.6663 -35.5277
vn 9.58402e-18 1 6.89381e-18
v 55.8964 0.0686032 -9.72159
vt -52.2287 -22.1597
vn 0.00132752 0.999987 -0.00495437
f 39/112/150 4/113/153 40/114/154

usemtl _
vn -0.00132752 -0.999987 0.00495437
vn -9.58402e-18 -1 -6.89381e-18
f 40/114/155 4/113/156 39/112/151

usemtl FrontColor
vt -50.6675 -25.5282
vt -50.2299 -38.8962
vn 9.42591e-18 1 6.8667e-18
v 55.0588 0.0686032 -9.97566
vt -49.7922 -25.5282
vn 0.00164871 0.999987 -0.00485694
f 40/115/154 4/116/157 41/117/158

usemtl _
vn -0.00164871 -0.999987 0.00485694
vn -9.42591e-18 -1 -6.8667e-18
f 41/117/159 4/116/160 40/115/155

usemtl FrontColor
vt -48.016 -28.73
vt -47.5784 -42.098
vn 9.66534e-18 1 7.07451e-18
v 54.2397 0.0686032 -10.284
vt -47.1407 -28.73
vn 0.00196284 0.999987 -0.00473871
f 41/118/158 4/119/161 42/120/162

usemtl _
vn -0.00196284 -0.999987 0.00473871
vn -9.66534e-18 -1 -7.07451e-18
f 42/120/163 4/119/164 41/118/159

usemtl FrontColor
vt -45.1607 -31.7516
vt -44.7231 -45.1196
vn 9.4372e-18 1 7.04741e-18
v 53.4425 0.0686032 -10.6452
vt -44.2855 -31.7516
vn 0.00226856 0.999987 -0.00460019
f 42/121/162 4/122/165 43/123/166

usemtl _
vn -0.00226856 -0.999987 0.00460019
vn -9.4372e-18 -1 -7.04741e-18
f 43/123/167 4/122/168 42/121/163

usemtl FrontColor
vt -42.114 -34.58
vt -41.6763 -47.948
vn 9.32426e-18 1 7.09258e-18
v 52.6706 0.0686032 -11.0578
vt -41.2387 -34.58
vn 0.00256457 0.999987 -0.00444197
f 43/124/166 4/125/169 44/126/170

usemtl _
vn -0.00256457 -0.999987 0.00444197
vn -9.32426e-18 -1 -7.09258e-18
f 44/126/171 4/125/172 43/124/167

usemtl FrontColor
vt -38.8887 -37.2031
vt -38.4511 -50.5711
vn 9.03062e-18 1 7.11065e-18
v 51.9273 0.0686032 -11.5199
vt -38.0135 -37.2031
vn 0.0028496 0.999987 -0.00426473
f 44/127/170 4/128/173 45/129/174

usemtl _
vn -0.0028496 -0.999987 0.00426473
vn -9.03062e-18 -1 -7.11065e-18
f 45/129/175 4/128/176 44/127/171

usemtl FrontColor
vt -35.4989 -39.6096
vt -35.0612 -52.9776
vn 9.0758e-18 1 6.81249e-18
v 51.2159 0.0686032 -12.0298
vt -34.6236 -39.6096
vn 0.00312242 0.999987 -0.00406922
f 45/130/174 4/131/177 46/132/178

usemtl _
vn -0.00312242 -0.999987 0.00406922
vn -9.0758e-18 -1 -6.81249e-18
f 46/132/179 4/131/180 45/130/175

usemtl FrontColor
vt -31.9588 -41.7892
vt -31.5212 -55.1573
vn 8.86347e-18 1 6.89381e-18
v 50.5393 0.0686032 -12.585
vt -31.0836 -41.7892
vn 0.00338188 0.999987 -0.00385629
f 46/133/178 4/134/181 47/135/182

usemtl _
vn -0.00338188 -0.999987 0.00385629
vn -8.86347e-18 -1 -6.89381e-18
f 47/135/183 4/134/184 46/133/179

usemtl FrontColor
vt -28.2838 -43.7327
vt -27.8462 -57.1007
vn 8.81829e-18 1 6.77635e-18
v 49.9005 0.0686032 -13.1833
vt -27.4086 -43.7327
vn 0.00362685 0.999987 -0.00362685
f 47/136/182 4/137/185 48/138/186

usemtl _
vn -0.00362685 -0.999987 0.00362685
vn -8.81829e-18 -1 -6.77635e-18
f 48/138/187 4/137/188 47/136/183

usemtl FrontColor
vt -24.4896 -45.4317
vt -24.052 -58.7997
vn 8.87702e-18 1 6.71311e-18
v 49.3022 0.0686032 -13.8221
vt -23.6144 -45.4317
vn 0.00385629 0.999987 -0.00338188
f 48/139/186 4/140/189 49/141/190

usemtl _
vn -0.00385629 -0.999987 0.00338188
vn -8.87702e-18 -1 -6.71311e-18
f 49/141/191 4/140/192 48/139/187

usemtl FrontColor
vt -20.5924 -46.8788
vt -20.1548 -60.2468
vn 9.11645e-18 1 6.71311e-18
v 48.747 0.0686032 -14.4987
vt -19.7171 -46.8788
vn 0.00406922 0.999987 -0.00312242
f 49/142/190 4/143/193 50/144/194

usemtl _
vn -0.00406922 -0.999987 0.00312242
vn -9.11645e-18 -1 -6.71311e-18
f 50/144/195 4/143/196 49/142/191

usemtl FrontColor
vt -16.6088 -48.068
vt -16.1712 -61.436
vn 8.91768e-18 1 6.69052e-18
v 48.2372 0.0686032 -15.2101
vt -15.7336 -48.068
vn 0.00426473 0.999987 -0.0028496
f 50/145/194 4/146/197 51/147/198

usemtl _
vn -0.00426473 -0.999987 0.0028496
vn -8.91768e-18 -1 -6.69052e-18
f 51/147/199 4/146/200 50/145/195

usemtl FrontColor
vt -12.5561 -48.9941
vt -12.1184 -62.3621
vn 8.95382e-18 1 6.92543e-18
v 47.775 0.0686032 -15.9534
vt -11.6808 -48.9941
vn 0.00444197 0.999987 -0.00256457
f 51/148/198 4/149/201 52/150/202

usemtl _
vn -0.00444197 -0.999987 0.00256457
vn -8.95382e-18 -1 -6.92543e-18
f 52/150/203 4/149/204 51/148/199

usemtl FrontColor
vt -8.45138 -49.6531
vt -8.01376 -63.0212
vn 8.77312e-18 1 6.69955e-18
v 47.3624 0.0686032 -16.7252
vt -7.57615 -49.6531
vn 0.00460019 0.999987 -0.00226856
f 52/151/202 4/152/205 53/153/206

usemtl _
vn -0.00460019 -0.999987 0.00226856
vn -8.77312e-18 -1 -6.69955e-18
f 53/153/207 4/152/208 52/151/203

usemtl FrontColor
vt -4.31239 -50.0423
vt -3.87477 -63.4103
vn 8.93575e-18 1 6.96157e-18
v 47.0012 0.0686032 -17.5225
vt -3.43715 -50.0423
vn 0.00473871 0.999987 -0.00196284
f 53/154/206 4/155/209 54/156/210

usemtl _
vn -0.00473871 -0.999987 0.00196284
vn -8.93575e-18 -1 -6.96157e-18
f 54/156/211 4/155/212 53/154/207

usemtl FrontColor
vt -0.156802 -50.16
vt 0.280816 -63.528
vn 8.80022e-18 1 6.37881e-18
v 46.6929 0.0686032 -18.3416
vt 0.718433 -50.16
vn 0.00485694 0.999987 -0.00164871
f 54/157/210 4/158/213 55/159/214

usemtl _
vn -0.00485694 -0.999987 0.00164871
vn -8.80022e-18 -1 -6.37881e-18
f 55/159/215 4/158/216 54/157/211

usemtl FrontColor
vt 3.99758 -50.0056
vt 4.4352 -63.3736
vn 8.96286e-18 1 6.52337e-18
v 46.4388 0.0686032 -19.1791
vt 4.87282 -50.0056
vn 0.00495437 0.999987 -0.00132752
f 55/160/214 4/161/217 56/162/218

usemtl _
vn -0.00495437 -0.999987 0.00132752
vn -8.96286e-18 -1 -6.52337e-18
f 56/162/219 4/161/220 55/160/215

usemtl FrontColor
vt 8.13297 -49.5798
vt 8.57059 -62.9479
vn 8.89057e-18 1 6.50078e-18
v 46.2401 0.0686032 -20.0315
vt 9.00821 -49.5798
vn 0.00503059 0.999987 -0.00100065
f 56/163/218 4/164/221 57/165/222

usemtl _
vn -0.00503059 -0.999987 0.00100065
vn -8.89057e-18 -1 -6.50078e-18
f 57/165/223 4/164/224 56/163/219

usemtl FrontColor
vt 12.2317 -48.8845
vt 12.6693 -62.2525
vn 8.85443e-18 1 6.8588e-18
v 46.0975 0.0686032 -20.8951
vt 13.1069 -48.8845
vn 0.00508526 0.999987 -0.000669487
f 57/166/222 4/167/225 58/168/226

usemtl _
vn -0.00508526 -0.999987 0.000669487
vn -8.85443e-18 -1 -6.8588e-18
f 58/168/227 4/167/228 57/166/223

usemtl FrontColor
vt 16.2761 -47.9226
vt 16.7137 -61.2907
vn 8.92672e-18 1 6.62388e-18
v 46.0117 0.0686032 -21.7661
vt 17.1513 -47.9226
vn 0.00511816 0.999987 -0.000335462
f 58/169/226 4/170/229 59/171/230

usemtl _
vn -0.00511816 -0.999987 0.000335462
vn -8.92672e-18 -1 -6.62388e-18
f 59/171/231 4/170/232 58/169/227

usemtl FrontColor
vt 20.249 -46.6983
vt 20.6866 -60.0663
vn 9.10742e-18 1 6.67979e-18
v 45.9831 0.0686032 -22.6409
vt 21.1242 -46.6983
vn 0.00512914 0.999987 1.00289e-18
f 59/172/230 4/173/233 60/174/234

usemtl _
vn -0.00512914 -0.999987 -1.00289e-18
vn -9.10742e-18 -1 -6.67979e-18
f 60/174/235 4/173/236 59/172/231

usemtl FrontColor
vt 24.1333 -45.2167
vt 24.5709 -58.5848
vn 9.08031e-18 1 6.64478e-18
v 46.0117 0.0686032 -23.5156
vt 25.0085 -45.2167
vn 0.00511816 0.999987 0.000335462
f 60/175/234 4/176/237 61/177/238

usemtl _
vn -0.00511816 -0.999987 -0.000335462
vn -9.08031e-18 -1 -6.64478e-18
f 61/177/239 4/176/240 60/175/235

usemtl FrontColor
vt 27.9123 -43.4843
vt 28.3499 -56.8523
vn 9.05321e-18 1 6.61146e-18
v 46.0975 0.0686032 -24.3866
vt 28.7876 -43.4843
vn 0.00508526 0.999987 0.000669487
f 61/178/238 4/179/241 62/180/242

usemtl _
vn -0.00508526 -0.999987 -0.000669487
vn -9.05321e-18 -1 -6.61146e-18
f 62/180/243 4/179/244 61/178/239

usemtl FrontColor
vt 31.57 -41.5084
vt 32.0076 -54.8765
vn 8.61952e-18 1 6.49739e-18
v 46.2401 0.0686032 -25.2502
vt 32.4452 -41.5084
vn 0.00503059 0.999987 0.00100065
f 62/181/242 4/182/245 63/183/246

usemtl _
vn -0.00503059 -0.999987 -0.00100065
vn -8.61952e-18 -1 -6.49739e-18
f 63/183/247 4/182/248 62/181/243

usemtl FrontColor
vt 35.0906 -39.2976
vt 35.5282 -52.6656
vn 8.56531e-18 1 6.42172e-18
v 46.4388 0.0686032 -26.1026
vt 35.9658 -39.2976
vn 0.00495437 0.999987 0.00132752
f 63/184/246 4/185/249 64/186/250

usemtl _
vn -0.00495437 -0.999987 -0.00132752
vn -8.56531e-18 -1 -6.42172e-18
f 64/186/251 4/185/252 63/184/247

usemtl FrontColor
vt 38.4591 -36.8612
vt 38.8967 -50.2292
vn 8.63759e-18 1 6.57758e-18
v 46.6929 0.0686032 -26.9401
vt 39.3343 -36.8612
vn 0.00485694 0.999987 0.00164871
f 64/187/250 4/188/253 65/189/254

usemtl _
vn -0.00485694 -0.999987 -0.00164871
vn -8.63759e-18 -1 -6.57758e-18
f 65/189/255 4/188/256 64/187/251

usemtl FrontColor
vt 41.661 -34.2097
vt 42.0986 -47.5777
vn 8.76408e-18 1 6.96835e-18
v 47.0012 0.0686032 -27.7592
vt 42.5362 -34.2097
vn 0.00473871 0.999987 0.00196284
f 65/190/254 4/191/257 66/192/258

usemtl _
vn -0.00473871 -0.999987 -0.00196284
vn -8.76408e-18 -1 -6.96835e-18
f 66/192/259 4/191/260 65/190/255

usemtl FrontColor
vt 44.6826 -31.3545
vt 45.1202 -44.7225
vn 8.98093e-18 1 6.74021e-18
v 47.3624 0.0686032 -28.5565
vt 45.5579 -31.3545
vn 0.00460019 0.999987 0.00226856
f 66/193/258 4/194/261 67/195/262

usemtl _
vn -0.00460019 -0.999987 -0.00226856
vn -8.98093e-18 -1 -6.74021e-18
f 67/195/263 4/194/264 66/193/259

usemtl FrontColor
vt 47.511 -28.3078
vt 47.9487 -41.6758
vn 8.65566e-18 1 6.9435e-18
v 47.775 0.0686032 -29.3284
vt 48.3863 -28.3078
vn 0.00444197 0.999987 0.00256457
f 67/196/262 4/197/265 68/198/266

usemtl _
vn -0.00444197 -0.999987 -0.00256457
vn -8.65566e-18 -1 -6.9435e-18
f 68/198/267 4/197/268 67/196/263

usemtl FrontColor
vt 50.1341 -25.0826
vt 50.5718 -38.4506
vn 8.90865e-18 1 6.80346e-18
v 48.2372 0.0686032 -30.0716
vt 51.0094 -25.0826
vn 0.00426473 0.999987 0.0028496
f 68/199/266 4/200/269 69/201/270

usemtl _
vn -0.00426473 -0.999987 -0.0028496
vn -8.90865e-18 -1 -6.80346e-18
f 69/201/271 4/200/272 68/199/267

usemtl FrontColor
vt 52.5407 -21.6928
vt 52.9783 -35.0608
vn 9.11645e-18 1 6.8667e-18
v 48.747 0.0686032 -30.783
vt 53.4159 -21.6928
vn 0.00406922 0.999987 0.00312242
f 69/202/270 4/203/273 70/204/274

usemtl _
vn -0.00406922 -0.999987 -0.00312242
vn -9.11645e-18 -1 -6.8667e-18
f 70/204/275 4/203/276 69/202/271

usemtl FrontColor
vt 54.7204 -18.1528
vt 55.158 -31.5208
vn 8.85443e-18 1 6.75376e-18
v 49.3022 0.0686032 -31.4596
vt 55.5956 -18.1528
vn 0.00385629 0.999987 0.00338188
f 70/205/274 4/206/277 71/207/278

usemtl _
vn -0.00385629 -0.999987 -0.00338188
vn -8.85443e-18 -1 -6.75376e-18
f 71/207/279 4/206/280 70/205/275

usemtl FrontColor
vt 56.6639 -14.4778
vt 57.1015 -27.8459
vn 8.53369e-18 1 6.56854e-18
v 49.9005 0.0686032 -32.0984
vt 57.5391 -14.4778
vn 0.00362685 0.999987 0.00362685
f 71/208/278 4/209/281 72/210/282

usemtl _
vn -0.00362685 -0.999987 -0.00362685
vn -8.53369e-18 -1 -6.56854e-18
f 72/210/283 4/209/284 71/208/279

usemtl FrontColor
vt 58.3628 -10.6837
vt 58.8005 -24.0517
vn 8.75957e-18 1 6.67245e-18
v 50.5393 0.0686032 -32.6967
vt 59.2381 -10.6837
vn 0.00338188 0.999987 0.00385629
f 72/211/282 4/212/285 73/213/286

usemtl _
vn -0.00338188 -0.999987 -0.00385629
vn -8.75957e-18 -1 -6.67245e-18
f 73/213/287 4/212/288 72/211/283

usemtl FrontColor
vt 59.81 -6.78648
vt 60.2476 -20.1545
vn 8.47948e-18 1 6.74925e-18
v 51.2159 0.0686032 -33.252
vt 60.6852 -6.78648
vn 0.00312242 0.999987 0.00406922
f 73/214/286 4/215/289 74/216/290

usemtl _
vn -0.00312242 -0.999987 -0.00406922
vn -8.47948e-18 -1 -6.74925e-18
f 74/216/291 4/215/292 73/214/287

usemtl FrontColor
vt 60.9992 -2.803
vt 61.4368 -16.171
vn 8.67825e-18 1 7.18293e-18
v 51.9273 0.0686032 -33.7618
vt 61.8744 -2.803
vn 0.0028496 0.999987 0.00426473
f 74/217/290 4/218/293 75/219/294

usemtl _
vn -0.0028496 -0.999987 -0.00426473
vn -8.67825e-18 -1 -7.18293e-18
f 75/219/295 4/218/296 74/217/291

usemtl FrontColor
vt 61.9253 1.24973
vt 62.3629 -12.1183
vn 8.49755e-18 1 6.94802e-18
v 52.6706 0.0686032 -34.2239
vt 62.8005 1.24973
vn 0.00256457 0.999987 0.00444197
f 75/220/294 4/221/297 76/222/298

usemtl _
vn -0.00256457 -0.999987 -0.00444197
vn -8.49755e-18 -1 -6.94802e-18
f 76/222/299 4/221/300 75/220/295

usemtl FrontColor
vt 62.5844 5.35436
vt 63.022 -8.01366
vn 8.7415e-18 1 6.95706e-18
v 53.4425 0.0686032 -34.6365
vt 63.4596 5.35436
vn 0.00226856 0.999987 0.00460019
f 76/223/298 4/224/301 77/225/302

usemtl _
vn -0.00226856 -0.999987 -0.00460019
vn -8.7415e-18 -1 -6.95706e-18
f 77/225/303 4/224/304 76/223/299

usemtl FrontColor
vt 62.9736 9.4933
vt 63.4112 -3.87472
vn 8.7415e-18 1 6.85767e-18
v 54.2397 0.0686032 -34.9977
vt 63.8488 9.4933
vn 0.00196284 0.999987 0.00473871
f 77/226/302 4/227/305 78/228/306

usemtl _
vn -0.00196284 -0.999987 -0.00473871
vn -8.7415e-18 -1 -6.85767e-18
f 78/228/307 4/227/308 77/226/303

usemtl FrontColor
vt 63.0912 13.6488
vt 63.5288 0.280812
vn 8.97415e-18 1 7.05644e-18
v 55.0588 0.0686032 -35.306
vt 63.9664 13.6488
vn 0.00164871 0.999987 0.00485694
f 78/229/306 4/230/309 79/231/310

usemtl _
vn -0.00164871 -0.999987 -0.00485694
vn -8.97415e-18 -1 -7.05644e-18
f 79/231/311 4/230/312 78/229/307

usemtl FrontColor
vt 62.9368 17.8032
vt 63.3744 4.43514
vn 8.98544e-18 1 7.03837e-18
v 55.8964 0.0686032 -35.5601
vt 63.8121 17.8032
vn 0.00132752 0.999987 0.00495437
f 79/232/310 4/233/313 80/234/314

usemtl _
vn -0.00132752 -0.999987 -0.00495437
vn -8.98544e-18 -1 -7.03837e-18
f 80/234/315 4/233/316 79/232/311

usemtl FrontColor
vt 62.5111 21.9385
vt 62.9487 8.57048
vn 9.00803e-18 1 6.78539e-18
v 56.7488 0.0686032 -35.7589
vt 63.3863 21.9385
vn 0.00100065 0.999987 0.00503059
f 80/235/314 4/236/317 81/237/318

usemtl _
vn -0.00100065 -0.999987 -0.00503059
vn -9.00803e-18 -1 -6.78539e-18
f 81/237/319 4/236/320 80/235/315

usemtl FrontColor
vt 61.8157 26.0371
vt 62.2534 12.6691
vn 9.06224e-18 1 6.8667e-18
v 57.6123 0.0686032 -35.9014
vt 62.691 26.0371
vn 0.000669487 0.999987 0.00508526
f 81/238/318 4/239/321 82/240/322

usemtl _
vn -0.000669487 -0.999987 -0.00508526
vn -9.06224e-18 -1 -6.8667e-18
f 82/240/323 4/239/324 81/238/319

usemtl FrontColor
vt 60.8538 30.0815
vt 61.2915 16.7135
vn 8.85669e-18 1 6.08065e-18
v 58.4833 0.0686032 -35.9872
vt 61.7291 30.0815
vn 0.000335462 0.999987 0.00511816
f 82/241/322 4/242/325 83/243/326

usemtl _
vn -0.000335462 -0.999987 -0.00511816
vn -8.85669e-18 -1 -6.08065e-18
f 83/243/327 4/242/328 82/241/323

usemtl FrontColor
vt 59.6295 34.0543
vt 60.0671 20.6863
vn 8.81604e-18 1 6.31556e-18
v 59.3581 0.0686032 -36.0159
vt 60.5047 34.0543
vn 2.7864e-17 0.999987 0.00512914
f 83/244/326 4/245/329 84/246/330

usemtl _
vn -2.7864e-17 -0.999987 -0.00512914
vn -8.81604e-18 -1 -6.31556e-18
f 84/246/331 4/245/332 83/244/327

usemtl FrontColor
vt 58.1479 37.9386
vt 58.5855 24.5705
vn 8.85895e-18 1 6.26135e-18
v 60.2329 0.0686032 -35.9872
vt 59.0231 37.9386
vn -0.000335462 0.999987 0.00511816
f 84/247/330 4/248/333 85/249/334

usemtl _
vn 0.000335462 -0.999987 -0.00511816
vn -8.85895e-18 -1 -6.26135e-18
f 85/249/335 4/248/336 84/247/331

usemtl FrontColor
vt 56.4155 41.7176
vt 56.8531 28.3496
vn 9.09951e-18 1 6.34267e-18
v 61.1039 0.0686032 -35.9014
vt 57.2907 41.7176
vn -0.000669487 0.999987 0.00508526
f 85/250/334 4/251/337 86/252/338

usemtl _
vn 0.000669487 -0.999987 -0.00508526
vn -9.09951e-18 -1 -6.34267e-18
f 86/252/339 4/251/340 85/250/335

usemtl FrontColor
vt 54.4396 45.3752
vt 54.8772 32.0072
vn 9.17631e-18 1 6.46916e-18
v 61.9674 0.0686032 -35.7589
vt 55.3148 45.3752
vn -0.00100065 0.999987 0.00503059
f 86/253/338 4/254/341 87/255/342

usemtl _
vn 0.00100065 -0.999987 -0.00503059
vn -9.17631e-18 -1 -6.46916e-18
f 87/255/343 4/254/344 86/253/339

usemtl FrontColor
vt 52.2287 48.8958
vt 52.6663 35.5277
vn 9.01481e-18 1 6.67697e-18
v 62.8198 0.0686032 -35.5601
vt 53.1039 48.8958
vn -0.00132752 0.999987 0.00495437
f 87/256/342 4/257/345 88/258/346

usemtl _
vn 0.00132752 -0.999987 -0.00495437
vn -9.01481e-18 -1 -6.67697e-18
f 88/258/347 4/257/348 87/256/343

usemtl FrontColor
vt 49.7922 52.2642
vt 50.2299 38.8962
vn 8.9493e-18 1 6.78539e-18
v 63.6573 0.0686032 -35.306
vt 50.6675 52.2642
vn -0.00164871 0.999987 0.00485694
f 88/259/346 4/260/349 89/261/350

usemtl _
vn 0.00164871 -0.999987 -0.00485694
vn -8.9493e-18 -1 -6.78539e-18
f 89/261/351 4/260/352 88/259/347

usemtl FrontColor
vt 47.1407 55.4661
vt 47.5784 42.098
vn 8.7415e-18 1 6.88477e-18
v 64.4765 0.0686032 -34.9977
vt 48.016 55.4661
vn -0.00196284 0.999987 0.00473871
f 89/262/350 4/263/353 90/264/354

usemtl _
vn 0.00196284 -0.999987 -0.00473871
vn -8.7415e-18 -1 -6.88477e-18
f 90/264/355 4/263/356 89/262/351

usemtl FrontColor
vt 44.2855 58.4877
vt 44.7231 45.1196
vn 8.64211e-18 1 6.70407e-18
v 65.2737 0.0686032 -34.6365
vt 45.1607 58.4877
vn -0.00226856 0.999987 0.00460019
f 90/265/354 4/266/357 91/267/358

usemtl _
vn 0.00226856 -0.999987 -0.00460019
vn -8.64211e-18 -1 -6.70407e-18
f 91/267/359 4/266/360 90/265/355

usemtl FrontColor
vt 41.2387 61.316
vt 41.6763 47.948
vn 8.67825e-18 1 6.3246e-18
v 66.0456 0.0686032 -34.2239
vt 42.114 61.316
vn -0.00256457 0.999987 0.00444197
f 91/268/358 4/269/361 92/270/362

usemtl _
vn 0.00256457 -0.999987 -0.00444197
vn -8.67825e-18 -1 -6.3246e-18
f 92/270/363 4/269/364 91/268/359

usemtl FrontColor
vt 38.0135 63.9391
vt 38.4511 50.5711
vn 8.85443e-18 1 6.26135e-18
v 66.7888 0.0686032 -33.7618
vt 38.8887 63.9391
vn -0.0028496 0.999987 0.00426473
f 92/271/362 4/272/365 93/273/366

usemtl _
vn 0.0028496 -0.999987 -0.00426473
vn -8.85443e-18 -1 -6.26135e-18
f 93/273/367 4/272/368 92/271/363

usemtl FrontColor
vt 34.6236 66.3456
vt 35.0612 52.9776
vn 8.49755e-18 1 6.37881e-18
v 67.5003 0.0686032 -33.252
vt 35.4989 66.3456
vn -0.00312242 0.999987 0.00406922
f 93/274/366 4/275/369 94/276/370

usemtl _
vn 0.00312242 -0.999987 -0.00406922
vn -8.49755e-18 -1 -6.37881e-18
f 94/276/371 4/275/372 93/274/367

usemtl FrontColor
vt 31.0836 68.5253
vt 31.5212 55.1573
vn 8.86347e-18 1 7.08355e-18
v 68.1768 0.0686032 -32.6967
vt 31.9588 68.5253
vn -0.00338188 0.999987 0.00385629
f 94/277/370 4/278/373 95/279/374

usemtl _
vn 0.00338188 -0.999987 -0.00385629
vn -8.86347e-18 -1 -7.08355e-18
f 95/279/375 4/278/376 94/277/371

usemtl FrontColor
vt 27.4086 70.4687
vt 27.8462 57.1007
vn 8.70084e-18 1 7.31394e-18
v 68.8156 0.0686032 -32.0984
vt 28.2838 70.4687
vn -0.00362685 0.999987 0.00362685
f 95/280/374 4/281/377 96/282/378

usemtl _
vn 0.00362685 -0.999987 -0.00362685
vn -8.70084e-18 -1 -7.31394e-18
f 96/282/379 4/281/380 95/280/375

usemtl FrontColor
vt 23.6144 72.1677
vt 24.052 58.7997
vn 8.91768e-18 1 7.585e-18
v 69.414 0.0686032 -31.4596
vt 24.4896 72.1677
vn -0.00385629 0.999987 0.00338188
f 96/283/378 4/284/381 97/285/382

usemtl _
vn 0.00385629 -0.999987 -0.00338188
vn -8.91768e-18 -1 -7.585e-18
f 97/285/383 4/284/384 96/283/379

usemtl FrontColor
vt 19.7171 73.6149
vt 20.1548 60.2468
vn 8.999e-18 1 7.0971e-18
v 69.9692 0.0686032 -30.783
vt 20.5924 73.6149
vn -0.00406922 0.999987 0.00312242
f 97/286/382 4/287/385 98/288/386

usemtl _
vn 0.00406922 -0.999987 -0.00312242
vn -8.999e-18 -1 -7.0971e-18
f 98/288/387 4/287/388 97/286/383

usemtl FrontColor
vt 15.7336 74.804
vt 16.1712 61.436
vn 8.98996e-18 1 6.89833e-18
vt 16.6088 74.804
f 98/289/386 4/290/389 2/291/7

usemtl _
vn -8.98996e-18 -1 -6.89833e-18
f 2/291/12 4/290/390 98/289/387

usemtl FrontColor
vt 16.1712 -2.20337
vn 3.35745e-15 -1 1.54939e-15
vt 15.7336 -32.7135
vn -0.713076 -0.438333 0.547162
vt 16.6088 -32.7135
f 1/292/391 98/293/392 2/294/2

vt 20.1548 -1.68233
vn 3.38912e-15 -1 1.58634e-15
vt 19.7171 -32.1925
vn -0.675763 -0.438333 0.592628
vt 20.5924 -32.1925
f 1/295/393 97/296/394 98/297/392

vt 24.052 -1.04826
vn 3.39704e-15 -1 1.5705e-15
vt 23.6144 -31.5584
vn -0.635556 -0.438333 0.635556
vt 24.4896 -31.5584
f 1/298/395 96/299/396 97/300/394

vt 27.8462 -0.303868
vn 3.29938e-15 -1 1.64969e-15
vt 27.4086 -30.814
vn -0.592628 -0.438333 0.675763
vt 28.2838 -30.814
f 1/301/397 95/302/398 96/303/396

vt 31.5212 0.547659
vn 3.22811e-15 -1 1.64177e-15
vt 31.0836 -29.9625
vn -0.547162 -0.438333 0.713076
vt 31.9588 -29.9625
f 1/304/399 94/305/400 95/306/398

vt 35.0612 1.50267
vn 3.14101e-15 -1 1.64705e-15
vt 34.6236 -29.0075
vn -0.499353 -0.438333 0.747335
vt 35.4989 -29.0075
f 1/307/401 93/308/402 94/309/400

vt 38.4511 2.55709
vn 3.17004e-15 -1 1.56787e-15
vt 38.0135 -27.9531
vn -0.449406 -0.438333 0.778394
vt 38.8887 -27.9531
f 1/310/403 92/311/404 93/312/402

vt 41.6763 3.70638
vn 3.19908e-15 -1 1.54939e-15
vt 41.2387 -26.8038
vn -0.397535 -0.438333 0.80612
vt 42.114 -26.8038
f 1/313/405 91/314/406 92/315/404

vt 44.7231 4.94564
vn 3.26111e-15 -1 1.46756e-15
vt 44.2855 -25.5645
vn -0.343961 -0.438333 0.830394
vt 45.1607 -25.5645
f 1/316/407 90/317/408 91/318/406

vt 47.5784 6.26955
vn 3.13573e-15 -1 1.55467e-15
vt 47.1407 -24.2406
vn -0.288914 -0.438333 0.851113
vt 48.016 -24.2406
f 1/319/409 89/320/410 90/321/408

vt 50.2299 7.67245
vn 3.11725e-15 -1 1.52563e-15
vt 49.7922 -22.8377
vn -0.23263 -0.438333 0.868186
vt 50.6675 -22.8377
f 1/322/411 88/323/412 89/324/410

vt 52.6663 9.14832
vn 3.20106e-15 -1 1.56259e-15
vt 52.2287 -21.3618
vn -0.17535 -0.438333 0.881542
vt 53.1039 -21.3618
f 1/325/413 87/326/414 88/327/412

vt 54.8772 10.6909
vn 3.15355e-15 -1 1.64177e-15
vt 54.4396 -19.8193
vn -0.117319 -0.438333 0.891123
vt 55.3148 -19.8193
f 1/328/415 86/329/416 87/330/414

vt 56.8531 12.2934
vn 3.22481e-15 -1 1.63649e-15
vt 56.4155 -18.2167
vn -0.0587851 -0.438333 0.896888
vt 57.2907 -18.2167
f 1/331/417 85/332/418 86/333/416

vt 58.5855 13.9492
vn 3.09564e-15 -1 1.6101e-15
vt 58.1479 -16.5609
vn 4.30051e-15 -0.438333 0.898812
vt 59.0231 -16.5609
f 1/334/419 84/335/420 85/336/418

vt 60.0671 15.6511
vn 3.08195e-15 -1 1.66289e-15
vt 59.6295 -14.8591
vn 0.0587851 -0.438333 0.896888
vt 60.5047 -14.8591
f 1/337/421 83/338/422 84/339/420

vt 61.2915 17.3918
vn 3.2291e-15 -1 1.64177e-15
vt 60.8538 -13.1184
vn 0.117319 -0.438333 0.891123
vt 61.7291 -13.1184
f 1/340/423 82/341/424 83/342/422

vt 62.2534 19.1638
vn 3.08954e-15 -1 1.79222e-15
vt 61.8157 -11.3463
vn 0.17535 -0.438333 0.881542
vt 62.691 -11.3463
f 1/343/425 81/344/426 82/345/424

vt 62.9487 20.9596
vn 3.09416e-15 -1 1.62593e-15
vt 62.5111 -9.55052
vn 0.23263 -0.438333 0.868186
vt 63.3863 -9.55052
f 1/346/427 80/347/428 81/348/426

vt 63.3744 22.7715
vn 3.207e-15 -1 1.64177e-15
vt 62.9368 -7.73862
vn 0.288914 -0.438333 0.851113
vt 63.8121 -7.73862
f 1/349/429 79/350/430 80/351/428

vt 63.5288 24.5918
vn 3.15553e-15 -1 1.58106e-15
vt 63.0912 -5.91841
vn 0.343961 -0.438333 0.830394
vt 63.9664 -5.91841
f 1/352/431 78/353/432 79/354/430

vt 63.4112 26.4125
vn 3.25979e-15 -1 1.51771e-15
vt 62.9736 -4.09766
vn 0.397535 -0.438333 0.80612
vt 63.8488 -4.09766
f 1/355/433 77/356/434 78/357/432

vt 63.022 28.226
vn 3.12913e-15 -1 1.57314e-15
vt 62.5844 -2.28419
vn 0.449406 -0.438333 0.778394
vt 63.4596 -2.28419
f 1/358/435 76/359/436 77/360/434

vt 62.3629 30.0244
vn 3.13045e-15 -1 1.59426e-15
vt 61.9253 -0.485748
vn 0.499353 -0.438333 0.747335
vt 62.8005 -0.485748
f 1/361/437 75/362/438 76/363/436

vt 61.4368 31.8001
vn 3.15421e-15 -1 1.63385e-15
vt 60.9992 1.28995
vn 0.547162 -0.438333 0.713076
vt 61.8744 1.28995
f 1/364/439 74/365/440 75/366/438

vt 60.2476 33.5455
vn 3.22019e-15 -1 1.56523e-15
vt 59.81 3.03532
vn 0.592628 -0.438333 0.675763
vt 60.6852 3.03532
f 1/367/441 73/368/442 74/369/440

vt 58.8005 35.253
vn 3.20172e-15 -1 1.57314e-15
vt 58.3628 4.74286
vn 0.635556 -0.438333 0.635556
vt 59.2381 4.74286
f 1/370/443 72/371/444 73/372/442

vt 57.1015 36.9154
vn 3.24923e-15 -1 1.54411e-15
vt 56.6639 6.40528
vn 0.675763 -0.438333 0.592628
vt 57.5391 6.40528
f 1/373/445 71/374/446 72/375/444

vt 55.158 38.5256
vn 3.33105e-15 -1 1.51508e-15
vt 54.7204 8.01546
vn 0.713076 -0.438333 0.547162
vt 55.5956 8.01546
f 1/376/447 70/377/448 71/378/446

vt 52.9783 40.0767
vn 3.29938e-15 -1 1.60218e-15
vt 52.5407 9.5665
vn 0.747335 -0.438333 0.499353
vt 53.4159 9.5665
f 1/379/449 69/380/450 70/381/448

vt 50.5718 41.5619
vn 3.35745e-15 -1 1.56259e-15
vt 50.1341 11.0518
vn 0.778394 -0.438333 0.449406
vt 51.0094 11.0518
f 1/382/451 68/383/452 69/384/450

vt 47.9487 42.975
vn 3.3944e-15 -1 1.62989e-15
vt 47.511 12.4649
vn 0.80612 -0.438333 0.397535
vt 48.3863 12.4649
f 1/385/453 67/386/454 68/387/452

vt 45.1202 44.3099
vn 3.36801e-15 -1 1.55599e-15
vt 44.6826 13.7998
vn 0.830394 -0.438333 0.343961
vt 45.5579 13.7998
f 1/388/455 66/389/456 67/390/454

vt 42.0986 45.561
vn 3.29146e-15 -1 1.69984e-15
vt 41.661 15.0508
vn 0.851113 -0.438333 0.288914
vt 42.5362 15.0508
f 1/391/457 65/392/458 66/393/456

vt 38.8967 46.7227
vn 3.3073e-15 -1 1.6972e-15
vt 38.4591 16.2125
vn 0.868186 -0.438333 0.23263
vt 39.3343 16.2125
f 1/394/459 64/395/460 65/396/458

vt 35.5282 47.7902
vn 3.30202e-15 -1 1.78562e-15
vt 35.0906 17.28
vn 0.881542 -0.438333 0.17535
vt 35.9658 17.28
f 1/397/461 63/398/462 64/399/460

vt 32.0076 48.7589
vn 3.28882e-15 -1 1.69258e-15
vt 31.57 18.2487
vn 0.891123 -0.438333 0.117319
vt 32.4452 18.2487
f 1/400/463 62/401/464 63/402/462

vt 28.3499 49.6246
vn 3.27562e-15 -1 1.69324e-15
vt 27.9123 19.1145
vn 0.896888 -0.438333 0.0587851
vt 28.7876 19.1145
f 1/403/465 61/404/466 62/405/464

vt 24.5709 50.3837
vn 3.25715e-15 -1 1.67072e-15
vt 24.1333 19.8735
vn 0.898812 -0.438333 1.78754e-16
vt 25.0085 19.8735
f 1/406/467 60/407/468 61/408/466

vt 20.6866 51.0328
vn 3.30994e-15 -1 1.67559e-15
vt 20.249 20.5227
vn 0.896888 -0.438333 -0.0587851
vt 21.1242 20.5227
f 1/409/469 59/410/470 60/411/468

vt 16.7137 51.5693
vn 3.27035e-15 -1 1.66223e-15
vt 16.2761 21.0591
vn 0.891123 -0.438333 -0.117319
vt 17.1513 21.0591
f 1/412/471 58/413/472 59/414/470

vt 12.6693 51.9907
vn 3.25715e-15 -1 1.65365e-15
vt 12.2317 21.4806
vn 0.881542 -0.438333 -0.17535
vt 13.1069 21.4806
f 1/415/473 57/416/474 58/417/472

vt 8.57059 52.2954
vn 3.34689e-15 -1 1.63187e-15
vt 8.13297 21.7852
vn 0.868186 -0.438333 -0.23263
vt 9.00821 21.7852
f 1/418/475 56/419/476 57/420/474

vt 4.4352 52.4819
vn 3.39968e-15 -1 1.78958e-15
vt 3.99758 21.9718
vn 0.851113 -0.438333 -0.288914
vt 4.87282 21.9718
f 1/421/477 55/422/478 56/423/476

vt 0.280816 52.5496
vn 3.33897e-15 -1 1.7104e-15
vt -0.156802 22.0394
vn 0.830394 -0.438333 -0.343961
vt 0.718433 22.0394
f 1/424/479 54/425/480 55/426/478

vt -3.87477 52.498
vn 3.3812e-15 -1 1.70512e-15
vt -4.31239 21.9878
vn 0.80612 -0.438333 -0.397535
vt -3.43715 21.9878
f 1/427/481 53/428/482 54/429/480

vt -8.01376 52.3275
vn 3.23603e-15 -1 1.62725e-15
vt -8.45138 21.8173
vn 0.778394 -0.438333 -0.449406
vt -7.57615 21.8173
f 1/430/483 52/431/484 53/432/482

vt -12.1184 52.0387
vn 3.32314e-15 -1 1.57182e-15
vt -12.5561 21.5286
vn 0.747335 -0.438333 -0.499353
vt -11.6808 21.5286
f 1/433/485 51/434/486 52/435/484

vt -16.1712 51.633
vn 3.24659e-15 -1 1.62593e-15
vt -16.6088 21.1228
vn 0.713076 -0.438333 -0.547162
vt -15.7336 21.1228
f 1/436/487 50/437/488 51/438/486

vt -20.1548 51.1119
vn 3.32314e-15 -1 1.6101e-15
vt -20.5924 20.6018
vn 0.675763 -0.438333 -0.592628
vt -19.7171 20.6018
f 1/439/489 49/440/490 50/441/488

vt -24.052 50.4778
vn 3.17532e-15 -1 1.5837e-15
vt -24.4896 19.9677
vn 0.635556 -0.438333 -0.635556
vt -23.6144 19.9677
f 1/442/491 48/443/492 49/444/490

vt -27.8462 49.7335
vn 3.1938e-15 -1 1.57578e-15
vt -28.2838 19.2233
vn 0.592628 -0.438333 -0.675763
vt -27.4086 19.2233
f 1/445/493 47/446/494 48/447/492

vt -31.5212 48.8819
vn 3.22283e-15 -1 1.53355e-15
vt -31.9588 18.3718
vn 0.547162 -0.438333 -0.713076
vt -31.0836 18.3718
f 1/448/495 46/449/496 47/450/494

vt -35.0612 47.9269
vn 3.24395e-15 -1 1.62066e-15
vt -35.4989 17.4167
vn 0.499353 -0.438333 -0.747335
vt -34.6236 17.4167
f 1/451/497 45/452/498 46/453/496

vt -38.4511 46.8725
vn 3.30598e-15 -1 1.58634e-15
vt -38.8887 16.3623
vn 0.449406 -0.438333 -0.778394
vt -38.0135 16.3623
f 1/454/499 44/455/500 45/456/498

vt -41.6763 45.7232
vn 3.17664e-15 -1 1.55467e-15
vt -42.114 15.213
vn 0.397535 -0.438333 -0.80612
vt -41.2387 15.213
f 1/457/501 43/458/502 44/459/500

vt -44.7231 44.4839
vn 3.32446e-15 -1 1.53883e-15
vt -45.1607 13.9738
vn 0.343961 -0.438333 -0.830394
vt -44.2855 13.9738
f 1/460/503 42/461/504 43/462/502

vt -47.5784 43.16
vn 3.27035e-15 -1 1.56523e-15
vt -48.016 12.6499
vn 0.288914 -0.438333 -0.851113
vt -47.1407 12.6499
f 1/463/505 41/464/506 42/465/504

vt -50.2299 41.7571
vn 3.34821e-15 -1 1.60746e-15
vt -50.6675 11.247
vn 0.23263 -0.438333 -0.868186
vt -49.7922 11.247
f 1/466/507 40/467/508 41/468/506

vt -52.6663 40.2813
vn 3.23405e-15 -1 1.66817e-15
vt -53.1039 9.7711
vn 0.17535 -0.438333 -0.881542
vt -52.2287 9.7711
f 1/469/509 39/470/510 40/471/508

vt -54.8772 38.7387
vn 3.31918e-15 -1 1.68928e-15
vt -55.3148 8.22857
vn 0.117319 -0.438333 -0.891123
vt -54.4396 8.22857
f 1/472/511 38/473/512 39/474/510

vt -56.8531 37.1361
vn 3.41222e-15 -1 1.73679e-15
vt -57.2907 6.62598
vn 0.0587851 -0.438333 -0.896888
vt -56.4155 6.62598
f 1/475/513 37/476/514 38/477/512

vt -58.5855 35.4804
vn 3.34252e-15 -1 1.63913e-15
vt -59.0231 4.97021
vn 9.42363e-16 -0.438333 -0.898812
vt -58.1479 4.97021
f 1/478/515 36/479/516 37/480/514

vt -60.0671 33.7785
vn 3.26696e-15 -1 1.61802e-15
vt -60.5047 3.26833
vn -0.0587851 -0.438333 -0.896888
vt -59.6295 3.26833
f 1/481/517 35/482/518 36/483/516

vt -61.2915 32.0378
vn 3.29773e-15 -1 1.66553e-15
vt -61.7291 1.52764
vn -0.117319 -0.438333 -0.891123
vt -60.8538 1.52764
f 1/484/519 34/485/520 35/486/518

vt -62.2534 30.2658
vn 3.28486e-15 -1 1.62329e-15
vt -62.691 -0.244401
vn -0.17535 -0.438333 -0.881542
vt -61.8157 -0.244401
f 1/487/521 33/488/522 34/489/520

vt -62.9487 28.4699
vn 3.35547e-15 -1 1.5837e-15
vt -63.3863 -2.04022
vn -0.23263 -0.438333 -0.868186
vt -62.5111 -2.04022
f 1/490/523 32/491/524 33/492/522

vt -63.3744 26.658
vn 3.24527e-15 -1 1.63913e-15
vt -63.8121 -3.85211
vn -0.288914 -0.438333 -0.851113
vt -62.9368 -3.85211
f 1/493/525 31/494/526 32/495/524

vt -63.5288 24.8378
vn 3.31786e-15 -1 1.50716e-15
vt -63.9664 -5.67233
vn -0.343961 -0.438333 -0.830394
vt -63.0912 -5.67233
f 1/496/527 30/497/528 31/498/526

vt -63.4112 23.0171
vn 3.35613e-15 -1 1.53355e-15
vt -63.8488 -7.49307
vn -0.397535 -0.438333 -0.80612
vt -62.9736 -7.49307
f 1/499/529 29/500/530 30/501/528

vt -63.022 21.2036
vn 3.24263e-15 -1 1.51508e-15
vt -63.4596 -9.30655
vn -0.449406 -0.438333 -0.778394
vt -62.5844 -9.30655
f 1/502/531 28/503/532 29/504/530

vt -62.3629 19.4052
vn 3.25055e-15 -1 1.60218e-15
vt -62.8005 -11.105
vn -0.499353 -0.438333 -0.747335
vt -61.9253 -11.105
f 1/505/533 27/506/534 28/507/532

vt -61.4368 17.6295
vn 3.207e-15 -1 1.62329e-15
vt -61.8744 -12.8807
vn -0.547162 -0.438333 -0.713076
vt -60.9992 -12.8807
f 1/508/535 26/509/536 27/510/534

vt -60.2476 15.8841
vn 3.23867e-15 -1 1.62066e-15
vt -60.6852 -14.6261
vn -0.592628 -0.438333 -0.675763
vt -59.81 -14.6261
f 1/511/537 25/512/538 26/513/536

vt -58.8005 14.1766
vn 3.23867e-15 -1 1.64705e-15
vt -59.2381 -16.3336
vn -0.635556 -0.438333 -0.635556
vt -58.3628 -16.3336
f 1/514/539 24/515/540 25/516/538

vt -57.1015 12.5141
vn 3.19908e-15 -1 1.65233e-15
vt -57.5391 -17.996
vn -0.675763 -0.438333 -0.592628
vt -56.6639 -17.996
f 1/517/541 23/518/542 24/519/540

vt -55.158 10.904
vn 3.34953e-15 -1 1.59954e-15
vt -55.5956 -19.6062
vn -0.713076 -0.438333 -0.547162
vt -54.7204 -19.6062
f 1/520/543 22/521/544 23/522/542

vt -52.9783 9.35293
vn 3.1938e-15 -1 1.62857e-15
vt -53.4159 -21.1572
vn -0.747335 -0.438333 -0.499353
vt -52.5407 -21.1572
f 1/523/545 21/524/546 22/525/544

vt -50.5718 7.86767
vn 3.29674e-15 -1 1.60746e-15
vt -51.0094 -22.6425
vn -0.778394 -0.438333 -0.449406
vt -50.1341 -22.6425
f 1/526/547 20/527/548 21/528/546

vt -47.9487 6.45456
vn 3.36009e-15 -1 1.60218e-15
vt -48.3863 -24.0556
vn -0.80612 -0.438333 -0.397535
vt -47.511 -24.0556
f 1/529/549 19/530/550 20/531/548

vt -45.1202 5.11964
vn 3.24659e-15 -1 1.59558e-15
vt -45.5579 -25.3905
vn -0.830394 -0.438333 -0.343961
vt -44.6826 -25.3905
f 1/532/551 18/533/552 19/534/550

vt -42.0986 3.86863
vn 3.42344e-15 -1 1.55599e-15
vt -42.5362 -26.6415
vn -0.851113 -0.438333 -0.288914
vt -41.661 -26.6415
f 1/535/553 17/536/554 18/537/552

vt -38.8967 2.70689
vn 3.30466e-15 -1 1.55335e-15
vt -39.3343 -27.8033
vn -0.868186 -0.438333 -0.23263
vt -38.4591 -27.8033
f 1/538/555 16/539/556 17/540/554

vt -35.5282 1.63939
vn 3.34425e-15 -1 1.68466e-15
vt -35.9658 -28.8708
vn -0.881542 -0.438333 -0.17535
vt -35.0906 -28.8708
f 1/541/557 15/542/558 16/543/556

vt -32.0076 0.670697
vn 3.33369e-15 -1 1.68202e-15
vt -32.4452 -29.8395
vn -0.891123 -0.438333 -0.117319
vt -31.57 -29.8395
f 1/544/559 14/545/560 15/546/558

vt -28.3499 -0.195032
vn 3.28618e-15 -1 1.66553e-15
vt -28.7876 -30.7052
vn -0.896888 -0.438333 -0.0587851
vt -27.9123 -30.7052
f 1/547/561 13/548/562 14/549/560

vt -24.5709 -0.954093
vn 3.27562e-15 -1 1.65357e-15
vt -25.0085 -31.4643
vn -0.898812 -0.438333 1.16277e-16
vt -24.1333 -31.4643
f 1/550/563 12/551/564 13/552/562

vt -20.6866 -1.60324
vn 3.30994e-15 -1 1.63163e-15
vt -21.1242 -32.1134
vn -0.896888 -0.438333 0.0587851
vt -20.249 -32.1134
f 1/553/565 11/554/566 12/555/564

vt -16.7137 -2.13968
vn 3.34161e-15 -1 1.64804e-15
vt -17.1513 -32.6498
vn -0.891123 -0.438333 0.117319
vt -16.2761 -32.6498
f 1/556/567 10/557/568 11/558/566

vt -12.6693 -2.56113
vn 3.35481e-15 -1 1.65167e-15
vt -13.1069 -33.0713
vn -0.881542 -0.438333 0.17535
vt -12.2317 -33.0713
f 1/559/569 9/560/570 10/561/568

vt -8.57059 -2.86578
vn 3.33369e-15 -1 1.63187e-15
vt -9.00821 -33.3759
vn -0.868186 -0.438333 0.23263
vt -8.13297 -33.3759
f 1/562/571 8/563/572 9/564/570

vt -4.4352 -3.05233
vn 3.29146e-15 -1 1.63517e-15
vt -4.87282 -33.5625
vn -0.851113 -0.438333 0.288914
vt -3.99758 -33.5625
f 1/565/573 7/566/574 8/567/572

vt -0.280816 -3.11997
vn 3.33369e-15 -1 1.58502e-15
vt -0.718433 -33.6301
vn -0.830394 -0.438333 0.343961
vt 0.156802 -33.6301
f 1/568/575 6/569/576 7/570/574

vt 3.87477 -3.06842
vn 3.31522e-15 -1 1.58238e-15
vt 3.43715 -33.5786
vn -0.80612 -0.438333 0.397535
vt 4.31239 -33.5786
f 1/571/577 5/572/578 6/573/576

vt 8.01376 -2.8979
vn 3.43135e-15 -1 1.58238e-15
vt 7.57615 -33.4081
vt 8.45138 -33.4081
f 1/574/579 3/575/3 5/576/578

usemtl _1
vn 0.80612 0.438333 -0.397535
vn -3.43135e-15 1 -1.58238e-15
f 5/576/580 3/575/4 1/574/581

vn 0.830394 0.438333 -0.343961
vn -3.31522e-15 1 -1.58238e-15
f 6/573/582 5/572/580 1/571/583

vn 0.851113 0.438333 -0.288914
vn -3.33369e-15 1 -1.58502e-15
f 7/570/584 6/569/582 1/568/585

vn 0.868186 0.438333 -0.23263
vn -3.29146e-15 1 -1.63517e-15
f 8/567/586 7/566/584 1/565/587

vn 0.881542 0.438333 -0.17535
vn -3.33369e-15 1 -1.63187e-15
f 9/564/588 8/563/586 1/562/589

vn 0.891123 0.438333 -0.117319
vn -3.35481e-15 1 -1.65167e-15
f 10/561/590 9/560/588 1/559/591

vn 0.896888 0.438333 -0.0587851
vn -3.34161e-15 1 -1.64804e-15
f 11/558/592 10/557/590 1/556/593

vn 0.898812 0.438333 -1.16277e-16
vn -3.30994e-15 1 -1.63163e-15
f 12/555/594 11/554/592 1/553/595

vn 0.896888 0.438333 0.0587851
vn -3.27562e-15 1 -1.65357e-15
f 13/552/596 12/551/594 1/550/597

vn 0.891123 0.438333 0.117319
vn -3.28618e-15 1 -1.66553e-15
f 14/549/598 13/548/596 1/547/599

vn 0.881542 0.438333 0.17535
vn -3.33369e-15 1 -1.68202e-15
f 15/546/600 14/545/598 1/544/601

vn 0.868186 0.438333 0.23263
vn -3.34425e-15 1 -1.68466e-15
f 16/543/602 15/542/600 1/541/603

vn 0.851113 0.438333 0.288914
vn -3.30466e-15 1 -1.55335e-15
f 17/540/604 16/539/602 1/538/605

vn 0.830394 0.438333 0.343961
vn -3.42344e-15 1 -1.55599e-15
f 18/537/606 17/536/604 1/535/607

vn 0.80612 0.438333 0.397535
vn -3.24659e-15 1 -1.59558e-15
f 19/534/608 18/533/606 1/532/609

vn 0.778394 0.438333 0.449406
vn -3.36009e-15 1 -1.60218e-15
f 20/531/610 19/530/608 1/529/611

vn 0.747335 0.438333 0.499353
vn -3.29674e-15 1 -1.60746e-15
f 21/528/612 20/527/610 1/526/613

vn 0.713076 0.438333 0.547162
vn -3.1938e-15 1 -1.62857e-15
f 22/525/614 21/524/612 1/523/615

vn 0.675763 0.438333 0.592628
vn -3.34953e-15 1 -1.59954e-15
f 23/522/616 22/521/614 1/520/617

vn 0.635556 0.438333 0.635556
vn -3.19908e-15 1 -1.65233e-15
f 24/519/618 23/518/616 1/517/619

vn 0.592628 0.438333 0.675763
vn -3.23867e-15 1 -1.64705e-15
f 25/516/620 24/515/618 1/514/621

vn 0.547162 0.438333 0.713076
vn -3.23867e-15 1 -1.62066e-15
f 26/513/622 25/512/620 1/511/623

vn 0.499353 0.438333 0.747335
vn -3.207e-15 1 -1.62329e-15
f 27/510/624 26/509/622 1/508/625

vn 0.449406 0.438333 0.778394
vn -3.25055e-15 1 -1.60218e-15
f 28/507/626 27/506/624 1/505/627

vn 0.397535 0.438333 0.80612
vn -3.24263e-15 1 -1.51508e-15
f 29/504/628 28/503/626 1/502/629

vn 0.343961 0.438333 0.830394
vn -3.35613e-15 1 -1.53355e-15
f 30/501/630 29/500/628 1/499/631

vn 0.288914 0.438333 0.851113
vn -3.31786e-15 1 -1.50716e-15
f 31/498/632 30/497/630 1/496/633

vn 0.23263 0.438333 0.868186
vn -3.24527e-15 1 -1.63913e-15
f 32/495/634 31/494/632 1/493/635

vn 0.17535 0.438333 0.881542
vn -3.35547e-15 1 -1.5837e-15
f 33/492/636 32/491/634 1/490/637

vn 0.117319 0.438333 0.891123
vn -3.28486e-15 1 -1.62329e-15
f 34/489/638 33/488/636 1/487/639

vn 0.0587851 0.438333 0.896888
vn -3.29773e-15 1 -1.66553e-15
f 35/486/640 34/485/638 1/484/641

vn -9.42363e-16 0.438333 0.898812
vn -3.26696e-15 1 -1.61802e-15
f 36/483/642 35/482/640 1/481/643

vn -0.0587851 0.438333 0.896888
vn -3.34252e-15 1 -1.63913e-15
f 37/480/644 36/479/642 1/478/645

vn -0.117319 0.438333 0.891123
vn -3.41222e-15 1 -1.73679e-15
f 38/477/646 37/476/644 1/475/647

vn -0.17535 0.438333 0.881542
vn -3.31918e-15 1 -1.68928e-15
f 39/474/648 38/473/646 1/472/649

vn -0.23263 0.438333 0.868186
vn -3.23405e-15 1 -1.66817e-15
f 40/471/650 39/470/648 1/469/651

vn -0.288914 0.438333 0.851113
vn -3.34821e-15 1 -1.60746e-15
f 41/468/652 40/467/650 1/466/653

vn -0.343961 0.438333 0.830394
vn -3.27035e-15 1 -1.56523e-15
f 42/465/654 41/464/652 1/463/655

vn -0.397535 0.438333 0.80612
vn -3.32446e-15 1 -1.53883e-15
f 43/462/656 42/461/654 1/460/657

vn -0.449406 0.438333 0.778394
vn -3.17664e-15 1 -1.55467e-15
f 44/459/658 43/458/656 1/457/659

vn -0.499353 0.438333 0.747335
vn -3.30598e-15 1 -1.58634e-15
f 45/456/660 44/455/658 1/454/661

vn -0.547162 0.438333 0.713076
vn -3.24395e-15 1 -1.62066e-15
f 46/453/662 45/452/660 1/451/663

vn -0.592628 0.438333 0.675763
vn -3.22283e-15 1 -1.53355e-15
f 47/450/664 46/449/662 1/448/665

vn -0.635556 0.438333 0.635556
vn -3.1938e-15 1 -1.57578e-15
f 48/447/666 47/446/664 1/445/667

vn -0.675763 0.438333 0.592628
vn -3.17532e-15 1 -1.5837e-15
f 49/444/668 48/443/666 1/442/669

vn -0.713076 0.438333 0.547162
vn -3.32314e-15 1 -1.6101e-15
f 50/441/670 49/440/668 1/439/671

vn -0.747335 0.438333 0.499353
vn -3.24659e-15 1 -1.62593e-15
f 51/438/672 50/437/670 1/436/673

vn -0.778394 0.438333 0.449406
vn -3.32314e-15 1 -1.57182e-15
f 52/435/674 51/434/672 1/433/675

vn -0.80612 0.438333 0.397535
vn -3.23603e-15 1 -1.62725e-15
f 53/432/676 52/431/674 1/430/677

vn -0.830394 0.438333 0.343961
vn -3.3812e-15 1 -1.70512e-15
f 54/429/678 53/428/676 1/427/679

vn -0.851113 0.438333 0.288914
vn -3.33897e-15 1 -1.7104e-15
f 55/426/680 54/425/678 1/424/681

vn -0.868186 0.438333 0.23263
vn -3.39968e-15 1 -1.78958e-15
f 56/423/682 55/422/680 1/421/683

vn -0.881542 0.438333 0.17535
vn -3.34689e-15 1 -1.63187e-15
f 57/420/684 56/419/682 1/418/685

vn -0.891123 0.438333 0.117319
vn -3.25715e-15 1 -1.65365e-15
f 58/417/686 57/416/684 1/415/687

vn -0.896888 0.438333 0.0587851
vn -3.27035e-15 1 -1.66223e-15
f 59/414/688 58/413/686 1/412/689

vn -0.898812 0.438333 -1.78754e-16
vn -3.30994e-15 1 -1.67559e-15
f 60/411/690 59/410/688 1/409/691

vn -0.896888 0.438333 -0.0587851
vn -3.25715e-15 1 -1.67072e-15
f 61/408/692 60/407/690 1/406/693

vn -0.891123 0.438333 -0.117319
vn -3.27562e-15 1 -1.69324e-15
f 62/405/694 61/404/692 1/403/695

vn -0.881542 0.438333 -0.17535
vn -3.28882e-15 1 -1.69258e-15
f 63/402/696 62/401/694 1/400/697

vn -0.868186 0.438333 -0.23263
vn -3.30202e-15 1 -1.78562e-15
f 64/399/698 63/398/696 1/397/699

vn -0.851113 0.438333 -0.288914
vn -3.3073e-15 1 -1.6972e-15
f 65/396/700 64/395/698 1/394/701

vn -0.830394 0.438333 -0.343961
vn -3.29146e-15 1 -1.69984e-15
f 66/393/702 65/392/700 1/391/703

vn -0.80612 0.438333 -0.397535
vn -3.36801e-15 1 -1.55599e-15
f 67/390/704 66/389/702 1/388/705

vn -0.778394 0.438333 -0.449406
vn -3.3944e-15 1 -1.62989e-15
f 68/387/706 67/386/704 1/385/707

vn -0.747335 0.438333 -0.499353
vn -3.35745e-15 1 -1.56259e-15
f 69/384/708 68/383/706 1/382/709

vn -0.713076 0.438333 -0.547162
vn -3.29938e-15 1 -1.60218e-15
f 70/381/710 69/380/708 1/379/711

vn -0.675763 0.438333 -0.592628
vn -3.33105e-15 1 -1.51508e-15
f 71/378/712 70/377/710 1/376/713

vn -0.635556 0.438333 -0.635556
vn -3.24923e-15 1 -1.54411e-15
f 72/375/714 71/374/712 1/373/715

vn -0.592628 0.438333 -0.675763
vn -3.20172e-15 1 -1.57314e-15
f 73/372/716 72/371/714 1/370/717

vn -0.547162 0.438333 -0.713076
vn -3.22019e-15 1 -1.56523e-15
f 74/369/718 73/368/716 1/367/719

vn -0.499353 0.438333 -0.747335
vn -3.15421e-15 1 -1.63385e-15
f 75/366/720 74/365/718 1/364/721

vn -0.449406 0.438333 -0.778394
vn -3.13045e-15 1 -1.59426e-15
f 76/363/722 75/362/720 1/361/723

vn -0.397535 0.438333 -0.80612
vn -3.12913e-15 1 -1.57314e-15
f 77/360/724 76/359/722 1/358/725

vn -0.343961 0.438333 -0.830394
vn -3.25979e-15 1 -1.51771e-15
f 78/357/726 77/356/724 1/355/727

vn -0.288914 0.438333 -0.851113
vn -3.15553e-15 1 -1.58106e-15
f 79/354/728 78/353/726 1/352/729

vn -0.23263 0.438333 -0.868186
vn -3.207e-15 1 -1.64177e-15
f 80/351/730 79/350/728 1/349/731

vn -0.17535 0.438333 -0.881542
vn -3.09416e-15 1 -1.62593e-15
f 81/348/732 80/347/730 1/346/733

vn -0.117319 0.438333 -0.891123
vn -3.08954e-15 1 -1.79222e-15
f 82/345/734 81/344/732 1/343/735

vn -0.0587851 0.438333 -0.896888
vn -3.2291e-15 1 -1.64177e-15
f 83/342/736 82/341/734 1/340/737

vn -4.30051e-15 0.438333 -0.898812
vn -3.08195e-15 1 -1.66289e-15
f 84/339/738 83/338/736 1/337/739

vn 0.0587851 0.438333 -0.896888
vn -3.09564e-15 1 -1.6101e-15
f 85/336/740 84/335/738 1/334/741

vn 0.117319 0.438333 -0.891123
vn -3.22481e-15 1 -1.63649e-15
f 86/333/742 85/332/740 1/331/743

vn 0.17535 0.438333 -0.881542
vn -3.15355e-15 1 -1.64177e-15
f 87/330/744 86/329/742 1/328/745

vn 0.23263 0.438333 -0.868186
vn -3.20106e-15 1 -1.56259e-15
f 88/327/746 87/326/744 1/325/747

vn 0.288914 0.438333 -0.851113
vn -3.11725e-15 1 -1.52563e-15
f 89/324/748 88/323/746 1/322/749

vn 0.343961 0.438333 -0.830394
vn -3.13573e-15 1 -1.55467e-15
f 90/321/750 89/320/748 1/319/751

vn 0.397535 0.438333 -0.80612
vn -3.26111e-15 1 -1.46756e-15
f 91/318/752 90/317/750 1/316/753

vn 0.449406 0.438333 -0.778394
vn -3.19908e-15 1 -1.54939e-15
f 92/315/754 91/314/752 1/313/755

vn 0.499353 0.438333 -0.747335
vn -3.17004e-15 1 -1.56787e-15
f 93/312/756 92/311/754 1/310/757

vn 0.547162 0.438333 -0.713076
vn -3.14101e-15 1 -1.64705e-15
f 94/309/758 93/308/756 1/307/759

vn 0.592628 0.438333 -0.675763
vn -3.22811e-15 1 -1.64177e-15
f 95/306/760 94/305/758 1/304/761

vn 0.635556 0.438333 -0.635556
vn -3.29938e-15 1 -1.64969e-15
f 96/303/762 95/302/760 1/301/763

vn 0.675763 0.438333 -0.592628
vn -3.39704e-15 1 -1.5705e-15
f 97/300/764 96/299/762 1/298/765

vn 0.713076 0.438333 -0.547162
vn -3.38912e-15 1 -1.58634e-15
f 98/297/766 97/296/764 1/295/767

vn -3.35745e-15 1 -1.54939e-15
f 2/294/5 98/293/766 1/292/768

