<?xml version="1.0" encoding="UTF-8" standalone="no" ?>
<COLLADA xmlns="http://www.collada.org/2005/11/COLLADASchema" version="1.4.1">
    <asset>
        <contributor>
            <authoring_tool>SketchUp 17.3.116</authoring_tool>
        </contributor>
        <created>2019-08-25T01:08:09Z</created>
        <modified>2019-08-25T01:08:09Z</modified>
        <unit meter="0.0254000" name="inch" />
        <up_axis>Z_UP</up_axis>
    </asset>
    <library_cameras>
        <camera id="ID1" name="skp_camera_Last_Saved_SketchUp_View">
            <optics>
                <technique_common>
                    <perspective>
                        <yfov>35.0000000</yfov>
                        <aspect_ratio>0.0000000</aspect_ratio>
                        <znear>1.0000000</znear>
                        <zfar>1000.0000000</zfar>
                    </perspective>
                </technique_common>
            </optics>
        </camera>
    </library_cameras>
    <library_visual_scenes>
        <visual_scene id="ID2">
            <node name="SketchUp">
                <node name="skp_camera_Last_Saved_SketchUp_View">
                    <matrix>0.9432139 0.1694047 -0.2857438 -54.9979553 -0.3321859 0.4810105 -0.8113455 -672.6463013 0.0000000 0.8601924 0.5099697 518.0687866 0.0000000 0.0000000 0.0000000 1.0000000</matrix>
                    <instance_camera url="#ID1" />
                </node>
                <node id="ID3" name="instance_0">
                    <matrix>1.0000000 0.0000000 0.0000000 132.7264168 0.0000000 1.0000000 0.0000000 17.7803434 0.0000000 0.0000000 1.0000000 0.0000000 0.0000000 0.0000000 0.0000000 1.0000000</matrix>
                    <instance_node url="#ID4" />
                </node>
            </node>
        </visual_scene>
    </library_visual_scenes>
    <library_nodes>
        <node id="ID4" name="MASSIVE">
            <instance_geometry url="#ID5">
                <bind_material>
                    <technique_common>
                        <instance_material symbol="Material2" target="#ID7">
                            <bind_vertex_input semantic="UVSET0" input_semantic="TEXCOORD" input_set="0" />
                        </instance_material>
                    </technique_common>
                </bind_material>
            </instance_geometry>
            <instance_geometry url="#ID13">
                <bind_material>
                    <technique_common>
                        <instance_material symbol="Material2" target="#ID7">
                            <bind_vertex_input semantic="UVSET0" input_semantic="TEXCOORD" input_set="0" />
                        </instance_material>
                    </technique_common>
                </bind_material>
            </instance_geometry>
            <instance_geometry url="#ID19">
                <bind_material>
                    <technique_common>
                        <instance_material symbol="Material2" target="#ID7">
                            <bind_vertex_input semantic="UVSET0" input_semantic="TEXCOORD" input_set="0" />
                        </instance_material>
                    </technique_common>
                </bind_material>
            </instance_geometry>
            <instance_geometry url="#ID25">
                <bind_material>
                    <technique_common>
                        <instance_material symbol="Material2" target="#ID7">
                            <bind_vertex_input semantic="UVSET0" input_semantic="TEXCOORD" input_set="0" />
                        </instance_material>
                    </technique_common>
                </bind_material>
            </instance_geometry>
            <instance_geometry url="#ID31">
                <bind_material>
                    <technique_common>
                        <instance_material symbol="Material2" target="#ID7">
                            <bind_vertex_input semantic="UVSET0" input_semantic="TEXCOORD" input_set="0" />
                        </instance_material>
                    </technique_common>
                </bind_material>
            </instance_geometry>
            <instance_geometry url="#ID37">
                <bind_material>
                    <technique_common>
                        <instance_material symbol="Material2" target="#ID7">
                            <bind_vertex_input semantic="UVSET0" input_semantic="TEXCOORD" input_set="0" />
                        </instance_material>
                    </technique_common>
                </bind_material>
            </instance_geometry>
            <instance_geometry url="#ID43">
                <bind_material>
                    <technique_common>
                        <instance_material symbol="Material2" target="#ID7">
                            <bind_vertex_input semantic="UVSET0" input_semantic="TEXCOORD" input_set="0" />
                        </instance_material>
                    </technique_common>
                </bind_material>
            </instance_geometry>
            <instance_geometry url="#ID49">
                <bind_material>
                    <technique_common>
                        <instance_material symbol="Material2" target="#ID7">
                            <bind_vertex_input semantic="UVSET0" input_semantic="TEXCOORD" input_set="0" />
                        </instance_material>
                    </technique_common>
                </bind_material>
            </instance_geometry>
        </node>
    </library_nodes>
    <library_geometries>
        <geometry id="ID5">
            <mesh>
                <source id="ID8">
                    <float_array id="ID11" count="270">2.2739395 10.0000146 0.0000000 0.0000000 0.0000000 0.0000000 0.0000000 10.0000146 0.0000000 1.9148964 6.5425627 0.0000000 1.9414922 6.5425627 0.0000000 4.6143684 0.0000000 0.0000000 5.1728799 3.1914940 0.0000000 5.7313914 0.0000000 0.0000000 8.0718203 10.0000146 0.0000000 8.4042676 6.6755417 0.0000000 10.3457598 10.0000146 0.0000000 8.4308634 6.6755417 0.0000000 8.4308634 0.0000000 0.0000000 10.3457598 0.0000000 0.0000000 1.9148964 0.0000000 0.0000000 10.3457598 0.0000000 1.0000000 8.4308634 0.0000000 0.0000000 10.3457598 0.0000000 0.0000000 8.4308634 0.0000000 1.0000000 8.4308634 6.6755417 1.0000000 8.4308634 0.0000000 0.0000000 8.4308634 0.0000000 1.0000000 8.4308634 6.6755417 0.0000000 8.4308634 6.6755417 1.0000000 8.4042676 6.6755417 0.0000000 8.4308634 6.6755417 0.0000000 8.4042676 6.6755417 1.0000000 8.4042676 6.6755417 0.0000000 5.7313914 0.0000000 1.0000000 5.7313914 0.0000000 0.0000000 8.4042676 6.6755417 1.0000000 5.7313914 0.0000000 1.0000000 4.6143684 0.0000000 0.0000000 5.7313914 0.0000000 0.0000000 4.6143684 0.0000000 1.0000000 1.9414922 6.5425627 1.0000000 4.6143684 0.0000000 0.0000000 4.6143684 0.0000000 1.0000000 1.9414922 6.5425627 0.0000000 1.9414922 6.5425627 1.0000000 1.9148964 6.5425627 0.0000000 1.9414922 6.5425627 0.0000000 1.9148964 6.5425627 1.0000000 1.9148964 6.5425627 0.0000000 1.9148964 0.0000000 1.0000000 1.9148964 0.0000000 0.0000000 1.9148964 6.5425627 1.0000000 1.9148964 0.0000000 1.0000000 0.0000000 0.0000000 0.0000000 1.9148964 0.0000000 0.0000000 0.0000000 0.0000000 1.0000000 0.0000000 10.0000146 1.0000000 0.0000000 0.0000000 0.0000000 0.0000000 0.0000000 1.0000000 0.0000000 10.0000146 0.0000000 0.0000000 10.0000146 1.0000000 2.2739395 10.0000146 0.0000000 0.0000000 10.0000146 0.0000000 2.2739395 10.0000146 1.0000000 2.2739395 10.0000146 0.0000000 5.1728799 3.1914940 1.0000000 5.1728799 3.1914940 0.0000000 2.2739395 10.0000146 1.0000000 8.0718203 10.0000146 1.0000000 5.1728799 3.1914940 0.0000000 5.1728799 3.1914940 1.0000000 8.0718203 10.0000146 0.0000000 8.0718203 10.0000146 1.0000000 10.3457598 10.0000146 0.0000000 8.0718203 10.0000146 0.0000000 10.3457598 10.0000146 1.0000000 10.3457598 10.0000146 0.0000000 10.3457598 0.0000000 1.0000000 10.3457598 0.0000000 0.0000000 10.3457598 10.0000146 1.0000000 10.3457598 0.0000000 1.0000000 8.4308634 6.6755417 1.0000000 8.4308634 0.0000000 1.0000000 1.9148964 0.0000000 1.0000000 0.0000000 10.0000146 1.0000000 0.0000000 0.0000000 1.0000000 1.9148964 6.5425627 1.0000000 2.2739395 10.0000146 1.0000000 1.9414922 6.5425627 1.0000000 4.6143684 0.0000000 1.0000000 5.1728799 3.1914940 1.0000000 5.7313914 0.0000000 1.0000000 8.0718203 10.0000146 1.0000000 8.4042676 6.6755417 1.0000000 10.3457598 10.0000146 1.0000000</float_array>
                    <technique_common>
                        <accessor count="90" source="#ID11" stride="3">
                            <param name="X" type="float" />
                            <param name="Y" type="float" />
                            <param name="Z" type="float" />
                        </accessor>
                    </technique_common>
                </source>
                <source id="ID9">
                    <float_array id="ID12" count="270">-0.0000000 -0.0000000 -1.0000000 -0.0000000 -0.0000000 -1.0000000 -0.0000000 -0.0000000 -1.0000000 -0.0000000 -0.0000000 -1.0000000 -0.0000000 -0.0000000 -1.0000000 -0.0000000 -0.0000000 -1.0000000 -0.0000000 -0.0000000 -1.0000000 -0.0000000 -0.0000000 -1.0000000 -0.0000000 -0.0000000 -1.0000000 -0.0000000 -0.0000000 -1.0000000 -0.0000000 -0.0000000 -1.0000000 -0.0000000 -0.0000000 -1.0000000 -0.0000000 -0.0000000 -1.0000000 -0.0000000 -0.0000000 -1.0000000 -0.0000000 -0.0000000 -1.0000000 0.0000000 -1.0000000 0.0000000 0.0000000 -1.0000000 0.0000000 0.0000000 -1.0000000 0.0000000 0.0000000 -1.0000000 0.0000000 -1.0000000 0.0000000 0.0000000 -1.0000000 0.0000000 0.0000000 -1.0000000 0.0000000 0.0000000 -1.0000000 0.0000000 0.0000000 0.0000000 -1.0000000 0.0000000 0.0000000 -1.0000000 0.0000000 0.0000000 -1.0000000 0.0000000 0.0000000 -1.0000000 0.0000000 0.9283491 -0.3717095 0.0000000 0.9283491 -0.3717095 0.0000000 0.9283491 -0.3717095 0.0000000 0.9283491 -0.3717095 0.0000000 0.0000000 -1.0000000 0.0000000 0.0000000 -1.0000000 0.0000000 0.0000000 -1.0000000 0.0000000 0.0000000 -1.0000000 0.0000000 -0.9257267 -0.3781932 0.0000000 -0.9257267 -0.3781932 0.0000000 -0.9257267 -0.3781932 0.0000000 -0.9257267 -0.3781932 0.0000000 0.0000000 -1.0000000 0.0000000 0.0000000 -1.0000000 0.0000000 0.0000000 -1.0000000 0.0000000 0.0000000 -1.0000000 0.0000000 1.0000000 0.0000000 0.0000000 1.0000000 0.0000000 0.0000000 1.0000000 0.0000000 0.0000000 1.0000000 0.0000000 0.0000000 0.0000000 -1.0000000 0.0000000 0.0000000 -1.0000000 0.0000000 0.0000000 -1.0000000 0.0000000 0.0000000 -1.0000000 0.0000000 -1.0000000 0.0000000 0.0000000 -1.0000000 0.0000000 0.0000000 -1.0000000 0.0000000 0.0000000 -1.0000000 0.0000000 0.0000000 0.0000000 1.0000000 0.0000000 0.0000000 1.0000000 0.0000000 0.0000000 1.0000000 0.0000000 0.0000000 1.0000000 0.0000000 0.9200720 0.3917494 0.0000000 0.9200720 0.3917494 0.0000000 0.9200720 0.3917494 0.0000000 0.9200720 0.3917494 0.0000000 -0.9200720 0.3917494 0.0000000 -0.9200720 0.3917494 0.0000000 -0.9200720 0.3917494 0.0000000 -0.9200720 0.3917494 0.0000000 0.0000000 1.0000000 0.0000000 0.0000000 1.0000000 0.0000000 0.0000000 1.0000000 0.0000000 0.0000000 1.0000000 0.0000000 1.0000000 0.0000000 0.0000000 1.0000000 0.0000000 0.0000000 1.0000000 0.0000000 0.0000000 1.0000000 0.0000000 0.0000000 0.0000000 0.0000000 1.0000000 0.0000000 0.0000000 1.0000000 0.0000000 0.0000000 1.0000000 0.0000000 0.0000000 1.0000000 0.0000000 0.0000000 1.0000000 0.0000000 0.0000000 1.0000000 0.0000000 0.0000000 1.0000000 0.0000000 0.0000000 1.0000000 0.0000000 0.0000000 1.0000000 0.0000000 0.0000000 1.0000000 0.0000000 0.0000000 1.0000000 0.0000000 0.0000000 1.0000000 0.0000000 0.0000000 1.0000000 0.0000000 0.0000000 1.0000000 0.0000000 0.0000000 1.0000000</float_array>
                    <technique_common>
                        <accessor count="90" source="#ID12" stride="3">
                            <param name="X" type="float" />
                            <param name="Y" type="float" />
                            <param name="Z" type="float" />
                        </accessor>
                    </technique_common>
                </source>
                <vertices id="ID10">
                    <input semantic="POSITION" source="#ID8" />
                    <input semantic="NORMAL" source="#ID9" />
                </vertices>
                <triangles count="56" material="Material2">
                    <input offset="0" semantic="VERTEX" source="#ID10" />
                    <p>0 1 2 1 0 3 3 0 4 4 0 5 5 0 6 5 6 7 7 6 8 7 8 9 9 8 10 9 10 11 11 10 12 12 10 13 14 1 3 15 16 17 16 15 18 19 20 21 20 19 22 23 24 25 24 23 26 27 28 29 28 27 30 31 32 33 32 31 34 35 36 37 36 35 38 39 40 41 40 39 42 43 44 45 44 43 46 47 48 49 48 47 50 51 52 53 52 51 54 55 56 57 56 55 58 59 60 61 60 59 62 63 64 65 64 63 66 67 68 69 68 67 70 71 72 73 72 71 74 75 76 77 78 79 80 79 78 81 79 81 82 82 81 83 82 83 84 82 84 85 85 84 86 85 86 87 87 86 88 87 88 89 89 88 76 89 76 75</p>
                </triangles>
            </mesh>
        </geometry>
        <geometry id="ID13">
            <mesh>
                <source id="ID14">
                    <float_array id="ID17" count="168">15.2260861 10.0000146 0.0000000 13.7367222 0.0000000 0.0000000 11.5824637 0.0000000 0.0000000 14.3883189 2.0877690 0.0000000 14.9468303 3.7101118 0.0000000 16.2101301 7.5930962 0.0000000 17.3271530 10.0000146 0.0000000 16.2367258 7.5930962 0.0000000 17.5133235 3.7101118 0.0000000 20.9175838 0.0000000 0.0000000 18.0452391 2.0877690 0.0000000 18.7234316 0.0000000 0.0000000 20.9175838 0.0000000 1.0000000 18.7234316 0.0000000 0.0000000 20.9175838 0.0000000 0.0000000 18.7234316 0.0000000 1.0000000 18.0452391 2.0877690 1.0000000 18.7234316 0.0000000 0.0000000 18.7234316 0.0000000 1.0000000 18.0452391 2.0877690 0.0000000 18.0452391 2.0877690 1.0000000 14.3883189 2.0877690 0.0000000 18.0452391 2.0877690 0.0000000 14.3883189 2.0877690 1.0000000 14.3883189 2.0877690 0.0000000 13.7367222 0.0000000 1.0000000 13.7367222 0.0000000 0.0000000 14.3883189 2.0877690 1.0000000 13.7367222 0.0000000 1.0000000 11.5824637 0.0000000 0.0000000 13.7367222 0.0000000 0.0000000 11.5824637 0.0000000 1.0000000 15.2260861 10.0000146 1.0000000 11.5824637 0.0000000 0.0000000 11.5824637 0.0000000 1.0000000 15.2260861 10.0000146 0.0000000 15.2260861 10.0000146 1.0000000 17.3271530 10.0000146 0.0000000 15.2260861 10.0000146 0.0000000 17.3271530 10.0000146 1.0000000 17.3271530 10.0000146 0.0000000 20.9175838 0.0000000 1.0000000 20.9175838 0.0000000 0.0000000 17.3271530 10.0000146 1.0000000 18.0452391 2.0877690 1.0000000 14.9468303 3.7101118 1.0000000 14.3883189 2.0877690 1.0000000 17.5133235 3.7101118 1.0000000 13.7367222 0.0000000 1.0000000 15.2260861 10.0000146 1.0000000 11.5824637 0.0000000 1.0000000 16.2101301 7.5930962 1.0000000 17.3271530 10.0000146 1.0000000 16.2367258 7.5930962 1.0000000 20.9175838 0.0000000 1.0000000 18.7234316 0.0000000 1.0000000</float_array>
                    <technique_common>
                        <accessor count="56" source="#ID17" stride="3">
                            <param name="X" type="float" />
                            <param name="Y" type="float" />
                            <param name="Z" type="float" />
                        </accessor>
                    </technique_common>
                </source>
                <source id="ID15">
                    <float_array id="ID18" count="168">-0.0000000 -0.0000000 -1.0000000 -0.0000000 -0.0000000 -1.0000000 -0.0000000 -0.0000000 -1.0000000 -0.0000000 -0.0000000 -1.0000000 -0.0000000 -0.0000000 -1.0000000 -0.0000000 -0.0000000 -1.0000000 -0.0000000 -0.0000000 -1.0000000 -0.0000000 -0.0000000 -1.0000000 -0.0000000 -0.0000000 -1.0000000 -0.0000000 -0.0000000 -1.0000000 -0.0000000 -0.0000000 -1.0000000 -0.0000000 -0.0000000 -1.0000000 0.0000000 -1.0000000 0.0000000 0.0000000 -1.0000000 0.0000000 0.0000000 -1.0000000 0.0000000 0.0000000 -1.0000000 0.0000000 -0.9510786 -0.3089491 0.0000000 -0.9510786 -0.3089491 0.0000000 -0.9510786 -0.3089491 0.0000000 -0.9510786 -0.3089491 0.0000000 0.0000000 -1.0000000 0.0000000 0.0000000 -1.0000000 0.0000000 0.0000000 -1.0000000 0.0000000 0.0000000 -1.0000000 0.0000000 0.9545881 -0.2979288 0.0000000 0.9545881 -0.2979288 0.0000000 0.9545881 -0.2979288 0.0000000 0.9545881 -0.2979288 0.0000000 0.0000000 -1.0000000 0.0000000 0.0000000 -1.0000000 0.0000000 0.0000000 -1.0000000 0.0000000 0.0000000 -1.0000000 0.0000000 -0.9395744 0.3423449 0.0000000 -0.9395744 0.3423449 0.0000000 -0.9395744 0.3423449 0.0000000 -0.9395744 0.3423449 0.0000000 0.0000000 1.0000000 0.0000000 0.0000000 1.0000000 0.0000000 0.0000000 1.0000000 0.0000000 0.0000000 1.0000000 0.0000000 0.9411743 0.3379216 0.0000000 0.9411743 0.3379216 0.0000000 0.9411743 0.3379216 0.0000000 0.9411743 0.3379216 0.0000000 0.0000000 0.0000000 1.0000000 0.0000000 0.0000000 1.0000000 0.0000000 0.0000000 1.0000000 0.0000000 0.0000000 1.0000000 0.0000000 0.0000000 1.0000000 0.0000000 0.0000000 1.0000000 0.0000000 0.0000000 1.0000000 0.0000000 0.0000000 1.0000000 0.0000000 0.0000000 1.0000000 0.0000000 0.0000000 1.0000000 0.0000000 0.0000000 1.0000000 0.0000000 0.0000000 1.0000000</float_array>
                    <technique_common>
                        <accessor count="56" source="#ID18" stride="3">
                            <param name="X" type="float" />
                            <param name="Y" type="float" />
                            <param name="Z" type="float" />
                        </accessor>
                    </technique_common>
                </source>
                <vertices id="ID16">
                    <input semantic="POSITION" source="#ID14" />
                    <input semantic="NORMAL" source="#ID15" />
                </vertices>
                <triangles count="40" material="Material2">
                    <input offset="0" semantic="VERTEX" source="#ID16" />
                    <p>0 1 2 1 0 3 3 0 4 4 0 5 5 0 6 5 6 7 7 6 8 8 6 9 8 9 10 10 9 11 4 10 3 10 4 8 12 13 14 13 12 15 16 17 18 17 16 19 20 21 22 21 20 23 24 25 26 25 24 27 28 29 30 29 28 31 32 33 34 33 32 35 36 37 38 37 36 39 40 41 42 41 40 43 44 45 46 45 44 47 48 49 50 49 48 46 49 46 45 49 45 51 49 51 52 52 51 53 52 53 47 52 47 54 54 47 44 54 44 55</p>
                </triangles>
            </mesh>
        </geometry>
        <geometry id="ID19">
            <mesh>
                <source id="ID20">
                    <float_array id="ID23" count="864">21.9880638 7.5980829 0.0000000 22.0711752 6.2766047 0.0000000 21.9415214 7.0744784 0.0000000 22.1276919 8.1316608 0.0000000 22.4601392 5.5585188 0.0000000 22.3703781 8.6536032 0.0000000 22.7260970 9.1423006 0.0000000 23.0585439 4.9734111 0.0000000 23.2048208 9.5678334 0.0000000 23.8165242 4.5744748 0.0000000 23.8165242 9.9002804 0.0000000 23.9362052 7.3803299 0.0000000 24.5545569 10.1147093 0.0000000 24.0425878 7.8341207 0.0000000 24.3617377 8.1848524 0.0000000 24.8670572 8.4092547 0.0000000 25.4122712 10.1861851 0.0000000 25.5319522 8.4840549 0.0000000 26.4013023 10.1097226 0.0000000 26.1054240 8.4075925 0.0000000 26.5758367 8.1782034 0.0000000 27.2141355 9.8803336 0.0000000 26.8899999 7.8224851 0.0000000 26.9947203 7.3670320 0.0000000 28.9894041 7.4069257 0.0000000 27.8524347 9.5379131 0.0000000 28.3178605 9.1223538 0.0000000 28.6386724 8.6685632 0.0000000 28.8431272 8.2114482 0.0000000 24.0209788 6.9614461 0.0000000 25.9973784 3.7898992 0.0000000 24.2753014 6.6356480 0.0000000 24.6493045 6.3863124 0.0000000 25.0931218 6.1968176 0.0000000 26.9282308 5.6117103 0.0000000 26.5974464 3.5289280 0.0000000 26.9614756 3.2779303 0.0000000 27.8856796 5.1895026 0.0000000 27.1459841 2.9903636 0.0000000 27.2074866 2.6196847 0.0000000 27.2540292 0.0997342 0.0000000 27.8939906 0.4305190 0.0000000 28.6037652 4.6143684 0.0000000 28.3909989 0.8510651 0.0000000 28.7583535 1.3331136 0.0000000 28.8655683 4.2611428 0.0000000 29.0093509 1.8484070 0.0000000 29.0525698 3.8530647 0.0000000 29.1539657 2.3703493 0.0000000 29.1647703 3.3901325 0.0000000 29.2021703 2.8723446 0.0000000 23.7633326 2.9920256 0.0000000 21.8949788 2.0013327 0.0000000 21.7686488 2.9521320 0.0000000 22.0861357 1.5009995 0.0000000 22.4069476 0.9973419 0.0000000 22.8906580 0.5335777 0.0000000 23.5705132 0.1529258 0.0000000 23.8913242 2.3337795 0.0000000 24.4564847 -0.1013968 0.0000000 24.0513143 2.0794580 0.0000000 24.2753014 1.8750027 0.0000000 24.8554216 1.6057200 0.0000000 25.5585480 -0.1861705 0.0000000 25.5718459 1.5159597 0.0000000 26.4744406 -0.1146947 0.0000000 26.1403309 1.5824488 0.0000000 26.6489751 1.7819175 0.0000000 27.0545608 2.1343116 0.0000000 27.1692553 2.3587135 0.0000000 28.8431272 8.2114482 0.0000000 28.9894041 7.4069257 1.0000000 28.9894041 7.4069257 0.0000000 28.8431272 8.2114482 1.0000000 28.9894041 7.4069257 1.0000000 26.9947203 7.3670320 0.0000000 28.9894041 7.4069257 0.0000000 26.9947203 7.3670320 1.0000000 26.8899999 7.8224851 1.0000000 26.9947203 7.3670320 0.0000000 26.9947203 7.3670320 1.0000000 26.8899999 7.8224851 0.0000000 26.5758367 8.1782034 1.0000000 26.5758367 8.1782034 0.0000000 26.1054240 8.4075925 0.0000000 26.1054240 8.4075925 1.0000000 25.5319522 8.4840549 0.0000000 25.5319522 8.4840549 1.0000000 24.8670572 8.4092547 0.0000000 24.8670572 8.4092547 1.0000000 24.3617377 8.1848524 0.0000000 24.3617377 8.1848524 1.0000000 24.0425878 7.8341207 1.0000000 24.0425878 7.8341207 0.0000000 23.9362052 7.3803299 1.0000000 23.9362052 7.3803299 0.0000000 24.0209788 6.9614461 1.0000000 24.0209788 6.9614461 0.0000000 24.2753014 6.6356480 1.0000000 24.2753014 6.6356480 0.0000000 24.6493045 6.3863124 0.0000000 24.6493045 6.3863124 1.0000000 25.0931218 6.1968176 0.0000000 25.0931218 6.1968176 1.0000000 26.9282308 5.6117103 0.0000000 26.9282308 5.6117103 1.0000000 27.8856796 5.1895026 0.0000000 27.8856796 5.1895026 1.0000000 28.6037652 4.6143684 0.0000000 28.6037652 4.6143684 1.0000000 28.8655683 4.2611428 1.0000000 28.8655683 4.2611428 0.0000000 29.0525698 3.8530647 1.0000000 29.0525698 3.8530647 0.0000000 29.1647703 3.3901325 1.0000000 29.1647703 3.3901325 0.0000000 29.2021703 2.8723446 1.0000000 29.2021703 2.8723446 0.0000000 29.1539657 2.3703493 1.0000000 29.1539657 2.3703493 0.0000000 29.0093509 1.8484070 1.0000000 29.0093509 1.8484070 0.0000000 28.7583535 1.3331136 1.0000000 28.7583535 1.3331136 0.0000000 28.3909989 0.8510651 1.0000000 28.3909989 0.8510651 0.0000000 27.8939906 0.4305190 0.0000000 27.8939906 0.4305190 1.0000000 27.2540292 0.0997342 0.0000000 27.2540292 0.0997342 1.0000000 26.4744406 -0.1146947 0.0000000 26.4744406 -0.1146947 1.0000000 25.5585480 -0.1861705 0.0000000 25.5585480 -0.1861705 1.0000000 24.4564847 -0.1013968 0.0000000 24.4564847 -0.1013968 1.0000000 23.5705132 0.1529258 0.0000000 23.5705132 0.1529258 1.0000000 22.8906580 0.5335777 0.0000000 22.8906580 0.5335777 1.0000000 22.4069476 0.9973419 0.0000000 22.4069476 0.9973419 1.0000000 22.0861357 1.5009995 1.0000000 22.0861357 1.5009995 0.0000000 21.8949788 2.0013327 1.0000000 21.8949788 2.0013327 0.0000000 21.7686488 2.9521320 1.0000000 21.7686488 2.9521320 0.0000000 21.7686488 2.9521320 1.0000000 23.7633326 2.9920256 0.0000000 21.7686488 2.9521320 0.0000000 23.7633326 2.9920256 1.0000000 23.7633326 2.9920256 0.0000000 23.8913242 2.3337795 1.0000000 23.8913242 2.3337795 0.0000000 23.7633326 2.9920256 1.0000000 24.0513143 2.0794580 1.0000000 24.0513143 2.0794580 0.0000000 24.2753014 1.8750027 0.0000000 24.2753014 1.8750027 1.0000000 24.8554216 1.6057200 0.0000000 24.8554216 1.6057200 1.0000000 25.5718459 1.5159597 0.0000000 25.5718459 1.5159597 1.0000000 26.1403309 1.5824488 0.0000000 26.1403309 1.5824488 1.0000000 26.6489751 1.7819175 0.0000000 26.6489751 1.7819175 1.0000000 27.0545608 2.1343116 0.0000000 27.0545608 2.1343116 1.0000000 27.1692553 2.3587135 1.0000000 27.1692553 2.3587135 0.0000000 27.2074866 2.6196847 1.0000000 27.2074866 2.6196847 0.0000000 27.1459841 2.9903636 1.0000000 27.1459841 2.9903636 0.0000000 26.9614756 3.2779303 1.0000000 26.9614756 3.2779303 0.0000000 26.5974464 3.5289280 0.0000000 26.5974464 3.5289280 1.0000000 25.9973784 3.7898992 0.0000000 25.9973784 3.7898992 1.0000000 23.8165242 4.5744748 0.0000000 23.8165242 4.5744748 1.0000000 23.0585439 4.9734111 0.0000000 23.0585439 4.9734111 1.0000000 22.4601392 5.5585188 0.0000000 22.4601392 5.5585188 1.0000000 22.0711752 6.2766047 1.0000000 22.0711752 6.2766047 0.0000000 21.9415214 7.0744784 1.0000000 21.9415214 7.0744784 0.0000000 21.9880638 7.5980829 1.0000000 21.9880638 7.5980829 0.0000000 22.1276919 8.1316608 1.0000000 22.1276919 8.1316608 0.0000000 22.3703781 8.6536032 1.0000000 22.3703781 8.6536032 0.0000000 22.7260970 9.1423006 1.0000000 22.7260970 9.1423006 0.0000000 23.2048208 9.5678334 0.0000000 23.2048208 9.5678334 1.0000000 23.8165242 9.9002804 0.0000000 23.8165242 9.9002804 1.0000000 24.5545569 10.1147093 0.0000000 24.5545569 10.1147093 1.0000000 25.4122712 10.1861851 0.0000000 25.4122712 10.1861851 1.0000000 26.4013023 10.1097226 0.0000000 26.4013023 10.1097226 1.0000000 27.2141355 9.8803336 0.0000000 27.2141355 9.8803336 1.0000000 27.8524347 9.5379131 0.0000000 27.8524347 9.5379131 1.0000000 28.3178605 9.1223538 0.0000000 28.3178605 9.1223538 1.0000000 28.6386724 8.6685632 1.0000000 28.6386724 8.6685632 0.0000000 21.8949788 2.0013327 1.0000000 23.7633326 2.9920256 1.0000000 21.7686488 2.9521320 1.0000000 22.0861357 1.5009995 1.0000000 22.4069476 0.9973419 1.0000000 22.8906580 0.5335777 1.0000000 23.5705132 0.1529258 1.0000000 23.8913242 2.3337795 1.0000000 24.4564847 -0.1013968 1.0000000 24.0513143 2.0794580 1.0000000 24.2753014 1.8750027 1.0000000 24.8554216 1.6057200 1.0000000 25.5585480 -0.1861705 1.0000000 25.5718459 1.5159597 1.0000000 26.4744406 -0.1146947 1.0000000 26.1403309 1.5824488 1.0000000 26.6489751 1.7819175 1.0000000 27.2540292 0.0997342 1.0000000 27.0545608 2.1343116 1.0000000 27.1692553 2.3587135 1.0000000 27.2074866 2.6196847 1.0000000 22.0711752 6.2766047 1.0000000 21.9880638 7.5980829 1.0000000 21.9415214 7.0744784 1.0000000 22.1276919 8.1316608 1.0000000 22.4601392 5.5585188 1.0000000 22.3703781 8.6536032 1.0000000 22.7260970 9.1423006 1.0000000 23.0585439 4.9734111 1.0000000 23.2048208 9.5678334 1.0000000 23.8165242 4.5744748 1.0000000 23.8165242 9.9002804 1.0000000 23.9362052 7.3803299 1.0000000 24.0209788 6.9614461 1.0000000 25.9973784 3.7898992 1.0000000 24.2753014 6.6356480 1.0000000 24.6493045 6.3863124 1.0000000 25.0931218 6.1968176 1.0000000 26.9282308 5.6117103 1.0000000 26.5974464 3.5289280 1.0000000 26.9614756 3.2779303 1.0000000 27.8856796 5.1895026 1.0000000 27.1459841 2.9903636 1.0000000 27.8939906 0.4305190 1.0000000 28.6037652 4.6143684 1.0000000 28.3909989 0.8510651 1.0000000 28.7583535 1.3331136 1.0000000 28.8655683 4.2611428 1.0000000 29.0093509 1.8484070 1.0000000 29.0525698 3.8530647 1.0000000 29.1539657 2.3703493 1.0000000 29.1647703 3.3901325 1.0000000 29.2021703 2.8723446 1.0000000 24.5545569 10.1147093 1.0000000 24.0425878 7.8341207 1.0000000 24.3617377 8.1848524 1.0000000 24.8670572 8.4092547 1.0000000 25.4122712 10.1861851 1.0000000 25.5319522 8.4840549 1.0000000 26.4013023 10.1097226 1.0000000 26.1054240 8.4075925 1.0000000 26.5758367 8.1782034 1.0000000 27.2141355 9.8803336 1.0000000 26.8899999 7.8224851 1.0000000 26.9947203 7.3670320 1.0000000 28.9894041 7.4069257 1.0000000 27.8524347 9.5379131 1.0000000 28.3178605 9.1223538 1.0000000 28.6386724 8.6685632 1.0000000 28.8431272 8.2114482 1.0000000</float_array>
                    <technique_common>
                        <accessor count="288" source="#ID23" stride="3">
                            <param name="X" type="float" />
                            <param name="Y" type="float" />
                            <param name="Z" type="float" />
                        </accessor>
                    </technique_common>
                </source>
                <source id="ID21">
                    <float_array id="ID24" count="864">-0.0000000 -0.0000000 -1.0000000 -0.0000000 -0.0000000 -1.0000000 -0.0000000 -0.0000000 -1.0000000 -0.0000000 -0.0000000 -1.0000000 -0.0000000 -0.0000000 -1.0000000 -0.0000000 -0.0000000 -1.0000000 -0.0000000 -0.0000000 -1.0000000 -0.0000000 -0.0000000 -1.0000000 -0.0000000 -0.0000000 -1.0000000 -0.0000000 -0.0000000 -1.0000000 -0.0000000 -0.0000000 -1.0000000 -0.0000000 -0.0000000 -1.0000000 -0.0000000 -0.0000000 -1.0000000 -0.0000000 -0.0000000 -1.0000000 -0.0000000 -0.0000000 -1.0000000 -0.0000000 -0.0000000 -1.0000000 -0.0000000 -0.0000000 -1.0000000 -0.0000000 -0.0000000 -1.0000000 -0.0000000 -0.0000000 -1.0000000 -0.0000000 -0.0000000 -1.0000000 -0.0000000 -0.0000000 -1.0000000 -0.0000000 -0.0000000 -1.0000000 -0.0000000 -0.0000000 -1.0000000 -0.0000000 -0.0000000 -1.0000000 -0.0000000 -0.0000000 -1.0000000 -0.0000000 -0.0000000 -1.0000000 -0.0000000 -0.0000000 -1.0000000 -0.0000000 -0.0000000 -1.0000000 -0.0000000 -0.0000000 -1.0000000 -0.0000000 -0.0000000 -1.0000000 -0.0000000 -0.0000000 -1.0000000 -0.0000000 -0.0000000 -1.0000000 -0.0000000 -0.0000000 -1.0000000 -0.0000000 -0.0000000 -1.0000000 -0.0000000 -0.0000000 -1.0000000 -0.0000000 -0.0000000 -1.0000000 -0.0000000 -0.0000000 -1.0000000 -0.0000000 -0.0000000 -1.0000000 -0.0000000 -0.0000000 -1.0000000 -0.0000000 -0.0000000 -1.0000000 -0.0000000 -0.0000000 -1.0000000 -0.0000000 -0.0000000 -1.0000000 -0.0000000 -0.0000000 -1.0000000 -0.0000000 -0.0000000 -1.0000000 -0.0000000 -0.0000000 -1.0000000 -0.0000000 -0.0000000 -1.0000000 -0.0000000 -0.0000000 -1.0000000 -0.0000000 -0.0000000 -1.0000000 -0.0000000 -0.0000000 -1.0000000 -0.0000000 -0.0000000 -1.0000000 -0.0000000 -0.0000000 -1.0000000 -0.0000000 -0.0000000 -1.0000000 -0.0000000 -0.0000000 -1.0000000 -0.0000000 -0.0000000 -1.0000000 -0.0000000 -0.0000000 -1.0000000 -0.0000000 -0.0000000 -1.0000000 -0.0000000 -0.0000000 -1.0000000 -0.0000000 -0.0000000 -1.0000000 -0.0000000 -0.0000000 -1.0000000 -0.0000000 -0.0000000 -1.0000000 -0.0000000 -0.0000000 -1.0000000 -0.0000000 -0.0000000 -1.0000000 -0.0000000 -0.0000000 -1.0000000 -0.0000000 -0.0000000 -1.0000000 -0.0000000 -0.0000000 -1.0000000 -0.0000000 -0.0000000 -1.0000000 -0.0000000 -0.0000000 -1.0000000 -0.0000000 -0.0000000 -1.0000000 -0.0000000 -0.0000000 -1.0000000 -0.0000000 -0.0000000 -1.0000000 0.9552720 0.2957287 0.0000000 0.9838699 0.1788854 0.0000000 0.9838699 0.1788854 0.0000000 0.9552720 0.2957287 0.0000000 0.0199960 -0.9998001 0.0000000 0.0199960 -0.9998001 0.0000000 0.0199960 -0.9998001 0.0000000 0.0199960 -0.9998001 0.0000000 -0.8894203 -0.4570902 0.0000000 -0.9745710 -0.2240789 0.0000000 -0.9745710 -0.2240789 0.0000000 -0.8894203 -0.4570902 0.0000000 -0.6056074 -0.7957636 0.0000000 -0.6056074 -0.7957636 0.0000000 -0.2889484 -0.9573447 0.0000000 -0.2889484 -0.9573447 0.0000000 -0.0102611 -0.9999474 0.0000000 -0.0102611 -0.9999474 0.0000000 0.2618843 -0.9650993 0.0000000 0.2618843 -0.9650993 0.0000000 0.5852710 -0.8108378 0.0000000 0.5852710 -0.8108378 0.0000000 0.8850103 -0.4655715 0.0000000 0.8850103 -0.4655715 0.0000000 0.9998830 -0.0152943 0.0000000 0.9998830 -0.0152943 0.0000000 0.9084459 0.4180025 0.0000000 0.9084459 0.4180025 0.0000000 0.6801709 0.7330536 0.0000000 0.6801709 0.7330536 0.0000000 0.4757080 0.8796032 0.0000000 0.4757080 0.8796032 0.0000000 0.3486147 0.9372661 0.0000000 0.3486147 0.9372661 0.0000000 0.3541320 0.9351955 0.0000000 0.3541320 0.9351955 0.0000000 0.5186860 0.8549648 0.0000000 0.5186860 0.8549648 0.0000000 0.7202313 0.6937340 0.0000000 0.7202313 0.6937340 0.0000000 0.8608992 0.5087756 0.0000000 0.8608992 0.5087756 0.0000000 0.9448243 0.3275774 0.0000000 0.9448243 0.3275774 0.0000000 0.9880201 0.1543253 0.0000000 0.9880201 0.1543253 0.0000000 0.9999302 -0.0118134 0.0000000 0.9999302 -0.0118134 0.0000000 0.9833001 -0.1819914 0.0000000 0.9833001 -0.1819914 0.0000000 0.9352680 -0.3539402 0.0000000 0.9352680 -0.3539402 0.0000000 0.8513588 -0.5245838 0.0000000 0.8513588 -0.5245838 0.0000000 0.7249325 -0.6888199 0.0000000 0.7249325 -0.6888199 0.0000000 0.5560784 -0.8311299 0.0000000 0.5560784 -0.8311299 0.0000000 0.3641679 -0.9313333 0.0000000 0.3641679 -0.9313333 0.0000000 0.1722851 -0.9850471 0.0000000 0.1722851 -0.9850471 0.0000000 0.0005551 -0.9999998 0.0000000 0.0005551 -0.9999998 0.0000000 -0.1772142 -0.9841723 0.0000000 -0.1772142 -0.9841723 0.0000000 -0.3847861 -0.9230058 0.0000000 -0.3847861 -0.9230058 0.0000000 -0.5950930 -0.8036569 0.0000000 -0.5950930 -0.8036569 0.0000000 -0.7732778 -0.6340673 0.0000000 -0.7732778 -0.6340673 0.0000000 -0.8933498 -0.4493619 0.0000000 -0.8933498 -0.4493619 0.0000000 -0.9692777 -0.2459690 0.0000000 -0.9692777 -0.2459690 0.0000000 -0.9912883 -0.1317096 0.0000000 -0.9912883 -0.1317096 0.0000000 -0.0199960 0.9998001 0.0000000 -0.0199960 0.9998001 0.0000000 -0.0199960 0.9998001 0.0000000 -0.0199960 0.9998001 0.0000000 0.9816156 0.1908686 0.0000000 0.9298506 0.3679372 0.0000000 0.9298506 0.3679372 0.0000000 0.9816156 0.1908686 0.0000000 0.7672568 0.6413400 0.0000000 0.7672568 0.6413400 0.0000000 0.5540441 0.8324873 0.0000000 0.5540441 0.8324873 0.0000000 0.2759841 0.9611622 0.0000000 0.2759841 0.9611622 0.0000000 0.0041052 0.9999916 0.0000000 0.0041052 0.9999916 0.0000000 -0.2426325 0.9701183 0.0000000 -0.2426325 0.9701183 0.0000000 -0.5180183 0.8553695 0.0000000 -0.5180183 0.8553695 0.0000000 -0.7875468 0.6162548 0.0000000 -0.7875468 0.6162548 0.0000000 -0.9526444 0.3040867 0.0000000 -0.9526444 0.3040867 0.0000000 -0.9999551 -0.0094794 0.0000000 -0.9999551 -0.0094794 0.0000000 -0.9332496 -0.3592285 0.0000000 -0.9332496 -0.3592285 0.0000000 -0.7187404 -0.6952785 0.0000000 -0.7187404 -0.6952785 0.0000000 -0.4855007 -0.8742363 0.0000000 -0.4855007 -0.8742363 0.0000000 -0.3688616 -0.9294843 0.0000000 -0.3688616 -0.9294843 0.0000000 -0.4031061 -0.9151532 0.0000000 -0.4031061 -0.9151532 0.0000000 -0.5885954 -0.8084278 0.0000000 -0.5885954 -0.8084278 0.0000000 -0.7981801 -0.6024190 0.0000000 -0.7981801 -0.6024190 0.0000000 -0.9464443 -0.3228672 0.0000000 -0.9464443 -0.3228672 0.0000000 -0.9993442 -0.0362099 0.0000000 -0.9993442 -0.0362099 0.0000000 -0.9851931 0.1714482 0.0000000 -0.9851931 0.1714482 0.0000000 -0.9408767 0.3387493 0.0000000 -0.9408767 0.3387493 0.0000000 -0.8616847 0.5074441 0.0000000 -0.8616847 0.5074441 0.0000000 -0.7407050 0.6718304 0.0000000 -0.7407050 0.6718304 0.0000000 -0.5746958 0.8183671 0.0000000 -0.5746958 0.8183671 0.0000000 -0.3804558 0.9247991 0.0000000 -0.3804558 0.9247991 0.0000000 -0.1819298 0.9833115 0.0000000 -0.1819298 0.9833115 0.0000000 -0.0029919 0.9999955 0.0000000 -0.0029919 0.9999955 0.0000000 0.1751977 0.9845333 0.0000000 0.1751977 0.9845333 0.0000000 0.3743738 0.9272779 0.0000000 0.3743738 0.9272779 0.0000000 0.5733764 0.8192921 0.0000000 0.5733764 0.8192921 0.0000000 0.7460663 0.6658716 0.0000000 0.7460663 0.6658716 0.0000000 0.8688198 0.4951284 0.0000000 0.8688198 0.4951284 0.0000000 0.0000000 0.0000000 1.0000000 0.0000000 0.0000000 1.0000000 0.0000000 0.0000000 1.0000000 0.0000000 0.0000000 1.0000000 0.0000000 0.0000000 1.0000000 0.0000000 0.0000000 1.0000000 0.0000000 0.0000000 1.0000000 0.0000000 0.0000000 1.0000000 0.0000000 0.0000000 1.0000000 0.0000000 0.0000000 1.0000000 0.0000000 0.0000000 1.0000000 0.0000000 0.0000000 1.0000000 0.0000000 0.0000000 1.0000000 0.0000000 0.0000000 1.0000000 0.0000000 0.0000000 1.0000000 0.0000000 0.0000000 1.0000000 0.0000000 0.0000000 1.0000000 0.0000000 0.0000000 1.0000000 0.0000000 0.0000000 1.0000000 0.0000000 0.0000000 1.0000000 0.0000000 0.0000000 1.0000000 0.0000000 0.0000000 1.0000000 0.0000000 0.0000000 1.0000000 0.0000000 0.0000000 1.0000000 0.0000000 0.0000000 1.0000000 0.0000000 0.0000000 1.0000000 0.0000000 0.0000000 1.0000000 0.0000000 0.0000000 1.0000000 0.0000000 0.0000000 1.0000000 0.0000000 0.0000000 1.0000000 0.0000000 0.0000000 1.0000000 0.0000000 0.0000000 1.0000000 0.0000000 0.0000000 1.0000000 0.0000000 0.0000000 1.0000000 0.0000000 0.0000000 1.0000000 0.0000000 0.0000000 1.0000000 0.0000000 0.0000000 1.0000000 0.0000000 0.0000000 1.0000000 0.0000000 0.0000000 1.0000000 0.0000000 0.0000000 1.0000000 0.0000000 0.0000000 1.0000000 0.0000000 0.0000000 1.0000000 0.0000000 0.0000000 1.0000000 0.0000000 0.0000000 1.0000000 0.0000000 0.0000000 1.0000000 0.0000000 0.0000000 1.0000000 0.0000000 0.0000000 1.0000000 0.0000000 0.0000000 1.0000000 0.0000000 0.0000000 1.0000000 0.0000000 0.0000000 1.0000000 0.0000000 0.0000000 1.0000000 0.0000000 0.0000000 1.0000000 0.0000000 0.0000000 1.0000000 0.0000000 0.0000000 1.0000000 0.0000000 0.0000000 1.0000000 0.0000000 0.0000000 1.0000000 0.0000000 0.0000000 1.0000000 0.0000000 0.0000000 1.0000000 0.0000000 0.0000000 1.0000000 0.0000000 0.0000000 1.0000000 0.0000000 0.0000000 1.0000000 0.0000000 0.0000000 1.0000000 0.0000000 0.0000000 1.0000000 0.0000000 0.0000000 1.0000000 0.0000000 0.0000000 1.0000000 0.0000000 0.0000000 1.0000000 0.0000000 0.0000000 1.0000000 0.0000000 0.0000000 1.0000000 0.0000000 0.0000000 1.0000000 0.0000000 0.0000000 1.0000000</float_array>
                    <technique_common>
                        <accessor count="288" source="#ID24" stride="3">
                            <param name="X" type="float" />
                            <param name="Y" type="float" />
                            <param name="Z" type="float" />
                        </accessor>
                    </technique_common>
                </source>
                <vertices id="ID22">
                    <input semantic="POSITION" source="#ID20" />
                    <input semantic="NORMAL" source="#ID21" />
                </vertices>
                <triangles count="276" material="Material2">
                    <input offset="0" semantic="VERTEX" source="#ID22" />
                    <p>0 1 2 1 0 3 1 3 4 4 3 5 4 5 6 4 6 7 7 6 8 7 8 9 9 8 10 9 10 11 11 10 12 11 12 13 13 12 14 14 12 15 15 12 16 15 16 17 17 16 18 17 18 19 19 18 20 20 18 21 20 21 22 22 21 23 23 21 24 24 21 25 24 25 26 24 26 27 24 27 28 9 29 30 29 9 11 30 29 31 30 31 32 30 32 33 30 33 34 30 34 35 35 34 36 36 34 37 36 37 38 38 37 39 39 37 40 40 37 41 41 37 42 41 42 43 43 42 44 44 42 45 44 45 46 46 45 47 46 47 48 48 47 49 48 49 50 51 52 53 52 51 54 54 51 55 55 51 56 56 51 57 57 51 58 57 58 59 59 58 60 59 60 61 59 61 62 59 62 63 63 62 64 63 64 65 65 64 66 65 66 67 65 67 40 40 67 68 40 68 69 40 69 39 70 71 72 71 70 73 74 75 76 75 74 77 78 79 80 79 78 81 82 81 78 81 82 83 82 84 83 84 82 85 85 86 84 86 85 87 87 88 86 88 87 89 89 90 88 90 89 91 90 92 93 92 90 91 93 94 95 94 93 92 95 96 97 96 95 94 97 98 99 98 97 96 98 100 99 100 98 101 101 102 100 102 101 103 103 104 102 104 103 105 105 106 104 106 105 107 107 108 106 108 107 109 108 110 111 110 108 109 111 112 113 112 111 110 113 114 115 114 113 112 115 116 117 116 115 114 117 118 119 118 117 116 119 120 121 120 119 118 121 122 123 122 121 120 123 124 125 124 123 122 124 126 125 126 124 127 127 128 126 128 127 129 129 130 128 130 129 131 131 132 130 132 131 133 133 134 132 134 133 135 135 136 134 136 135 137 137 138 136 138 137 139 139 140 138 140 139 141 142 140 141 140 142 143 144 143 142 143 144 145 146 145 144 145 146 147 148 149 150 149 148 151 152 153 154 153 152 155 154 156 157 156 154 153 156 158 157 158 156 159 159 160 158 160 159 161 161 162 160 162 161 163 163 164 162 164 163 165 165 166 164 166 165 167 167 168 166 168 167 169 170 168 169 168 170 171 172 171 170 171 172 173 174 173 172 173 174 175 176 175 174 175 176 177 176 178 177 178 176 179 179 180 178 180 179 181 181 182 180 182 181 183 183 184 182 184 183 185 185 186 184 186 185 187 188 186 187 186 188 189 190 189 188 189 190 191 192 191 190 191 192 193 194 193 192 193 194 195 196 195 194 195 196 197 198 197 196 197 198 199 198 200 199 200 198 201 201 202 200 202 201 203 203 204 202 204 203 205 205 206 204 206 205 207 207 208 206 208 207 209 209 210 208 210 209 211 211 212 210 212 211 213 213 214 212 214 213 215 214 216 217 216 214 215 217 73 70 73 217 216 218 219 220 219 218 221 219 221 222 219 222 223 219 223 224 219 224 225 225 224 226 225 226 227 227 226 228 228 226 229 229 226 230 229 230 231 231 230 232 231 232 233 233 232 234 234 232 235 234 235 236 236 235 237 237 235 238 239 240 241 240 239 242 242 239 243 242 243 244 244 243 245 245 243 246 245 246 247 247 246 248 247 248 249 249 248 250 250 248 251 251 248 252 251 252 253 253 252 254 254 252 255 255 252 256 256 252 257 256 257 258 256 258 259 259 258 260 259 260 238 259 238 235 259 235 261 259 261 262 262 261 263 262 263 264 262 264 265 265 264 266 265 266 267 267 266 268 267 268 269 269 268 270 250 271 249 271 250 272 271 272 273 271 273 274 271 274 275 275 274 276 275 276 277 277 276 278 277 278 279 277 279 280 280 279 281 280 281 282 280 282 283 280 283 284 284 283 285 285 283 286 286 283 287</p>
                </triangles>
            </mesh>
        </geometry>
        <geometry id="ID25">
            <mesh>
                <source id="ID26">
                    <float_array id="ID29" count="864">30.8577576 7.5980829 0.0000000 30.9408690 6.2766047 0.0000000 30.8112152 7.0744784 0.0000000 30.9973857 8.1316608 0.0000000 31.3298330 5.5585188 0.0000000 31.2400720 8.6536032 0.0000000 31.5957908 9.1423006 0.0000000 31.9282377 4.9734111 0.0000000 32.0745146 9.5678334 0.0000000 32.6862180 4.5744748 0.0000000 32.6862180 9.9002804 0.0000000 32.8058990 7.3803299 0.0000000 33.4242507 10.1147093 0.0000000 32.9122816 7.8341207 0.0000000 33.2314315 8.1848524 0.0000000 33.7367510 8.4092547 0.0000000 34.2819650 10.1861851 0.0000000 34.4016460 8.4840549 0.0000000 35.2709961 10.1097226 0.0000000 34.9751178 8.4075925 0.0000000 35.4455305 8.1782034 0.0000000 36.0838293 9.8803336 0.0000000 35.7596937 7.8224851 0.0000000 35.8644141 7.3670320 0.0000000 37.8590979 7.4069257 0.0000000 36.7221285 9.5379131 0.0000000 37.1875543 9.1223538 0.0000000 37.5083663 8.6685632 0.0000000 37.7128211 8.2114482 0.0000000 32.8906726 6.9614461 0.0000000 34.8670722 3.7898992 0.0000000 33.1449952 6.6356480 0.0000000 33.5189983 6.3863124 0.0000000 33.9628156 6.1968176 0.0000000 35.7979246 5.6117103 0.0000000 35.4671402 3.5289280 0.0000000 35.8311694 3.2779303 0.0000000 36.7553734 5.1895026 0.0000000 36.0156779 2.9903636 0.0000000 36.0771804 2.6196847 0.0000000 36.1237230 0.0997342 0.0000000 36.7636844 0.4305190 0.0000000 37.4734590 4.6143684 0.0000000 37.2606927 0.8510651 0.0000000 37.6280473 1.3331136 0.0000000 37.7352621 4.2611428 0.0000000 37.8790447 1.8484070 0.0000000 37.9222636 3.8530647 0.0000000 38.0236595 2.3703493 0.0000000 38.0344641 3.3901325 0.0000000 38.0718641 2.8723446 0.0000000 32.6330264 2.9920256 0.0000000 30.7646726 2.0013327 0.0000000 30.6383426 2.9521320 0.0000000 30.9558295 1.5009995 0.0000000 31.2766414 0.9973419 0.0000000 31.7603518 0.5335777 0.0000000 32.4402070 0.1529258 0.0000000 32.7610180 2.3337795 0.0000000 33.3261785 -0.1013968 0.0000000 32.9210081 2.0794580 0.0000000 33.1449952 1.8750027 0.0000000 33.7251154 1.6057200 0.0000000 34.4282418 -0.1861705 0.0000000 34.4415397 1.5159597 0.0000000 35.3441344 -0.1146947 0.0000000 35.0100247 1.5824488 0.0000000 35.5186689 1.7819175 0.0000000 35.9242546 2.1343116 0.0000000 36.0389491 2.3587135 0.0000000 37.7128211 8.2114482 0.0000000 37.8590979 7.4069257 1.0000000 37.8590979 7.4069257 0.0000000 37.7128211 8.2114482 1.0000000 37.8590979 7.4069257 1.0000000 35.8644141 7.3670320 0.0000000 37.8590979 7.4069257 0.0000000 35.8644141 7.3670320 1.0000000 35.7596937 7.8224851 1.0000000 35.8644141 7.3670320 0.0000000 35.8644141 7.3670320 1.0000000 35.7596937 7.8224851 0.0000000 35.4455305 8.1782034 1.0000000 35.4455305 8.1782034 0.0000000 34.9751178 8.4075925 0.0000000 34.9751178 8.4075925 1.0000000 34.4016460 8.4840549 0.0000000 34.4016460 8.4840549 1.0000000 33.7367510 8.4092547 0.0000000 33.7367510 8.4092547 1.0000000 33.2314315 8.1848524 0.0000000 33.2314315 8.1848524 1.0000000 32.9122816 7.8341207 1.0000000 32.9122816 7.8341207 0.0000000 32.8058990 7.3803299 1.0000000 32.8058990 7.3803299 0.0000000 32.8906726 6.9614461 1.0000000 32.8906726 6.9614461 0.0000000 33.1449952 6.6356480 1.0000000 33.1449952 6.6356480 0.0000000 33.5189983 6.3863124 0.0000000 33.5189983 6.3863124 1.0000000 33.9628156 6.1968176 0.0000000 33.9628156 6.1968176 1.0000000 35.7979246 5.6117103 0.0000000 35.7979246 5.6117103 1.0000000 36.7553734 5.1895026 0.0000000 36.7553734 5.1895026 1.0000000 37.4734590 4.6143684 0.0000000 37.4734590 4.6143684 1.0000000 37.7352621 4.2611428 1.0000000 37.7352621 4.2611428 0.0000000 37.9222636 3.8530647 1.0000000 37.9222636 3.8530647 0.0000000 38.0344641 3.3901325 1.0000000 38.0344641 3.3901325 0.0000000 38.0718641 2.8723446 1.0000000 38.0718641 2.8723446 0.0000000 38.0236595 2.3703493 1.0000000 38.0236595 2.3703493 0.0000000 37.8790447 1.8484070 1.0000000 37.8790447 1.8484070 0.0000000 37.6280473 1.3331136 1.0000000 37.6280473 1.3331136 0.0000000 37.2606927 0.8510651 1.0000000 37.2606927 0.8510651 0.0000000 36.7636844 0.4305190 0.0000000 36.7636844 0.4305190 1.0000000 36.1237230 0.0997342 0.0000000 36.1237230 0.0997342 1.0000000 35.3441344 -0.1146947 0.0000000 35.3441344 -0.1146947 1.0000000 34.4282418 -0.1861705 0.0000000 34.4282418 -0.1861705 1.0000000 33.3261785 -0.1013968 0.0000000 33.3261785 -0.1013968 1.0000000 32.4402070 0.1529258 0.0000000 32.4402070 0.1529258 1.0000000 31.7603518 0.5335777 0.0000000 31.7603518 0.5335777 1.0000000 31.2766414 0.9973419 0.0000000 31.2766414 0.9973419 1.0000000 30.9558295 1.5009995 1.0000000 30.9558295 1.5009995 0.0000000 30.7646726 2.0013327 1.0000000 30.7646726 2.0013327 0.0000000 30.6383426 2.9521320 1.0000000 30.6383426 2.9521320 0.0000000 30.6383426 2.9521320 1.0000000 32.6330264 2.9920256 0.0000000 30.6383426 2.9521320 0.0000000 32.6330264 2.9920256 1.0000000 32.6330264 2.9920256 0.0000000 32.7610180 2.3337795 1.0000000 32.7610180 2.3337795 0.0000000 32.6330264 2.9920256 1.0000000 32.9210081 2.0794580 1.0000000 32.9210081 2.0794580 0.0000000 33.1449952 1.8750027 0.0000000 33.1449952 1.8750027 1.0000000 33.7251154 1.6057200 0.0000000 33.7251154 1.6057200 1.0000000 34.4415397 1.5159597 0.0000000 34.4415397 1.5159597 1.0000000 35.0100247 1.5824488 0.0000000 35.0100247 1.5824488 1.0000000 35.5186689 1.7819175 0.0000000 35.5186689 1.7819175 1.0000000 35.9242546 2.1343116 0.0000000 35.9242546 2.1343116 1.0000000 36.0389491 2.3587135 1.0000000 36.0389491 2.3587135 0.0000000 36.0771804 2.6196847 1.0000000 36.0771804 2.6196847 0.0000000 36.0156779 2.9903636 1.0000000 36.0156779 2.9903636 0.0000000 35.8311694 3.2779303 1.0000000 35.8311694 3.2779303 0.0000000 35.4671402 3.5289280 0.0000000 35.4671402 3.5289280 1.0000000 34.8670722 3.7898992 0.0000000 34.8670722 3.7898992 1.0000000 32.6862180 4.5744748 0.0000000 32.6862180 4.5744748 1.0000000 31.9282377 4.9734111 0.0000000 31.9282377 4.9734111 1.0000000 31.3298330 5.5585188 0.0000000 31.3298330 5.5585188 1.0000000 30.9408690 6.2766047 1.0000000 30.9408690 6.2766047 0.0000000 30.8112152 7.0744784 1.0000000 30.8112152 7.0744784 0.0000000 30.8577576 7.5980829 1.0000000 30.8577576 7.5980829 0.0000000 30.9973857 8.1316608 1.0000000 30.9973857 8.1316608 0.0000000 31.2400720 8.6536032 1.0000000 31.2400720 8.6536032 0.0000000 31.5957908 9.1423006 1.0000000 31.5957908 9.1423006 0.0000000 32.0745146 9.5678334 0.0000000 32.0745146 9.5678334 1.0000000 32.6862180 9.9002804 0.0000000 32.6862180 9.9002804 1.0000000 33.4242507 10.1147093 0.0000000 33.4242507 10.1147093 1.0000000 34.2819650 10.1861851 0.0000000 34.2819650 10.1861851 1.0000000 35.2709961 10.1097226 0.0000000 35.2709961 10.1097226 1.0000000 36.0838293 9.8803336 0.0000000 36.0838293 9.8803336 1.0000000 36.7221285 9.5379131 0.0000000 36.7221285 9.5379131 1.0000000 37.1875543 9.1223538 0.0000000 37.1875543 9.1223538 1.0000000 37.5083663 8.6685632 1.0000000 37.5083663 8.6685632 0.0000000 30.7646726 2.0013327 1.0000000 32.6330264 2.9920256 1.0000000 30.6383426 2.9521320 1.0000000 30.9558295 1.5009995 1.0000000 31.2766414 0.9973419 1.0000000 31.7603518 0.5335777 1.0000000 32.4402070 0.1529258 1.0000000 32.7610180 2.3337795 1.0000000 33.3261785 -0.1013968 1.0000000 32.9210081 2.0794580 1.0000000 33.1449952 1.8750027 1.0000000 33.7251154 1.6057200 1.0000000 34.4282418 -0.1861705 1.0000000 34.4415397 1.5159597 1.0000000 35.3441344 -0.1146947 1.0000000 35.0100247 1.5824488 1.0000000 35.5186689 1.7819175 1.0000000 36.1237230 0.0997342 1.0000000 35.9242546 2.1343116 1.0000000 36.0389491 2.3587135 1.0000000 36.0771804 2.6196847 1.0000000 30.9408690 6.2766047 1.0000000 30.8577576 7.5980829 1.0000000 30.8112152 7.0744784 1.0000000 30.9973857 8.1316608 1.0000000 31.3298330 5.5585188 1.0000000 31.2400720 8.6536032 1.0000000 31.5957908 9.1423006 1.0000000 31.9282377 4.9734111 1.0000000 32.0745146 9.5678334 1.0000000 32.6862180 4.5744748 1.0000000 32.6862180 9.9002804 1.0000000 32.8058990 7.3803299 1.0000000 32.8906726 6.9614461 1.0000000 34.8670722 3.7898992 1.0000000 33.1449952 6.6356480 1.0000000 33.5189983 6.3863124 1.0000000 33.9628156 6.1968176 1.0000000 35.7979246 5.6117103 1.0000000 35.4671402 3.5289280 1.0000000 35.8311694 3.2779303 1.0000000 36.7553734 5.1895026 1.0000000 36.0156779 2.9903636 1.0000000 36.7636844 0.4305190 1.0000000 37.4734590 4.6143684 1.0000000 37.2606927 0.8510651 1.0000000 37.6280473 1.3331136 1.0000000 37.7352621 4.2611428 1.0000000 37.8790447 1.8484070 1.0000000 37.9222636 3.8530647 1.0000000 38.0236595 2.3703493 1.0000000 38.0344641 3.3901325 1.0000000 38.0718641 2.8723446 1.0000000 33.4242507 10.1147093 1.0000000 32.9122816 7.8341207 1.0000000 33.2314315 8.1848524 1.0000000 33.7367510 8.4092547 1.0000000 34.2819650 10.1861851 1.0000000 34.4016460 8.4840549 1.0000000 35.2709961 10.1097226 1.0000000 34.9751178 8.4075925 1.0000000 35.4455305 8.1782034 1.0000000 36.0838293 9.8803336 1.0000000 35.7596937 7.8224851 1.0000000 35.8644141 7.3670320 1.0000000 37.8590979 7.4069257 1.0000000 36.7221285 9.5379131 1.0000000 37.1875543 9.1223538 1.0000000 37.5083663 8.6685632 1.0000000 37.7128211 8.2114482 1.0000000</float_array>
                    <technique_common>
                        <accessor count="288" source="#ID29" stride="3">
                            <param name="X" type="float" />
                            <param name="Y" type="float" />
                            <param name="Z" type="float" />
                        </accessor>
                    </technique_common>
                </source>
                <source id="ID27">
                    <float_array id="ID30" count="864">-0.0000000 -0.0000000 -1.0000000 -0.0000000 -0.0000000 -1.0000000 -0.0000000 -0.0000000 -1.0000000 -0.0000000 -0.0000000 -1.0000000 -0.0000000 -0.0000000 -1.0000000 -0.0000000 -0.0000000 -1.0000000 -0.0000000 -0.0000000 -1.0000000 -0.0000000 -0.0000000 -1.0000000 -0.0000000 -0.0000000 -1.0000000 -0.0000000 -0.0000000 -1.0000000 -0.0000000 -0.0000000 -1.0000000 -0.0000000 -0.0000000 -1.0000000 -0.0000000 -0.0000000 -1.0000000 -0.0000000 -0.0000000 -1.0000000 -0.0000000 -0.0000000 -1.0000000 -0.0000000 -0.0000000 -1.0000000 -0.0000000 -0.0000000 -1.0000000 -0.0000000 -0.0000000 -1.0000000 -0.0000000 -0.0000000 -1.0000000 -0.0000000 -0.0000000 -1.0000000 -0.0000000 -0.0000000 -1.0000000 -0.0000000 -0.0000000 -1.0000000 -0.0000000 -0.0000000 -1.0000000 -0.0000000 -0.0000000 -1.0000000 -0.0000000 -0.0000000 -1.0000000 -0.0000000 -0.0000000 -1.0000000 -0.0000000 -0.0000000 -1.0000000 -0.0000000 -0.0000000 -1.0000000 -0.0000000 -0.0000000 -1.0000000 -0.0000000 -0.0000000 -1.0000000 -0.0000000 -0.0000000 -1.0000000 -0.0000000 -0.0000000 -1.0000000 -0.0000000 -0.0000000 -1.0000000 -0.0000000 -0.0000000 -1.0000000 -0.0000000 -0.0000000 -1.0000000 -0.0000000 -0.0000000 -1.0000000 -0.0000000 -0.0000000 -1.0000000 -0.0000000 -0.0000000 -1.0000000 -0.0000000 -0.0000000 -1.0000000 -0.0000000 -0.0000000 -1.0000000 -0.0000000 -0.0000000 -1.0000000 -0.0000000 -0.0000000 -1.0000000 -0.0000000 -0.0000000 -1.0000000 -0.0000000 -0.0000000 -1.0000000 -0.0000000 -0.0000000 -1.0000000 -0.0000000 -0.0000000 -1.0000000 -0.0000000 -0.0000000 -1.0000000 -0.0000000 -0.0000000 -1.0000000 -0.0000000 -0.0000000 -1.0000000 -0.0000000 -0.0000000 -1.0000000 -0.0000000 -0.0000000 -1.0000000 -0.0000000 -0.0000000 -1.0000000 -0.0000000 -0.0000000 -1.0000000 -0.0000000 -0.0000000 -1.0000000 -0.0000000 -0.0000000 -1.0000000 -0.0000000 -0.0000000 -1.0000000 -0.0000000 -0.0000000 -1.0000000 -0.0000000 -0.0000000 -1.0000000 -0.0000000 -0.0000000 -1.0000000 -0.0000000 -0.0000000 -1.0000000 -0.0000000 -0.0000000 -1.0000000 -0.0000000 -0.0000000 -1.0000000 -0.0000000 -0.0000000 -1.0000000 -0.0000000 -0.0000000 -1.0000000 -0.0000000 -0.0000000 -1.0000000 -0.0000000 -0.0000000 -1.0000000 -0.0000000 -0.0000000 -1.0000000 -0.0000000 -0.0000000 -1.0000000 -0.0000000 -0.0000000 -1.0000000 -0.0000000 -0.0000000 -1.0000000 0.9552720 0.2957287 0.0000000 0.9838699 0.1788854 0.0000000 0.9838699 0.1788854 0.0000000 0.9552720 0.2957287 0.0000000 0.0199960 -0.9998001 0.0000000 0.0199960 -0.9998001 0.0000000 0.0199960 -0.9998001 0.0000000 0.0199960 -0.9998001 0.0000000 -0.8894203 -0.4570902 0.0000000 -0.9745710 -0.2240789 0.0000000 -0.9745710 -0.2240789 0.0000000 -0.8894203 -0.4570902 0.0000000 -0.6056074 -0.7957636 0.0000000 -0.6056074 -0.7957636 0.0000000 -0.2889484 -0.9573447 0.0000000 -0.2889484 -0.9573447 0.0000000 -0.0102611 -0.9999474 0.0000000 -0.0102611 -0.9999474 0.0000000 0.2618843 -0.9650993 0.0000000 0.2618843 -0.9650993 0.0000000 0.5852710 -0.8108378 0.0000000 0.5852710 -0.8108378 0.0000000 0.8850103 -0.4655715 0.0000000 0.8850103 -0.4655715 0.0000000 0.9998830 -0.0152943 0.0000000 0.9998830 -0.0152943 0.0000000 0.9084459 0.4180025 0.0000000 0.9084459 0.4180025 0.0000000 0.6801709 0.7330536 0.0000000 0.6801709 0.7330536 0.0000000 0.4757080 0.8796032 0.0000000 0.4757080 0.8796032 0.0000000 0.3486147 0.9372661 0.0000000 0.3486147 0.9372661 0.0000000 0.3541320 0.9351955 0.0000000 0.3541320 0.9351955 0.0000000 0.5186860 0.8549648 0.0000000 0.5186860 0.8549648 0.0000000 0.7202313 0.6937340 0.0000000 0.7202313 0.6937340 0.0000000 0.8608992 0.5087756 0.0000000 0.8608992 0.5087756 0.0000000 0.9448243 0.3275774 0.0000000 0.9448243 0.3275774 0.0000000 0.9880201 0.1543253 0.0000000 0.9880201 0.1543253 0.0000000 0.9999302 -0.0118134 0.0000000 0.9999302 -0.0118134 0.0000000 0.9833001 -0.1819914 0.0000000 0.9833001 -0.1819914 0.0000000 0.9352680 -0.3539402 0.0000000 0.9352680 -0.3539402 0.0000000 0.8513588 -0.5245838 0.0000000 0.8513588 -0.5245838 0.0000000 0.7249325 -0.6888199 0.0000000 0.7249325 -0.6888199 0.0000000 0.5560784 -0.8311299 0.0000000 0.5560784 -0.8311299 0.0000000 0.3641679 -0.9313333 0.0000000 0.3641679 -0.9313333 0.0000000 0.1722851 -0.9850471 0.0000000 0.1722851 -0.9850471 0.0000000 0.0005551 -0.9999998 0.0000000 0.0005551 -0.9999998 0.0000000 -0.1772142 -0.9841723 0.0000000 -0.1772142 -0.9841723 0.0000000 -0.3847861 -0.9230058 0.0000000 -0.3847861 -0.9230058 0.0000000 -0.5950930 -0.8036569 0.0000000 -0.5950930 -0.8036569 0.0000000 -0.7732778 -0.6340673 0.0000000 -0.7732778 -0.6340673 0.0000000 -0.8933498 -0.4493619 0.0000000 -0.8933498 -0.4493619 0.0000000 -0.9692777 -0.2459690 0.0000000 -0.9692777 -0.2459690 0.0000000 -0.9912883 -0.1317096 0.0000000 -0.9912883 -0.1317096 0.0000000 -0.0199960 0.9998001 0.0000000 -0.0199960 0.9998001 0.0000000 -0.0199960 0.9998001 0.0000000 -0.0199960 0.9998001 0.0000000 0.9816156 0.1908686 0.0000000 0.9298506 0.3679372 0.0000000 0.9298506 0.3679372 0.0000000 0.9816156 0.1908686 0.0000000 0.7672568 0.6413400 0.0000000 0.7672568 0.6413400 0.0000000 0.5540441 0.8324873 0.0000000 0.5540441 0.8324873 0.0000000 0.2759841 0.9611622 0.0000000 0.2759841 0.9611622 0.0000000 0.0041052 0.9999916 0.0000000 0.0041052 0.9999916 0.0000000 -0.2426325 0.9701183 0.0000000 -0.2426325 0.9701183 0.0000000 -0.5180183 0.8553695 0.0000000 -0.5180183 0.8553695 0.0000000 -0.7875468 0.6162548 0.0000000 -0.7875468 0.6162548 0.0000000 -0.9526444 0.3040867 0.0000000 -0.9526444 0.3040867 0.0000000 -0.9999551 -0.0094794 0.0000000 -0.9999551 -0.0094794 0.0000000 -0.9332496 -0.3592285 0.0000000 -0.9332496 -0.3592285 0.0000000 -0.7187404 -0.6952785 0.0000000 -0.7187404 -0.6952785 0.0000000 -0.4855007 -0.8742363 0.0000000 -0.4855007 -0.8742363 0.0000000 -0.3688616 -0.9294843 0.0000000 -0.3688616 -0.9294843 0.0000000 -0.4031061 -0.9151532 0.0000000 -0.4031061 -0.9151532 0.0000000 -0.5885954 -0.8084278 0.0000000 -0.5885954 -0.8084278 0.0000000 -0.7981801 -0.6024190 0.0000000 -0.7981801 -0.6024190 0.0000000 -0.9464443 -0.3228672 0.0000000 -0.9464443 -0.3228672 0.0000000 -0.9993442 -0.0362099 0.0000000 -0.9993442 -0.0362099 0.0000000 -0.9851931 0.1714482 0.0000000 -0.9851931 0.1714482 0.0000000 -0.9408767 0.3387493 0.0000000 -0.9408767 0.3387493 0.0000000 -0.8616847 0.5074441 0.0000000 -0.8616847 0.5074441 0.0000000 -0.7407050 0.6718304 0.0000000 -0.7407050 0.6718304 0.0000000 -0.5746958 0.8183671 0.0000000 -0.5746958 0.8183671 0.0000000 -0.3804558 0.9247991 0.0000000 -0.3804558 0.9247991 0.0000000 -0.1819298 0.9833115 0.0000000 -0.1819298 0.9833115 0.0000000 -0.0029919 0.9999955 0.0000000 -0.0029919 0.9999955 0.0000000 0.1751977 0.9845333 0.0000000 0.1751977 0.9845333 0.0000000 0.3743738 0.9272779 0.0000000 0.3743738 0.9272779 0.0000000 0.5733764 0.8192921 0.0000000 0.5733764 0.8192921 0.0000000 0.7460663 0.6658716 0.0000000 0.7460663 0.6658716 0.0000000 0.8688198 0.4951284 0.0000000 0.8688198 0.4951284 0.0000000 0.0000000 0.0000000 1.0000000 0.0000000 0.0000000 1.0000000 0.0000000 0.0000000 1.0000000 0.0000000 0.0000000 1.0000000 0.0000000 0.0000000 1.0000000 0.0000000 0.0000000 1.0000000 0.0000000 0.0000000 1.0000000 0.0000000 0.0000000 1.0000000 0.0000000 0.0000000 1.0000000 0.0000000 0.0000000 1.0000000 0.0000000 0.0000000 1.0000000 0.0000000 0.0000000 1.0000000 0.0000000 0.0000000 1.0000000 0.0000000 0.0000000 1.0000000 0.0000000 0.0000000 1.0000000 0.0000000 0.0000000 1.0000000 0.0000000 0.0000000 1.0000000 0.0000000 0.0000000 1.0000000 0.0000000 0.0000000 1.0000000 0.0000000 0.0000000 1.0000000 0.0000000 0.0000000 1.0000000 0.0000000 0.0000000 1.0000000 0.0000000 0.0000000 1.0000000 0.0000000 0.0000000 1.0000000 0.0000000 0.0000000 1.0000000 0.0000000 0.0000000 1.0000000 0.0000000 0.0000000 1.0000000 0.0000000 0.0000000 1.0000000 0.0000000 0.0000000 1.0000000 0.0000000 0.0000000 1.0000000 0.0000000 0.0000000 1.0000000 0.0000000 0.0000000 1.0000000 0.0000000 0.0000000 1.0000000 0.0000000 0.0000000 1.0000000 0.0000000 0.0000000 1.0000000 0.0000000 0.0000000 1.0000000 0.0000000 0.0000000 1.0000000 0.0000000 0.0000000 1.0000000 0.0000000 0.0000000 1.0000000 0.0000000 0.0000000 1.0000000 0.0000000 0.0000000 1.0000000 0.0000000 0.0000000 1.0000000 0.0000000 0.0000000 1.0000000 0.0000000 0.0000000 1.0000000 0.0000000 0.0000000 1.0000000 0.0000000 0.0000000 1.0000000 0.0000000 0.0000000 1.0000000 0.0000000 0.0000000 1.0000000 0.0000000 0.0000000 1.0000000 0.0000000 0.0000000 1.0000000 0.0000000 0.0000000 1.0000000 0.0000000 0.0000000 1.0000000 0.0000000 0.0000000 1.0000000 0.0000000 0.0000000 1.0000000 0.0000000 0.0000000 1.0000000 0.0000000 0.0000000 1.0000000 0.0000000 0.0000000 1.0000000 0.0000000 0.0000000 1.0000000 0.0000000 0.0000000 1.0000000 0.0000000 0.0000000 1.0000000 0.0000000 0.0000000 1.0000000 0.0000000 0.0000000 1.0000000 0.0000000 0.0000000 1.0000000 0.0000000 0.0000000 1.0000000 0.0000000 0.0000000 1.0000000 0.0000000 0.0000000 1.0000000 0.0000000 0.0000000 1.0000000 0.0000000 0.0000000 1.0000000 0.0000000 0.0000000 1.0000000 0.0000000 0.0000000 1.0000000</float_array>
                    <technique_common>
                        <accessor count="288" source="#ID30" stride="3">
                            <param name="X" type="float" />
                            <param name="Y" type="float" />
                            <param name="Z" type="float" />
                        </accessor>
                    </technique_common>
                </source>
                <vertices id="ID28">
                    <input semantic="POSITION" source="#ID26" />
                    <input semantic="NORMAL" source="#ID27" />
                </vertices>
                <triangles count="276" material="Material2">
                    <input offset="0" semantic="VERTEX" source="#ID28" />
                    <p>0 1 2 1 0 3 1 3 4 4 3 5 4 5 6 4 6 7 7 6 8 7 8 9 9 8 10 9 10 11 11 10 12 11 12 13 13 12 14 14 12 15 15 12 16 15 16 17 17 16 18 17 18 19 19 18 20 20 18 21 20 21 22 22 21 23 23 21 24 24 21 25 24 25 26 24 26 27 24 27 28 9 29 30 29 9 11 30 29 31 30 31 32 30 32 33 30 33 34 30 34 35 35 34 36 36 34 37 36 37 38 38 37 39 39 37 40 40 37 41 41 37 42 41 42 43 43 42 44 44 42 45 44 45 46 46 45 47 46 47 48 48 47 49 48 49 50 51 52 53 52 51 54 54 51 55 55 51 56 56 51 57 57 51 58 57 58 59 59 58 60 59 60 61 59 61 62 59 62 63 63 62 64 63 64 65 65 64 66 65 66 67 65 67 40 40 67 68 40 68 69 40 69 39 70 71 72 71 70 73 74 75 76 75 74 77 78 79 80 79 78 81 82 81 78 81 82 83 82 84 83 84 82 85 85 86 84 86 85 87 87 88 86 88 87 89 89 90 88 90 89 91 90 92 93 92 90 91 93 94 95 94 93 92 95 96 97 96 95 94 97 98 99 98 97 96 98 100 99 100 98 101 101 102 100 102 101 103 103 104 102 104 103 105 105 106 104 106 105 107 107 108 106 108 107 109 108 110 111 110 108 109 111 112 113 112 111 110 113 114 115 114 113 112 115 116 117 116 115 114 117 118 119 118 117 116 119 120 121 120 119 118 121 122 123 122 121 120 123 124 125 124 123 122 124 126 125 126 124 127 127 128 126 128 127 129 129 130 128 130 129 131 131 132 130 132 131 133 133 134 132 134 133 135 135 136 134 136 135 137 137 138 136 138 137 139 139 140 138 140 139 141 142 140 141 140 142 143 144 143 142 143 144 145 146 145 144 145 146 147 148 149 150 149 148 151 152 153 154 153 152 155 154 156 157 156 154 153 156 158 157 158 156 159 159 160 158 160 159 161 161 162 160 162 161 163 163 164 162 164 163 165 165 166 164 166 165 167 167 168 166 168 167 169 170 168 169 168 170 171 172 171 170 171 172 173 174 173 172 173 174 175 176 175 174 175 176 177 176 178 177 178 176 179 179 180 178 180 179 181 181 182 180 182 181 183 183 184 182 184 183 185 185 186 184 186 185 187 188 186 187 186 188 189 190 189 188 189 190 191 192 191 190 191 192 193 194 193 192 193 194 195 196 195 194 195 196 197 198 197 196 197 198 199 198 200 199 200 198 201 201 202 200 202 201 203 203 204 202 204 203 205 205 206 204 206 205 207 207 208 206 208 207 209 209 210 208 210 209 211 211 212 210 212 211 213 213 214 212 214 213 215 214 216 217 216 214 215 217 73 70 73 217 216 218 219 220 219 218 221 219 221 222 219 222 223 219 223 224 219 224 225 225 224 226 225 226 227 227 226 228 228 226 229 229 226 230 229 230 231 231 230 232 231 232 233 233 232 234 234 232 235 234 235 236 236 235 237 237 235 238 239 240 241 240 239 242 242 239 243 242 243 244 244 243 245 245 243 246 245 246 247 247 246 248 247 248 249 249 248 250 250 248 251 251 248 252 251 252 253 253 252 254 254 252 255 255 252 256 256 252 257 256 257 258 256 258 259 259 258 260 259 260 238 259 238 235 259 235 261 259 261 262 262 261 263 262 263 264 262 264 265 265 264 266 265 266 267 267 266 268 267 268 269 269 268 270 250 271 249 271 250 272 271 272 273 271 273 274 271 274 275 275 274 276 275 276 277 277 276 278 277 278 279 277 279 280 280 279 281 280 281 282 280 282 283 280 283 284 284 283 285 285 283 286 286 283 287</p>
                </triangles>
            </mesh>
        </geometry>
        <geometry id="ID31">
            <mesh>
                <source id="ID32">
                    <float_array id="ID35" count="72">41.9947422 10.0000146 0.0000000 40.0000584 0.0000000 0.0000000 40.0000584 10.0000146 0.0000000 41.9947422 0.0000000 0.0000000 41.9947422 0.0000000 1.0000000 40.0000584 0.0000000 0.0000000 41.9947422 0.0000000 0.0000000 40.0000584 0.0000000 1.0000000 40.0000584 10.0000146 1.0000000 40.0000584 0.0000000 0.0000000 40.0000584 0.0000000 1.0000000 40.0000584 10.0000146 0.0000000 40.0000584 10.0000146 1.0000000 41.9947422 10.0000146 0.0000000 40.0000584 10.0000146 0.0000000 41.9947422 10.0000146 1.0000000 41.9947422 10.0000146 0.0000000 41.9947422 0.0000000 1.0000000 41.9947422 0.0000000 0.0000000 41.9947422 10.0000146 1.0000000 41.9947422 0.0000000 1.0000000 40.0000584 10.0000146 1.0000000 40.0000584 0.0000000 1.0000000 41.9947422 10.0000146 1.0000000</float_array>
                    <technique_common>
                        <accessor count="24" source="#ID35" stride="3">
                            <param name="X" type="float" />
                            <param name="Y" type="float" />
                            <param name="Z" type="float" />
                        </accessor>
                    </technique_common>
                </source>
                <source id="ID33">
                    <float_array id="ID36" count="72">-0.0000000 -0.0000000 -1.0000000 -0.0000000 -0.0000000 -1.0000000 -0.0000000 -0.0000000 -1.0000000 -0.0000000 -0.0000000 -1.0000000 0.0000000 -1.0000000 0.0000000 0.0000000 -1.0000000 0.0000000 0.0000000 -1.0000000 0.0000000 0.0000000 -1.0000000 0.0000000 -1.0000000 0.0000000 0.0000000 -1.0000000 0.0000000 0.0000000 -1.0000000 0.0000000 0.0000000 -1.0000000 0.0000000 0.0000000 0.0000000 1.0000000 0.0000000 0.0000000 1.0000000 0.0000000 0.0000000 1.0000000 0.0000000 0.0000000 1.0000000 0.0000000 1.0000000 0.0000000 0.0000000 1.0000000 0.0000000 0.0000000 1.0000000 0.0000000 0.0000000 1.0000000 0.0000000 0.0000000 0.0000000 0.0000000 1.0000000 0.0000000 0.0000000 1.0000000 0.0000000 0.0000000 1.0000000 0.0000000 0.0000000 1.0000000</float_array>
                    <technique_common>
                        <accessor count="24" source="#ID36" stride="3">
                            <param name="X" type="float" />
                            <param name="Y" type="float" />
                            <param name="Z" type="float" />
                        </accessor>
                    </technique_common>
                </source>
                <vertices id="ID34">
                    <input semantic="POSITION" source="#ID32" />
                    <input semantic="NORMAL" source="#ID33" />
                </vertices>
                <triangles count="12" material="Material2">
                    <input offset="0" semantic="VERTEX" source="#ID34" />
                    <p>0 1 2 1 0 3 4 5 6 5 4 7 8 9 10 9 8 11 12 13 14 13 12 15 16 17 18 17 16 19 20 21 22 21 20 23</p>
                </triangles>
            </mesh>
        </geometry>
        <geometry id="ID37">
            <mesh>
                <source id="ID38">
                    <float_array id="ID41" count="144">45.5319814 10.0000146 0.0000000 46.5958128 0.0000000 0.0000000 43.3378293 10.0000146 0.0000000 47.6729420 2.6462805 0.0000000 48.6968797 0.0000000 0.0000000 47.6995378 2.6462805 0.0000000 49.7873068 10.0000146 0.0000000 51.9415652 10.0000146 0.0000000 47.6729420 2.6462805 1.0000000 47.6995378 2.6462805 0.0000000 47.6729420 2.6462805 0.0000000 47.6995378 2.6462805 1.0000000 49.7873068 10.0000146 1.0000000 47.6995378 2.6462805 0.0000000 47.6995378 2.6462805 1.0000000 49.7873068 10.0000146 0.0000000 49.7873068 10.0000146 1.0000000 51.9415652 10.0000146 0.0000000 49.7873068 10.0000146 0.0000000 51.9415652 10.0000146 1.0000000 51.9415652 10.0000146 0.0000000 48.6968797 0.0000000 1.0000000 48.6968797 0.0000000 0.0000000 51.9415652 10.0000146 1.0000000 48.6968797 0.0000000 1.0000000 46.5958128 0.0000000 0.0000000 48.6968797 0.0000000 0.0000000 46.5958128 0.0000000 1.0000000 43.3378293 10.0000146 1.0000000 46.5958128 0.0000000 0.0000000 46.5958128 0.0000000 1.0000000 43.3378293 10.0000146 0.0000000 43.3378293 10.0000146 1.0000000 45.5319814 10.0000146 0.0000000 43.3378293 10.0000146 0.0000000 45.5319814 10.0000146 1.0000000 45.5319814 10.0000146 0.0000000 47.6729420 2.6462805 1.0000000 47.6729420 2.6462805 0.0000000 45.5319814 10.0000146 1.0000000 46.5958128 0.0000000 1.0000000 45.5319814 10.0000146 1.0000000 43.3378293 10.0000146 1.0000000 47.6729420 2.6462805 1.0000000 48.6968797 0.0000000 1.0000000 47.6995378 2.6462805 1.0000000 49.7873068 10.0000146 1.0000000 51.9415652 10.0000146 1.0000000</float_array>
                    <technique_common>
                        <accessor count="48" source="#ID41" stride="3">
                            <param name="X" type="float" />
                            <param name="Y" type="float" />
                            <param name="Z" type="float" />
                        </accessor>
                    </technique_common>
                </source>
                <source id="ID39">
                    <float_array id="ID42" count="144">-0.0000000 -0.0000000 -1.0000000 -0.0000000 -0.0000000 -1.0000000 -0.0000000 -0.0000000 -1.0000000 -0.0000000 -0.0000000 -1.0000000 -0.0000000 -0.0000000 -1.0000000 -0.0000000 -0.0000000 -1.0000000 -0.0000000 -0.0000000 -1.0000000 -0.0000000 -0.0000000 -1.0000000 0.0000000 1.0000000 0.0000000 0.0000000 1.0000000 0.0000000 0.0000000 1.0000000 0.0000000 0.0000000 1.0000000 0.0000000 -0.9619821 0.2731125 0.0000000 -0.9619821 0.2731125 0.0000000 -0.9619821 0.2731125 0.0000000 -0.9619821 0.2731125 0.0000000 0.0000000 1.0000000 0.0000000 0.0000000 1.0000000 0.0000000 0.0000000 1.0000000 0.0000000 0.0000000 1.0000000 0.0000000 0.9511827 -0.3086284 0.0000000 0.9511827 -0.3086284 0.0000000 0.9511827 -0.3086284 0.0000000 0.9511827 -0.3086284 0.0000000 0.0000000 -1.0000000 0.0000000 0.0000000 -1.0000000 0.0000000 0.0000000 -1.0000000 0.0000000 0.0000000 -1.0000000 0.0000000 -0.9508108 -0.3097721 0.0000000 -0.9508108 -0.3097721 0.0000000 -0.9508108 -0.3097721 0.0000000 -0.9508108 -0.3097721 0.0000000 0.0000000 1.0000000 0.0000000 0.0000000 1.0000000 0.0000000 0.0000000 1.0000000 0.0000000 0.0000000 1.0000000 0.0000000 0.9601360 0.2795333 0.0000000 0.9601360 0.2795333 0.0000000 0.9601360 0.2795333 0.0000000 0.9601360 0.2795333 0.0000000 0.0000000 0.0000000 1.0000000 0.0000000 0.0000000 1.0000000 0.0000000 0.0000000 1.0000000 0.0000000 0.0000000 1.0000000 0.0000000 0.0000000 1.0000000 0.0000000 0.0000000 1.0000000 0.0000000 0.0000000 1.0000000 0.0000000 0.0000000 1.0000000</float_array>
                    <technique_common>
                        <accessor count="48" source="#ID42" stride="3">
                            <param name="X" type="float" />
                            <param name="Y" type="float" />
                            <param name="Z" type="float" />
                        </accessor>
                    </technique_common>
                </source>
                <vertices id="ID40">
                    <input semantic="POSITION" source="#ID38" />
                    <input semantic="NORMAL" source="#ID39" />
                </vertices>
                <triangles count="28" material="Material2">
                    <input offset="0" semantic="VERTEX" source="#ID40" />
                    <p>0 1 2 1 0 3 1 3 4 4 3 5 4 5 6 4 6 7 8 9 10 9 8 11 12 13 14 13 12 15 16 17 18 17 16 19 20 21 22 21 20 23 24 25 26 25 24 27 28 29 30 29 28 31 32 33 34 33 32 35 36 37 38 37 36 39 40 41 42 41 40 43 43 40 44 43 44 45 45 44 46 46 44 47</p>
                </triangles>
            </mesh>
        </geometry>
        <geometry id="ID43">
            <mesh>
                <source id="ID44">
                    <float_array id="ID47" count="216">53.1782692 10.0000146 0.0000000 55.1729529 8.2180971 0.0000000 53.1782692 0.0000000 0.0000000 59.5612572 10.0000146 0.0000000 59.5612572 8.2180971 0.0000000 59.4415762 5.9441576 0.0000000 55.1729529 4.1622401 0.0000000 55.1729529 5.9441576 0.0000000 59.4415762 4.1622401 0.0000000 55.1729529 1.7819175 0.0000000 59.5612572 0.0000000 0.0000000 59.5612572 1.7819175 0.0000000 59.5612572 0.0000000 1.0000000 53.1782692 0.0000000 0.0000000 59.5612572 0.0000000 0.0000000 53.1782692 0.0000000 1.0000000 53.1782692 10.0000146 1.0000000 53.1782692 0.0000000 0.0000000 53.1782692 0.0000000 1.0000000 53.1782692 10.0000146 0.0000000 53.1782692 10.0000146 1.0000000 59.5612572 10.0000146 0.0000000 53.1782692 10.0000146 0.0000000 59.5612572 10.0000146 1.0000000 59.5612572 10.0000146 0.0000000 59.5612572 8.2180971 1.0000000 59.5612572 8.2180971 0.0000000 59.5612572 10.0000146 1.0000000 59.5612572 8.2180971 1.0000000 55.1729529 8.2180971 0.0000000 59.5612572 8.2180971 0.0000000 55.1729529 8.2180971 1.0000000 55.1729529 8.2180971 0.0000000 55.1729529 5.9441576 1.0000000 55.1729529 5.9441576 0.0000000 55.1729529 8.2180971 1.0000000 55.1729529 5.9441576 1.0000000 59.4415762 5.9441576 0.0000000 55.1729529 5.9441576 0.0000000 59.4415762 5.9441576 1.0000000 59.4415762 5.9441576 0.0000000 59.4415762 4.1622401 1.0000000 59.4415762 4.1622401 0.0000000 59.4415762 5.9441576 1.0000000 59.4415762 4.1622401 1.0000000 55.1729529 4.1622401 0.0000000 59.4415762 4.1622401 0.0000000 55.1729529 4.1622401 1.0000000 55.1729529 4.1622401 0.0000000 55.1729529 1.7819175 1.0000000 55.1729529 1.7819175 0.0000000 55.1729529 4.1622401 1.0000000 55.1729529 1.7819175 1.0000000 59.5612572 1.7819175 0.0000000 55.1729529 1.7819175 0.0000000 59.5612572 1.7819175 1.0000000 59.5612572 1.7819175 0.0000000 59.5612572 0.0000000 1.0000000 59.5612572 0.0000000 0.0000000 59.5612572 1.7819175 1.0000000 53.1782692 0.0000000 1.0000000 55.1729529 1.7819175 1.0000000 53.1782692 10.0000146 1.0000000 59.5612572 0.0000000 1.0000000 59.5612572 1.7819175 1.0000000 59.4415762 4.1622401 1.0000000 55.1729529 5.9441576 1.0000000 55.1729529 4.1622401 1.0000000 59.4415762 5.9441576 1.0000000 55.1729529 8.2180971 1.0000000 59.5612572 10.0000146 1.0000000 59.5612572 8.2180971 1.0000000</float_array>
                    <technique_common>
                        <accessor count="72" source="#ID47" stride="3">
                            <param name="X" type="float" />
                            <param name="Y" type="float" />
                            <param name="Z" type="float" />
                        </accessor>
                    </technique_common>
                </source>
                <source id="ID45">
                    <float_array id="ID48" count="216">-0.0000000 -0.0000000 -1.0000000 -0.0000000 -0.0000000 -1.0000000 -0.0000000 -0.0000000 -1.0000000 -0.0000000 -0.0000000 -1.0000000 -0.0000000 -0.0000000 -1.0000000 -0.0000000 -0.0000000 -1.0000000 -0.0000000 -0.0000000 -1.0000000 -0.0000000 -0.0000000 -1.0000000 -0.0000000 -0.0000000 -1.0000000 -0.0000000 -0.0000000 -1.0000000 -0.0000000 -0.0000000 -1.0000000 -0.0000000 -0.0000000 -1.0000000 0.0000000 -1.0000000 0.0000000 0.0000000 -1.0000000 0.0000000 0.0000000 -1.0000000 0.0000000 0.0000000 -1.0000000 0.0000000 -1.0000000 0.0000000 0.0000000 -1.0000000 0.0000000 0.0000000 -1.0000000 0.0000000 0.0000000 -1.0000000 0.0000000 0.0000000 0.0000000 1.0000000 0.0000000 0.0000000 1.0000000 0.0000000 0.0000000 1.0000000 0.0000000 0.0000000 1.0000000 0.0000000 1.0000000 0.0000000 0.0000000 1.0000000 0.0000000 0.0000000 1.0000000 0.0000000 0.0000000 1.0000000 0.0000000 0.0000000 0.0000000 -1.0000000 0.0000000 0.0000000 -1.0000000 0.0000000 0.0000000 -1.0000000 0.0000000 0.0000000 -1.0000000 0.0000000 1.0000000 0.0000000 0.0000000 1.0000000 0.0000000 0.0000000 1.0000000 0.0000000 0.0000000 1.0000000 0.0000000 0.0000000 0.0000000 1.0000000 0.0000000 0.0000000 1.0000000 0.0000000 0.0000000 1.0000000 0.0000000 0.0000000 1.0000000 0.0000000 1.0000000 0.0000000 0.0000000 1.0000000 0.0000000 0.0000000 1.0000000 0.0000000 0.0000000 1.0000000 0.0000000 0.0000000 0.0000000 -1.0000000 0.0000000 0.0000000 -1.0000000 0.0000000 0.0000000 -1.0000000 0.0000000 0.0000000 -1.0000000 0.0000000 1.0000000 0.0000000 0.0000000 1.0000000 0.0000000 0.0000000 1.0000000 0.0000000 0.0000000 1.0000000 0.0000000 0.0000000 0.0000000 1.0000000 0.0000000 0.0000000 1.0000000 0.0000000 0.0000000 1.0000000 0.0000000 0.0000000 1.0000000 0.0000000 1.0000000 0.0000000 0.0000000 1.0000000 0.0000000 0.0000000 1.0000000 0.0000000 0.0000000 1.0000000 0.0000000 0.0000000 0.0000000 0.0000000 1.0000000 0.0000000 0.0000000 1.0000000 0.0000000 0.0000000 1.0000000 0.0000000 0.0000000 1.0000000 0.0000000 0.0000000 1.0000000 0.0000000 0.0000000 1.0000000 0.0000000 0.0000000 1.0000000 0.0000000 0.0000000 1.0000000 0.0000000 0.0000000 1.0000000 0.0000000 0.0000000 1.0000000 0.0000000 0.0000000 1.0000000 0.0000000 0.0000000 1.0000000</float_array>
                    <technique_common>
                        <accessor count="72" source="#ID48" stride="3">
                            <param name="X" type="float" />
                            <param name="Y" type="float" />
                            <param name="Z" type="float" />
                        </accessor>
                    </technique_common>
                </source>
                <vertices id="ID46">
                    <input semantic="POSITION" source="#ID44" />
                    <input semantic="NORMAL" source="#ID45" />
                </vertices>
                <triangles count="44" material="Material2">
                    <input offset="0" semantic="VERTEX" source="#ID46" />
                    <p>0 1 2 1 0 3 1 3 4 5 6 7 6 5 8 2 9 10 9 2 1 9 1 7 9 7 6 10 9 11 12 13 14 13 12 15 16 17 18 17 16 19 20 21 22 21 20 23 24 25 26 25 24 27 28 29 30 29 28 31 32 33 34 33 32 35 36 37 38 37 36 39 40 41 42 41 40 43 44 45 46 45 44 47 48 49 50 49 48 51 52 53 54 53 52 55 56 57 58 57 56 59 60 61 62 61 60 63 61 63 64 65 66 67 66 65 68 62 69 70 69 62 61 69 61 67 69 67 66 70 69 71</p>
                </triangles>
            </mesh>
        </geometry>
        <geometry id="ID49">
            <mesh>
                <source id="ID50">
                    <float_array id="ID53" count="48">14.9468303 3.7101118 1.0000000 17.5133235 3.7101118 0.0000000 14.9468303 3.7101118 0.0000000 17.5133235 3.7101118 1.0000000 16.2101301 7.5930962 0.0000000 14.9468303 3.7101118 1.0000000 14.9468303 3.7101118 0.0000000 16.2101301 7.5930962 1.0000000 16.2367258 7.5930962 1.0000000 17.5133235 3.7101118 0.0000000 17.5133235 3.7101118 1.0000000 16.2367258 7.5930962 0.0000000 16.2367258 7.5930962 1.0000000 16.2101301 7.5930962 0.0000000 16.2367258 7.5930962 0.0000000 16.2101301 7.5930962 1.0000000</float_array>
                    <technique_common>
                        <accessor count="16" source="#ID53" stride="3">
                            <param name="X" type="float" />
                            <param name="Y" type="float" />
                            <param name="Z" type="float" />
                        </accessor>
                    </technique_common>
                </source>
                <source id="ID51">
                    <float_array id="ID54" count="48">0.0000000 1.0000000 0.0000000 0.0000000 1.0000000 0.0000000 0.0000000 1.0000000 0.0000000 0.0000000 1.0000000 0.0000000 0.9509383 -0.3093806 0.0000000 0.9509383 -0.3093806 0.0000000 0.9509383 -0.3093806 0.0000000 0.9509383 -0.3093806 0.0000000 -0.9499766 -0.3123211 0.0000000 -0.9499766 -0.3123211 0.0000000 -0.9499766 -0.3123211 0.0000000 -0.9499766 -0.3123211 0.0000000 0.0000000 -1.0000000 0.0000000 0.0000000 -1.0000000 0.0000000 0.0000000 -1.0000000 0.0000000 0.0000000 -1.0000000 0.0000000</float_array>
                    <technique_common>
                        <accessor count="16" source="#ID54" stride="3">
                            <param name="X" type="float" />
                            <param name="Y" type="float" />
                            <param name="Z" type="float" />
                        </accessor>
                    </technique_common>
                </source>
                <vertices id="ID52">
                    <input semantic="POSITION" source="#ID50" />
                    <input semantic="NORMAL" source="#ID51" />
                </vertices>
                <triangles count="8" material="Material2">
                    <input offset="0" semantic="VERTEX" source="#ID52" />
                    <p>0 1 2 1 0 3 4 5 6 5 4 7 8 9 10 9 8 11 12 13 14 13 12 15</p>
                </triangles>
            </mesh>
        </geometry>
    </library_geometries>
    <library_materials>
        <material id="ID7" name="material">
            <instance_effect url="#ID6" />
        </material>
    </library_materials>
    <library_effects>
        <effect id="ID6">
            <profile_COMMON>
                <technique sid="COMMON">
                    <lambert>
                        <diffuse>
                            <color>1.0000000 1.0000000 1.0000000 1.0000000</color>
                        </diffuse>
                    </lambert>
                </technique>
            </profile_COMMON>
        </effect>
    </library_effects>
    <scene>
        <instance_visual_scene url="#ID2" />
    </scene>
</COLLADA>
